G04 #@! TF.FileFunction,Copper,L2,Bot,Signal*
%FSLAX46Y46*%
G04 Gerber Fmt 4.6, Leading zero omitted, Abs format (unit mm)*
G04 Created by KiCad (PCBNEW 4.0.7) date Sunday, April 15, 2018 'PMt' 03:49:00 PM*
%MOMM*%
%LPD*%
G01*
G04 APERTURE LIST*
%ADD10C,0.100000*%
%ADD11C,1.600000*%
%ADD12R,1.700000X1.700000*%
%ADD13O,1.700000X1.700000*%
%ADD14R,1.800000X1.800000*%
%ADD15O,1.800000X1.800000*%
%ADD16O,0.900000X1.500000*%
%ADD17R,0.900000X1.500000*%
%ADD18R,1.600000X1.600000*%
%ADD19C,1.800000*%
%ADD20C,1.400000*%
%ADD21O,1.400000X1.400000*%
%ADD22C,1.700000*%
%ADD23C,0.600000*%
%ADD24C,0.250000*%
%ADD25C,0.254000*%
G04 APERTURE END LIST*
D10*
D11*
X112395000Y-76835000D03*
X114895000Y-76835000D03*
D12*
X100330000Y-60960000D03*
D13*
X100330000Y-63500000D03*
D12*
X100330000Y-72390000D03*
D13*
X100330000Y-69850000D03*
D14*
X111125000Y-49530000D03*
D15*
X113665000Y-49530000D03*
X116205000Y-49530000D03*
D16*
X113665000Y-82550000D03*
X114935000Y-82550000D03*
D17*
X112395000Y-82550000D03*
D18*
X102235000Y-41275000D03*
D11*
X104235000Y-41275000D03*
D14*
X104775000Y-83185000D03*
D19*
X107315000Y-83185000D03*
D12*
X122555000Y-92075000D03*
D13*
X122555000Y-89535000D03*
D12*
X118745000Y-92075000D03*
D13*
X118745000Y-89535000D03*
D20*
X100330000Y-83820000D03*
D21*
X100330000Y-78740000D03*
D20*
X116205000Y-71120000D03*
D21*
X116205000Y-66040000D03*
D20*
X125730000Y-55245000D03*
D21*
X125730000Y-50165000D03*
D11*
X113665000Y-53975000D03*
X111165000Y-53975000D03*
X102235000Y-36195000D03*
X104735000Y-36195000D03*
D18*
X121285000Y-44450000D03*
D11*
X123285000Y-44450000D03*
D12*
X103505000Y-92075000D03*
D13*
X103505000Y-89535000D03*
X106045000Y-92075000D03*
X106045000Y-89535000D03*
X108585000Y-92075000D03*
X108585000Y-89535000D03*
X111125000Y-92075000D03*
X111125000Y-89535000D03*
X113665000Y-92075000D03*
X113665000Y-89535000D03*
D20*
X125095000Y-73025000D03*
D21*
X125095000Y-78105000D03*
D20*
X125730000Y-64135000D03*
D21*
X125730000Y-59055000D03*
D12*
X104775000Y-52705000D03*
D13*
X102235000Y-52705000D03*
D16*
X121920000Y-82550000D03*
X120650000Y-82550000D03*
D17*
X123190000Y-82550000D03*
D16*
X119380000Y-53975000D03*
X120650000Y-53975000D03*
D17*
X118110000Y-53975000D03*
D12*
X102235000Y-46990000D03*
D13*
X104775000Y-46990000D03*
X120410000Y-77470000D03*
X120410000Y-74930000D03*
X120410000Y-72390000D03*
X120410000Y-69850000D03*
X120410000Y-67310000D03*
X120410000Y-64770000D03*
X120410000Y-62230000D03*
D22*
X120410000Y-59690000D03*
D12*
X105410000Y-59690000D03*
D13*
X105410000Y-62230000D03*
X105410000Y-64770000D03*
X105410000Y-67310000D03*
X105410000Y-69850000D03*
X105410000Y-72390000D03*
X105410000Y-74930000D03*
X105410000Y-77470000D03*
D23*
X114935000Y-73660000D03*
X113665000Y-71120000D03*
D24*
X118110000Y-53975000D02*
X118110000Y-50165000D01*
X118110000Y-50165000D02*
X122555000Y-45720000D01*
X122555000Y-45720000D02*
X122555000Y-45085000D01*
X122555000Y-45085000D02*
X123190000Y-44450000D01*
X123190000Y-44450000D02*
X123285000Y-44450000D01*
X102235000Y-52705000D02*
X102235000Y-49530000D01*
X102235000Y-49530000D02*
X103505000Y-48260000D01*
X103505000Y-48260000D02*
X103505000Y-41910000D01*
X103505000Y-41910000D02*
X104140000Y-41275000D01*
X104140000Y-41275000D02*
X104235000Y-41275000D01*
X120410000Y-77470000D02*
X120650000Y-77470000D01*
X120650000Y-77470000D02*
X120650000Y-78740000D01*
X120650000Y-78740000D02*
X123190000Y-81280000D01*
X123190000Y-81280000D02*
X123190000Y-82550000D01*
X102235000Y-52705000D02*
X103505000Y-53975000D01*
X103505000Y-53975000D02*
X111165000Y-53975000D01*
X114895000Y-76835000D02*
X114935000Y-76835000D01*
X114935000Y-76835000D02*
X113665000Y-75565000D01*
X113665000Y-75565000D02*
X111125000Y-75565000D01*
X111125000Y-75565000D02*
X109220000Y-77470000D01*
X109220000Y-77470000D02*
X105410000Y-77470000D01*
X114895000Y-76835000D02*
X114935000Y-76835000D01*
X114935000Y-76835000D02*
X114935000Y-80010000D01*
X114935000Y-80010000D02*
X113665000Y-81280000D01*
X113665000Y-81280000D02*
X113665000Y-82550000D01*
X105410000Y-77470000D02*
X104140000Y-78740000D01*
X104140000Y-78740000D02*
X100330000Y-78740000D01*
X120410000Y-77470000D02*
X120650000Y-77470000D01*
X120650000Y-77470000D02*
X120015000Y-76835000D01*
X120015000Y-76835000D02*
X114895000Y-76835000D01*
X111165000Y-53975000D02*
X111125000Y-53975000D01*
X111125000Y-53975000D02*
X112395000Y-52705000D01*
X112395000Y-52705000D02*
X114935000Y-52705000D01*
X114935000Y-52705000D02*
X116205000Y-53975000D01*
X116205000Y-53975000D02*
X118110000Y-53975000D01*
X106045000Y-89535000D02*
X103505000Y-89535000D01*
X108585000Y-89535000D02*
X106045000Y-89535000D01*
X111125000Y-89535000D02*
X108585000Y-89535000D01*
X113665000Y-89535000D02*
X111125000Y-89535000D01*
X112395000Y-76835000D02*
X112395000Y-82550000D01*
X100330000Y-83820000D02*
X100965000Y-83185000D01*
X100965000Y-83185000D02*
X104775000Y-83185000D01*
X120410000Y-72390000D02*
X120650000Y-72390000D01*
X120650000Y-72390000D02*
X121285000Y-73025000D01*
X121285000Y-73025000D02*
X125095000Y-73025000D01*
X120410000Y-59690000D02*
X120650000Y-59690000D01*
X120650000Y-59690000D02*
X119380000Y-60960000D01*
X119380000Y-60960000D02*
X118745000Y-60960000D01*
X118745000Y-60960000D02*
X114935000Y-64770000D01*
X114935000Y-64770000D02*
X114935000Y-67945000D01*
X114935000Y-67945000D02*
X113030000Y-69850000D01*
X113030000Y-69850000D02*
X113030000Y-71755000D01*
X113030000Y-71755000D02*
X114935000Y-73660000D01*
X113665000Y-71120000D02*
X117475000Y-67310000D01*
X117475000Y-67310000D02*
X117475000Y-64770000D01*
X117475000Y-64770000D02*
X120015000Y-62230000D01*
X120015000Y-62230000D02*
X120410000Y-62230000D01*
X120410000Y-62230000D02*
X120650000Y-62230000D01*
X120650000Y-62230000D02*
X122555000Y-64135000D01*
X122555000Y-64135000D02*
X125730000Y-64135000D01*
X120410000Y-69850000D02*
X120650000Y-69850000D01*
X120650000Y-69850000D02*
X119380000Y-71120000D01*
X119380000Y-71120000D02*
X116205000Y-71120000D01*
X120650000Y-53975000D02*
X121920000Y-55245000D01*
X121920000Y-55245000D02*
X125730000Y-55245000D01*
X125730000Y-59055000D02*
X122555000Y-55880000D01*
X122555000Y-55880000D02*
X120650000Y-55880000D01*
X120650000Y-55880000D02*
X120015000Y-55245000D01*
X120015000Y-55245000D02*
X119380000Y-55245000D01*
X119380000Y-55245000D02*
X119380000Y-53975000D01*
X100330000Y-60960000D02*
X104140000Y-64770000D01*
X104140000Y-64770000D02*
X105410000Y-64770000D01*
X105410000Y-67310000D02*
X103505000Y-65405000D01*
X103505000Y-65405000D02*
X102870000Y-65405000D01*
X102870000Y-65405000D02*
X100965000Y-63500000D01*
X100965000Y-63500000D02*
X100330000Y-63500000D01*
X105410000Y-72390000D02*
X100330000Y-72390000D01*
X105410000Y-69850000D02*
X100330000Y-69850000D01*
D25*
G36*
X130100000Y-97715000D02*
X96595000Y-97715000D01*
X96595000Y-95593599D01*
X97324699Y-95593599D01*
X97588281Y-96231515D01*
X98075918Y-96720004D01*
X98713373Y-96984699D01*
X99403599Y-96985301D01*
X100041515Y-96721719D01*
X100530004Y-96234082D01*
X100794699Y-95596627D01*
X100794701Y-95593599D01*
X125899699Y-95593599D01*
X126163281Y-96231515D01*
X126650918Y-96720004D01*
X127288373Y-96984699D01*
X127978599Y-96985301D01*
X128616515Y-96721719D01*
X129105004Y-96234082D01*
X129369699Y-95596627D01*
X129370301Y-94906401D01*
X129106719Y-94268485D01*
X128619082Y-93779996D01*
X127981627Y-93515301D01*
X127291401Y-93514699D01*
X126653485Y-93778281D01*
X126164996Y-94265918D01*
X125900301Y-94903373D01*
X125899699Y-95593599D01*
X100794701Y-95593599D01*
X100795301Y-94906401D01*
X100531719Y-94268485D01*
X100044082Y-93779996D01*
X99406627Y-93515301D01*
X98716401Y-93514699D01*
X98078485Y-93778281D01*
X97589996Y-94265918D01*
X97325301Y-94903373D01*
X97324699Y-95593599D01*
X96595000Y-95593599D01*
X96595000Y-91225000D01*
X102007560Y-91225000D01*
X102007560Y-92925000D01*
X102051838Y-93160317D01*
X102190910Y-93376441D01*
X102403110Y-93521431D01*
X102655000Y-93572440D01*
X104355000Y-93572440D01*
X104590317Y-93528162D01*
X104806441Y-93389090D01*
X104951431Y-93176890D01*
X104965086Y-93109459D01*
X104994946Y-93154147D01*
X105476715Y-93476054D01*
X106045000Y-93589093D01*
X106613285Y-93476054D01*
X107095054Y-93154147D01*
X107315000Y-92824974D01*
X107534946Y-93154147D01*
X108016715Y-93476054D01*
X108585000Y-93589093D01*
X109153285Y-93476054D01*
X109635054Y-93154147D01*
X109855000Y-92824974D01*
X110074946Y-93154147D01*
X110556715Y-93476054D01*
X111125000Y-93589093D01*
X111693285Y-93476054D01*
X112175054Y-93154147D01*
X112395000Y-92824974D01*
X112614946Y-93154147D01*
X113096715Y-93476054D01*
X113665000Y-93589093D01*
X114233285Y-93476054D01*
X114715054Y-93154147D01*
X115036961Y-92672378D01*
X115150000Y-92104093D01*
X115150000Y-92045907D01*
X115036961Y-91477622D01*
X114715054Y-90995853D01*
X114431899Y-90806655D01*
X114431924Y-90806645D01*
X114860183Y-90416358D01*
X115106486Y-89891892D01*
X114985819Y-89662000D01*
X113792000Y-89662000D01*
X113792000Y-89682000D01*
X113538000Y-89682000D01*
X113538000Y-89662000D01*
X111252000Y-89662000D01*
X111252000Y-89682000D01*
X110998000Y-89682000D01*
X110998000Y-89662000D01*
X108712000Y-89662000D01*
X108712000Y-89682000D01*
X108458000Y-89682000D01*
X108458000Y-89662000D01*
X106172000Y-89662000D01*
X106172000Y-89682000D01*
X105918000Y-89682000D01*
X105918000Y-89662000D01*
X103632000Y-89662000D01*
X103632000Y-89682000D01*
X103378000Y-89682000D01*
X103378000Y-89662000D01*
X102184181Y-89662000D01*
X102063514Y-89891892D01*
X102309817Y-90416358D01*
X102515504Y-90603808D01*
X102419683Y-90621838D01*
X102203559Y-90760910D01*
X102058569Y-90973110D01*
X102007560Y-91225000D01*
X96595000Y-91225000D01*
X96595000Y-89535000D01*
X117230907Y-89535000D01*
X117343946Y-90103285D01*
X117665853Y-90585054D01*
X117707452Y-90612850D01*
X117659683Y-90621838D01*
X117443559Y-90760910D01*
X117298569Y-90973110D01*
X117247560Y-91225000D01*
X117247560Y-92925000D01*
X117291838Y-93160317D01*
X117430910Y-93376441D01*
X117643110Y-93521431D01*
X117895000Y-93572440D01*
X119595000Y-93572440D01*
X119830317Y-93528162D01*
X120046441Y-93389090D01*
X120191431Y-93176890D01*
X120242440Y-92925000D01*
X120242440Y-91225000D01*
X120198162Y-90989683D01*
X120059090Y-90773559D01*
X119846890Y-90628569D01*
X119779459Y-90614914D01*
X119824147Y-90585054D01*
X120146054Y-90103285D01*
X120259093Y-89535000D01*
X121040907Y-89535000D01*
X121153946Y-90103285D01*
X121475853Y-90585054D01*
X121517452Y-90612850D01*
X121469683Y-90621838D01*
X121253559Y-90760910D01*
X121108569Y-90973110D01*
X121057560Y-91225000D01*
X121057560Y-92925000D01*
X121101838Y-93160317D01*
X121240910Y-93376441D01*
X121453110Y-93521431D01*
X121705000Y-93572440D01*
X123405000Y-93572440D01*
X123640317Y-93528162D01*
X123856441Y-93389090D01*
X124001431Y-93176890D01*
X124052440Y-92925000D01*
X124052440Y-91225000D01*
X124008162Y-90989683D01*
X123869090Y-90773559D01*
X123656890Y-90628569D01*
X123589459Y-90614914D01*
X123634147Y-90585054D01*
X123956054Y-90103285D01*
X124069093Y-89535000D01*
X123956054Y-88966715D01*
X123634147Y-88484946D01*
X123152378Y-88163039D01*
X122584093Y-88050000D01*
X122525907Y-88050000D01*
X121957622Y-88163039D01*
X121475853Y-88484946D01*
X121153946Y-88966715D01*
X121040907Y-89535000D01*
X120259093Y-89535000D01*
X120146054Y-88966715D01*
X119824147Y-88484946D01*
X119342378Y-88163039D01*
X118774093Y-88050000D01*
X118715907Y-88050000D01*
X118147622Y-88163039D01*
X117665853Y-88484946D01*
X117343946Y-88966715D01*
X117230907Y-89535000D01*
X96595000Y-89535000D01*
X96595000Y-89178108D01*
X102063514Y-89178108D01*
X102184181Y-89408000D01*
X103378000Y-89408000D01*
X103378000Y-88214845D01*
X103632000Y-88214845D01*
X103632000Y-89408000D01*
X105918000Y-89408000D01*
X105918000Y-88214845D01*
X106172000Y-88214845D01*
X106172000Y-89408000D01*
X108458000Y-89408000D01*
X108458000Y-88214845D01*
X108712000Y-88214845D01*
X108712000Y-89408000D01*
X110998000Y-89408000D01*
X110998000Y-88214845D01*
X111252000Y-88214845D01*
X111252000Y-89408000D01*
X113538000Y-89408000D01*
X113538000Y-88214845D01*
X113792000Y-88214845D01*
X113792000Y-89408000D01*
X114985819Y-89408000D01*
X115106486Y-89178108D01*
X114860183Y-88653642D01*
X114431924Y-88263355D01*
X114021890Y-88093524D01*
X113792000Y-88214845D01*
X113538000Y-88214845D01*
X113308110Y-88093524D01*
X112898076Y-88263355D01*
X112469817Y-88653642D01*
X112395000Y-88812954D01*
X112320183Y-88653642D01*
X111891924Y-88263355D01*
X111481890Y-88093524D01*
X111252000Y-88214845D01*
X110998000Y-88214845D01*
X110768110Y-88093524D01*
X110358076Y-88263355D01*
X109929817Y-88653642D01*
X109855000Y-88812954D01*
X109780183Y-88653642D01*
X109351924Y-88263355D01*
X108941890Y-88093524D01*
X108712000Y-88214845D01*
X108458000Y-88214845D01*
X108228110Y-88093524D01*
X107818076Y-88263355D01*
X107389817Y-88653642D01*
X107315000Y-88812954D01*
X107240183Y-88653642D01*
X106811924Y-88263355D01*
X106401890Y-88093524D01*
X106172000Y-88214845D01*
X105918000Y-88214845D01*
X105688110Y-88093524D01*
X105278076Y-88263355D01*
X104849817Y-88653642D01*
X104775000Y-88812954D01*
X104700183Y-88653642D01*
X104271924Y-88263355D01*
X103861890Y-88093524D01*
X103632000Y-88214845D01*
X103378000Y-88214845D01*
X103148110Y-88093524D01*
X102738076Y-88263355D01*
X102309817Y-88653642D01*
X102063514Y-89178108D01*
X96595000Y-89178108D01*
X96595000Y-84084383D01*
X98994769Y-84084383D01*
X99197582Y-84575229D01*
X99572796Y-84951098D01*
X100063287Y-85154768D01*
X100594383Y-85155231D01*
X101085229Y-84952418D01*
X101461098Y-84577204D01*
X101664768Y-84086713D01*
X101664892Y-83945000D01*
X103227560Y-83945000D01*
X103227560Y-84085000D01*
X103271838Y-84320317D01*
X103410910Y-84536441D01*
X103623110Y-84681431D01*
X103875000Y-84732440D01*
X105675000Y-84732440D01*
X105910317Y-84688162D01*
X106126441Y-84549090D01*
X106271431Y-84336890D01*
X106275567Y-84316466D01*
X106444357Y-84485551D01*
X107008330Y-84719733D01*
X107618991Y-84720265D01*
X108183371Y-84487068D01*
X108615551Y-84055643D01*
X108849733Y-83491670D01*
X108850265Y-82881009D01*
X108617068Y-82316629D01*
X108185643Y-81884449D01*
X107621670Y-81650267D01*
X107011009Y-81649735D01*
X106446629Y-81882932D01*
X106278387Y-82050880D01*
X106278162Y-82049683D01*
X106139090Y-81833559D01*
X105926890Y-81688569D01*
X105675000Y-81637560D01*
X103875000Y-81637560D01*
X103639683Y-81681838D01*
X103423559Y-81820910D01*
X103278569Y-82033110D01*
X103227560Y-82285000D01*
X103227560Y-82425000D01*
X100965000Y-82425000D01*
X100674161Y-82482852D01*
X100642281Y-82504154D01*
X100596713Y-82485232D01*
X100065617Y-82484769D01*
X99574771Y-82687582D01*
X99198902Y-83062796D01*
X98995232Y-83553287D01*
X98994769Y-84084383D01*
X96595000Y-84084383D01*
X96595000Y-79073331D01*
X99037273Y-79073331D01*
X99263236Y-79542663D01*
X99651604Y-79889797D01*
X99996671Y-80032716D01*
X100203000Y-79909374D01*
X100203000Y-78867000D01*
X100457000Y-78867000D01*
X100457000Y-79909374D01*
X100663329Y-80032716D01*
X101008396Y-79889797D01*
X101396764Y-79542663D01*
X101622727Y-79073331D01*
X101500206Y-78867000D01*
X100457000Y-78867000D01*
X100203000Y-78867000D01*
X99159794Y-78867000D01*
X99037273Y-79073331D01*
X96595000Y-79073331D01*
X96595000Y-78406669D01*
X99037273Y-78406669D01*
X99159794Y-78613000D01*
X100203000Y-78613000D01*
X100203000Y-77570626D01*
X100457000Y-77570626D01*
X100457000Y-78613000D01*
X101500206Y-78613000D01*
X101622727Y-78406669D01*
X101396764Y-77937337D01*
X101273198Y-77826890D01*
X103968524Y-77826890D01*
X104138355Y-78236924D01*
X104528642Y-78665183D01*
X105053108Y-78911486D01*
X105283000Y-78790819D01*
X105283000Y-77597000D01*
X105537000Y-77597000D01*
X105537000Y-78790819D01*
X105766892Y-78911486D01*
X106291358Y-78665183D01*
X106681645Y-78236924D01*
X106851476Y-77826890D01*
X106730155Y-77597000D01*
X105537000Y-77597000D01*
X105283000Y-77597000D01*
X104089845Y-77597000D01*
X103968524Y-77826890D01*
X101273198Y-77826890D01*
X101008396Y-77590203D01*
X100663329Y-77447284D01*
X100457000Y-77570626D01*
X100203000Y-77570626D01*
X99996671Y-77447284D01*
X99651604Y-77590203D01*
X99263236Y-77937337D01*
X99037273Y-78406669D01*
X96595000Y-78406669D01*
X96595000Y-63500000D01*
X98815907Y-63500000D01*
X98928946Y-64068285D01*
X99250853Y-64550054D01*
X99732622Y-64871961D01*
X100300907Y-64985000D01*
X100359093Y-64985000D01*
X100927378Y-64871961D01*
X101128065Y-64737867D01*
X102332599Y-65942401D01*
X102579161Y-66107148D01*
X102870000Y-66165000D01*
X103190198Y-66165000D01*
X103968790Y-66943592D01*
X103895907Y-67310000D01*
X104008946Y-67878285D01*
X104330853Y-68360054D01*
X104660026Y-68580000D01*
X104330853Y-68799946D01*
X104137046Y-69090000D01*
X101602954Y-69090000D01*
X101409147Y-68799946D01*
X100927378Y-68478039D01*
X100359093Y-68365000D01*
X100300907Y-68365000D01*
X99732622Y-68478039D01*
X99250853Y-68799946D01*
X98928946Y-69281715D01*
X98815907Y-69850000D01*
X98928946Y-70418285D01*
X99250853Y-70900054D01*
X99292452Y-70927850D01*
X99244683Y-70936838D01*
X99028559Y-71075910D01*
X98883569Y-71288110D01*
X98832560Y-71540000D01*
X98832560Y-73240000D01*
X98876838Y-73475317D01*
X99015910Y-73691441D01*
X99228110Y-73836431D01*
X99480000Y-73887440D01*
X101180000Y-73887440D01*
X101415317Y-73843162D01*
X101631441Y-73704090D01*
X101776431Y-73491890D01*
X101827440Y-73240000D01*
X101827440Y-73150000D01*
X104137046Y-73150000D01*
X104330853Y-73440054D01*
X104660026Y-73660000D01*
X104330853Y-73879946D01*
X104008946Y-74361715D01*
X103895907Y-74930000D01*
X104008946Y-75498285D01*
X104330853Y-75980054D01*
X104671553Y-76207702D01*
X104528642Y-76274817D01*
X104138355Y-76703076D01*
X103968524Y-77113110D01*
X104089845Y-77343000D01*
X105283000Y-77343000D01*
X105283000Y-77323000D01*
X105537000Y-77323000D01*
X105537000Y-77343000D01*
X106730155Y-77343000D01*
X106848268Y-77119187D01*
X110959752Y-77119187D01*
X111177757Y-77646800D01*
X111581077Y-78050824D01*
X111635000Y-78073215D01*
X111635000Y-81244895D01*
X111493559Y-81335910D01*
X111348569Y-81548110D01*
X111297560Y-81800000D01*
X111297560Y-83300000D01*
X111341838Y-83535317D01*
X111480910Y-83751441D01*
X111693110Y-83896431D01*
X111945000Y-83947440D01*
X112845000Y-83947440D01*
X113080317Y-83903162D01*
X113213529Y-83817442D01*
X113370999Y-83894408D01*
X113538000Y-83767502D01*
X113538000Y-82677000D01*
X113518000Y-82677000D01*
X113518000Y-82423000D01*
X113538000Y-82423000D01*
X113538000Y-81332498D01*
X113792000Y-81332498D01*
X113792000Y-82423000D01*
X113812000Y-82423000D01*
X113812000Y-82677000D01*
X113792000Y-82677000D01*
X113792000Y-83767502D01*
X113959001Y-83894408D01*
X114295726Y-83729830D01*
X114519788Y-83879543D01*
X114935000Y-83962134D01*
X115350212Y-83879543D01*
X115702211Y-83644345D01*
X115937409Y-83292346D01*
X116020000Y-82877134D01*
X116020000Y-82222866D01*
X119565000Y-82222866D01*
X119565000Y-82877134D01*
X119647591Y-83292346D01*
X119882789Y-83644345D01*
X120234788Y-83879543D01*
X120650000Y-83962134D01*
X121065212Y-83879543D01*
X121285000Y-83732685D01*
X121504788Y-83879543D01*
X121920000Y-83962134D01*
X122335212Y-83879543D01*
X122390546Y-83842570D01*
X122613691Y-83935000D01*
X122904250Y-83935000D01*
X123063000Y-83776250D01*
X123063000Y-82677000D01*
X123317000Y-82677000D01*
X123317000Y-83776250D01*
X123475750Y-83935000D01*
X123766309Y-83935000D01*
X123999698Y-83838327D01*
X124178327Y-83659699D01*
X124275000Y-83426310D01*
X124275000Y-82835750D01*
X124116250Y-82677000D01*
X123317000Y-82677000D01*
X123063000Y-82677000D01*
X123043000Y-82677000D01*
X123043000Y-82423000D01*
X123063000Y-82423000D01*
X123063000Y-81323750D01*
X123317000Y-81323750D01*
X123317000Y-82423000D01*
X124116250Y-82423000D01*
X124275000Y-82264250D01*
X124275000Y-81673690D01*
X124178327Y-81440301D01*
X123999698Y-81261673D01*
X123766309Y-81165000D01*
X123475750Y-81165000D01*
X123317000Y-81323750D01*
X123063000Y-81323750D01*
X122904250Y-81165000D01*
X122613691Y-81165000D01*
X122390546Y-81257430D01*
X122335212Y-81220457D01*
X121920000Y-81137866D01*
X121504788Y-81220457D01*
X121285000Y-81367315D01*
X121065212Y-81220457D01*
X120650000Y-81137866D01*
X120234788Y-81220457D01*
X119882789Y-81455655D01*
X119647591Y-81807654D01*
X119565000Y-82222866D01*
X116020000Y-82222866D01*
X115937409Y-81807654D01*
X115702211Y-81455655D01*
X115350212Y-81220457D01*
X114935000Y-81137866D01*
X114519788Y-81220457D01*
X114295726Y-81370170D01*
X113959001Y-81205592D01*
X113792000Y-81332498D01*
X113538000Y-81332498D01*
X113370999Y-81205592D01*
X113212925Y-81282853D01*
X113155000Y-81243274D01*
X113155000Y-78073646D01*
X113206800Y-78052243D01*
X113416663Y-77842745D01*
X114066861Y-77842745D01*
X114140995Y-78088864D01*
X114678223Y-78281965D01*
X115248454Y-78254778D01*
X115649005Y-78088864D01*
X115723139Y-77842745D01*
X115707285Y-77826890D01*
X118968524Y-77826890D01*
X119138355Y-78236924D01*
X119528642Y-78665183D01*
X120053108Y-78911486D01*
X120283000Y-78790819D01*
X120283000Y-77597000D01*
X120537000Y-77597000D01*
X120537000Y-78790819D01*
X120766892Y-78911486D01*
X121291358Y-78665183D01*
X121681645Y-78236924D01*
X121747118Y-78078846D01*
X123760000Y-78078846D01*
X123760000Y-78131154D01*
X123861621Y-78642036D01*
X124151012Y-79075142D01*
X124584118Y-79364533D01*
X125095000Y-79466154D01*
X125605882Y-79364533D01*
X126038988Y-79075142D01*
X126328379Y-78642036D01*
X126430000Y-78131154D01*
X126430000Y-78078846D01*
X126328379Y-77567964D01*
X126038988Y-77134858D01*
X125605882Y-76845467D01*
X125095000Y-76743846D01*
X124584118Y-76845467D01*
X124151012Y-77134858D01*
X123861621Y-77567964D01*
X123760000Y-78078846D01*
X121747118Y-78078846D01*
X121851476Y-77826890D01*
X121730155Y-77597000D01*
X120537000Y-77597000D01*
X120283000Y-77597000D01*
X119089845Y-77597000D01*
X118968524Y-77826890D01*
X115707285Y-77826890D01*
X114895000Y-77014605D01*
X114066861Y-77842745D01*
X113416663Y-77842745D01*
X113610824Y-77648923D01*
X113638423Y-77582456D01*
X113641136Y-77589005D01*
X113887255Y-77663139D01*
X114715395Y-76835000D01*
X115074605Y-76835000D01*
X115902745Y-77663139D01*
X116148864Y-77589005D01*
X116341965Y-77051777D01*
X116314778Y-76481546D01*
X116148864Y-76080995D01*
X115902745Y-76006861D01*
X115074605Y-76835000D01*
X114715395Y-76835000D01*
X113887255Y-76006861D01*
X113641136Y-76080995D01*
X113638804Y-76087483D01*
X113612243Y-76023200D01*
X113416640Y-75827255D01*
X114066861Y-75827255D01*
X114895000Y-76655395D01*
X115723139Y-75827255D01*
X115649005Y-75581136D01*
X115111777Y-75388035D01*
X114541546Y-75415222D01*
X114140995Y-75581136D01*
X114066861Y-75827255D01*
X113416640Y-75827255D01*
X113208923Y-75619176D01*
X112681691Y-75400250D01*
X112110813Y-75399752D01*
X111583200Y-75617757D01*
X111179176Y-76021077D01*
X110960250Y-76548309D01*
X110959752Y-77119187D01*
X106848268Y-77119187D01*
X106851476Y-77113110D01*
X106681645Y-76703076D01*
X106291358Y-76274817D01*
X106148447Y-76207702D01*
X106489147Y-75980054D01*
X106811054Y-75498285D01*
X106924093Y-74930000D01*
X106811054Y-74361715D01*
X106489147Y-73879946D01*
X106159974Y-73660000D01*
X106489147Y-73440054D01*
X106811054Y-72958285D01*
X106924093Y-72390000D01*
X106811054Y-71821715D01*
X106489147Y-71339946D01*
X106159974Y-71120000D01*
X106489147Y-70900054D01*
X106811054Y-70418285D01*
X106924093Y-69850000D01*
X112270000Y-69850000D01*
X112270000Y-71755000D01*
X112327852Y-72045839D01*
X112492599Y-72292401D01*
X113999878Y-73799680D01*
X113999838Y-73845167D01*
X114141883Y-74188943D01*
X114404673Y-74452192D01*
X114748201Y-74594838D01*
X115120167Y-74595162D01*
X115463943Y-74453117D01*
X115727192Y-74190327D01*
X115869838Y-73846799D01*
X115870162Y-73474833D01*
X115728117Y-73131057D01*
X115465327Y-72867808D01*
X115121799Y-72725162D01*
X115074923Y-72725121D01*
X114228461Y-71878659D01*
X114457192Y-71650327D01*
X114599838Y-71306799D01*
X114599879Y-71259923D01*
X114870113Y-70989689D01*
X114869769Y-71384383D01*
X115072582Y-71875229D01*
X115447796Y-72251098D01*
X115938287Y-72454768D01*
X116469383Y-72455231D01*
X116960229Y-72252418D01*
X117333297Y-71880000D01*
X118997352Y-71880000D01*
X118895907Y-72390000D01*
X119008946Y-72958285D01*
X119330853Y-73440054D01*
X119660026Y-73660000D01*
X119330853Y-73879946D01*
X119008946Y-74361715D01*
X118895907Y-74930000D01*
X119008946Y-75498285D01*
X119330853Y-75980054D01*
X119671553Y-76207702D01*
X119528642Y-76274817D01*
X119138355Y-76703076D01*
X118968524Y-77113110D01*
X119089845Y-77343000D01*
X120283000Y-77343000D01*
X120283000Y-77323000D01*
X120537000Y-77323000D01*
X120537000Y-77343000D01*
X121730155Y-77343000D01*
X121851476Y-77113110D01*
X121681645Y-76703076D01*
X121291358Y-76274817D01*
X121148447Y-76207702D01*
X121489147Y-75980054D01*
X121811054Y-75498285D01*
X121924093Y-74930000D01*
X121811054Y-74361715D01*
X121489147Y-73879946D01*
X121347050Y-73785000D01*
X123967345Y-73785000D01*
X124337796Y-74156098D01*
X124828287Y-74359768D01*
X125359383Y-74360231D01*
X125850229Y-74157418D01*
X126226098Y-73782204D01*
X126429768Y-73291713D01*
X126430231Y-72760617D01*
X126227418Y-72269771D01*
X125852204Y-71893902D01*
X125361713Y-71690232D01*
X124830617Y-71689769D01*
X124339771Y-71892582D01*
X123966703Y-72265000D01*
X121899229Y-72265000D01*
X121811054Y-71821715D01*
X121489147Y-71339946D01*
X121159974Y-71120000D01*
X121489147Y-70900054D01*
X121811054Y-70418285D01*
X121924093Y-69850000D01*
X121811054Y-69281715D01*
X121489147Y-68799946D01*
X121159974Y-68580000D01*
X121489147Y-68360054D01*
X121811054Y-67878285D01*
X121924093Y-67310000D01*
X121811054Y-66741715D01*
X121489147Y-66259946D01*
X121159974Y-66040000D01*
X121489147Y-65820054D01*
X121811054Y-65338285D01*
X121924093Y-64770000D01*
X121876641Y-64531443D01*
X122017599Y-64672401D01*
X122264161Y-64837148D01*
X122555000Y-64895000D01*
X124602345Y-64895000D01*
X124972796Y-65266098D01*
X125463287Y-65469768D01*
X125994383Y-65470231D01*
X126485229Y-65267418D01*
X126861098Y-64892204D01*
X127064768Y-64401713D01*
X127065231Y-63870617D01*
X126862418Y-63379771D01*
X126487204Y-63003902D01*
X125996713Y-62800232D01*
X125465617Y-62799769D01*
X124974771Y-63002582D01*
X124601703Y-63375000D01*
X122869802Y-63375000D01*
X121891028Y-62396226D01*
X121924093Y-62230000D01*
X121811054Y-61661715D01*
X121489147Y-61179946D01*
X121184840Y-60976615D01*
X121250086Y-60949656D01*
X121668188Y-60532283D01*
X121894742Y-59986681D01*
X121895257Y-59395911D01*
X121669656Y-58849914D01*
X121252283Y-58431812D01*
X120706681Y-58205258D01*
X120115911Y-58204743D01*
X119569914Y-58430344D01*
X119151812Y-58847717D01*
X118925258Y-59393319D01*
X118924743Y-59984089D01*
X119013955Y-60200000D01*
X118745000Y-60200000D01*
X118454161Y-60257852D01*
X118207599Y-60422599D01*
X114397599Y-64232599D01*
X114232852Y-64479161D01*
X114175000Y-64770000D01*
X114175000Y-67630198D01*
X112492599Y-69312599D01*
X112327852Y-69559161D01*
X112270000Y-69850000D01*
X106924093Y-69850000D01*
X106811054Y-69281715D01*
X106489147Y-68799946D01*
X106159974Y-68580000D01*
X106489147Y-68360054D01*
X106811054Y-67878285D01*
X106924093Y-67310000D01*
X106811054Y-66741715D01*
X106489147Y-66259946D01*
X106159974Y-66040000D01*
X106489147Y-65820054D01*
X106811054Y-65338285D01*
X106924093Y-64770000D01*
X106811054Y-64201715D01*
X106489147Y-63719946D01*
X106159974Y-63500000D01*
X106489147Y-63280054D01*
X106811054Y-62798285D01*
X106924093Y-62230000D01*
X106811054Y-61661715D01*
X106489147Y-61179946D01*
X106445223Y-61150597D01*
X106619698Y-61078327D01*
X106798327Y-60899699D01*
X106895000Y-60666310D01*
X106895000Y-59975750D01*
X106736250Y-59817000D01*
X105537000Y-59817000D01*
X105537000Y-59837000D01*
X105283000Y-59837000D01*
X105283000Y-59817000D01*
X104083750Y-59817000D01*
X103925000Y-59975750D01*
X103925000Y-60666310D01*
X104021673Y-60899699D01*
X104200302Y-61078327D01*
X104374777Y-61150597D01*
X104330853Y-61179946D01*
X104008946Y-61661715D01*
X103895907Y-62230000D01*
X104008946Y-62798285D01*
X104330853Y-63280054D01*
X104660026Y-63500000D01*
X104330853Y-63719946D01*
X104264321Y-63819519D01*
X101827440Y-61382638D01*
X101827440Y-60110000D01*
X101783162Y-59874683D01*
X101644090Y-59658559D01*
X101431890Y-59513569D01*
X101180000Y-59462560D01*
X99480000Y-59462560D01*
X99244683Y-59506838D01*
X99028559Y-59645910D01*
X98883569Y-59858110D01*
X98832560Y-60110000D01*
X98832560Y-61810000D01*
X98876838Y-62045317D01*
X99015910Y-62261441D01*
X99228110Y-62406431D01*
X99295541Y-62420086D01*
X99250853Y-62449946D01*
X98928946Y-62931715D01*
X98815907Y-63500000D01*
X96595000Y-63500000D01*
X96595000Y-58713690D01*
X103925000Y-58713690D01*
X103925000Y-59404250D01*
X104083750Y-59563000D01*
X105283000Y-59563000D01*
X105283000Y-58363750D01*
X105537000Y-58363750D01*
X105537000Y-59563000D01*
X106736250Y-59563000D01*
X106895000Y-59404250D01*
X106895000Y-58713690D01*
X106798327Y-58480301D01*
X106619698Y-58301673D01*
X106386309Y-58205000D01*
X105695750Y-58205000D01*
X105537000Y-58363750D01*
X105283000Y-58363750D01*
X105124250Y-58205000D01*
X104433691Y-58205000D01*
X104200302Y-58301673D01*
X104021673Y-58480301D01*
X103925000Y-58713690D01*
X96595000Y-58713690D01*
X96595000Y-54982745D01*
X110336861Y-54982745D01*
X110410995Y-55228864D01*
X110948223Y-55421965D01*
X111518454Y-55394778D01*
X111919005Y-55228864D01*
X111993139Y-54982745D01*
X111165000Y-54154605D01*
X110336861Y-54982745D01*
X96595000Y-54982745D01*
X96595000Y-53061892D01*
X100793514Y-53061892D01*
X101039817Y-53586358D01*
X101468076Y-53976645D01*
X101878110Y-54146476D01*
X102108000Y-54025155D01*
X102108000Y-52832000D01*
X100914181Y-52832000D01*
X100793514Y-53061892D01*
X96595000Y-53061892D01*
X96595000Y-52348108D01*
X100793514Y-52348108D01*
X100914181Y-52578000D01*
X102108000Y-52578000D01*
X102108000Y-51384845D01*
X102362000Y-51384845D01*
X102362000Y-52578000D01*
X102382000Y-52578000D01*
X102382000Y-52832000D01*
X102362000Y-52832000D01*
X102362000Y-54025155D01*
X102591890Y-54146476D01*
X103001924Y-53976645D01*
X103304937Y-53700499D01*
X103321838Y-53790317D01*
X103460910Y-54006441D01*
X103673110Y-54151431D01*
X103925000Y-54202440D01*
X105625000Y-54202440D01*
X105860317Y-54158162D01*
X106076441Y-54019090D01*
X106221431Y-53806890D01*
X106231286Y-53758223D01*
X109718035Y-53758223D01*
X109745222Y-54328454D01*
X109911136Y-54729005D01*
X110157255Y-54803139D01*
X110985395Y-53975000D01*
X111344605Y-53975000D01*
X112172745Y-54803139D01*
X112418864Y-54729005D01*
X112421196Y-54722517D01*
X112447757Y-54786800D01*
X112851077Y-55190824D01*
X113378309Y-55409750D01*
X113949187Y-55410248D01*
X114476800Y-55192243D01*
X114880824Y-54788923D01*
X115099750Y-54261691D01*
X115099750Y-54260750D01*
X117025000Y-54260750D01*
X117025000Y-54851310D01*
X117121673Y-55084699D01*
X117300302Y-55263327D01*
X117533691Y-55360000D01*
X117824250Y-55360000D01*
X117983000Y-55201250D01*
X117983000Y-54102000D01*
X117183750Y-54102000D01*
X117025000Y-54260750D01*
X115099750Y-54260750D01*
X115100248Y-53690813D01*
X114882243Y-53163200D01*
X114817846Y-53098690D01*
X117025000Y-53098690D01*
X117025000Y-53689250D01*
X117183750Y-53848000D01*
X117983000Y-53848000D01*
X117983000Y-52748750D01*
X118237000Y-52748750D01*
X118237000Y-53848000D01*
X118257000Y-53848000D01*
X118257000Y-54102000D01*
X118237000Y-54102000D01*
X118237000Y-55201250D01*
X118395750Y-55360000D01*
X118642875Y-55360000D01*
X118677852Y-55535839D01*
X118842599Y-55782401D01*
X119089161Y-55947148D01*
X119380000Y-56005000D01*
X119700198Y-56005000D01*
X120112599Y-56417401D01*
X120359161Y-56582148D01*
X120650000Y-56640000D01*
X122240198Y-56640000D01*
X124433830Y-58833632D01*
X124395000Y-59028846D01*
X124395000Y-59081154D01*
X124496621Y-59592036D01*
X124786012Y-60025142D01*
X125219118Y-60314533D01*
X125730000Y-60416154D01*
X126240882Y-60314533D01*
X126673988Y-60025142D01*
X126963379Y-59592036D01*
X127065000Y-59081154D01*
X127065000Y-59028846D01*
X126963379Y-58517964D01*
X126673988Y-58084858D01*
X126240882Y-57795467D01*
X125730000Y-57693846D01*
X125491157Y-57741355D01*
X123754802Y-56005000D01*
X124602345Y-56005000D01*
X124972796Y-56376098D01*
X125463287Y-56579768D01*
X125994383Y-56580231D01*
X126485229Y-56377418D01*
X126861098Y-56002204D01*
X127064768Y-55511713D01*
X127065231Y-54980617D01*
X126862418Y-54489771D01*
X126487204Y-54113902D01*
X125996713Y-53910232D01*
X125465617Y-53909769D01*
X124974771Y-54112582D01*
X124601703Y-54485000D01*
X122234802Y-54485000D01*
X121735000Y-53985198D01*
X121735000Y-53647866D01*
X121652409Y-53232654D01*
X121417211Y-52880655D01*
X121065212Y-52645457D01*
X120650000Y-52562866D01*
X120234788Y-52645457D01*
X120015000Y-52792315D01*
X119795212Y-52645457D01*
X119380000Y-52562866D01*
X118964788Y-52645457D01*
X118909454Y-52682430D01*
X118686309Y-52590000D01*
X118395750Y-52590000D01*
X118237000Y-52748750D01*
X117983000Y-52748750D01*
X117824250Y-52590000D01*
X117533691Y-52590000D01*
X117300302Y-52686673D01*
X117121673Y-52865301D01*
X117025000Y-53098690D01*
X114817846Y-53098690D01*
X114478923Y-52759176D01*
X113951691Y-52540250D01*
X113380813Y-52539752D01*
X112853200Y-52757757D01*
X112449176Y-53161077D01*
X112421577Y-53227544D01*
X112418864Y-53220995D01*
X112172745Y-53146861D01*
X111344605Y-53975000D01*
X110985395Y-53975000D01*
X110157255Y-53146861D01*
X109911136Y-53220995D01*
X109718035Y-53758223D01*
X106231286Y-53758223D01*
X106272440Y-53555000D01*
X106272440Y-52967255D01*
X110336861Y-52967255D01*
X111165000Y-53795395D01*
X111993139Y-52967255D01*
X111919005Y-52721136D01*
X111381777Y-52528035D01*
X110811546Y-52555222D01*
X110410995Y-52721136D01*
X110336861Y-52967255D01*
X106272440Y-52967255D01*
X106272440Y-51855000D01*
X106228162Y-51619683D01*
X106089090Y-51403559D01*
X105876890Y-51258569D01*
X105625000Y-51207560D01*
X103925000Y-51207560D01*
X103689683Y-51251838D01*
X103473559Y-51390910D01*
X103328569Y-51603110D01*
X103306699Y-51711107D01*
X103001924Y-51433355D01*
X102591890Y-51263524D01*
X102362000Y-51384845D01*
X102108000Y-51384845D01*
X101878110Y-51263524D01*
X101468076Y-51433355D01*
X101039817Y-51823642D01*
X100793514Y-52348108D01*
X96595000Y-52348108D01*
X96595000Y-48630000D01*
X109577560Y-48630000D01*
X109577560Y-50430000D01*
X109621838Y-50665317D01*
X109760910Y-50881441D01*
X109973110Y-51026431D01*
X110225000Y-51077440D01*
X112025000Y-51077440D01*
X112260317Y-51033162D01*
X112476441Y-50894090D01*
X112621431Y-50681890D01*
X112631766Y-50630854D01*
X112757424Y-50767966D01*
X113300258Y-51021046D01*
X113538000Y-50900997D01*
X113538000Y-49657000D01*
X113518000Y-49657000D01*
X113518000Y-49403000D01*
X113538000Y-49403000D01*
X113538000Y-48159003D01*
X113792000Y-48159003D01*
X113792000Y-49403000D01*
X113812000Y-49403000D01*
X113812000Y-49657000D01*
X113792000Y-49657000D01*
X113792000Y-50900997D01*
X114029742Y-51021046D01*
X114572576Y-50767966D01*
X114930499Y-50377418D01*
X115089519Y-50615409D01*
X115587509Y-50948155D01*
X116174928Y-51065000D01*
X116235072Y-51065000D01*
X116822491Y-50948155D01*
X117320481Y-50615409D01*
X117638909Y-50138846D01*
X124395000Y-50138846D01*
X124395000Y-50191154D01*
X124496621Y-50702036D01*
X124786012Y-51135142D01*
X125219118Y-51424533D01*
X125730000Y-51526154D01*
X126240882Y-51424533D01*
X126673988Y-51135142D01*
X126963379Y-50702036D01*
X127065000Y-50191154D01*
X127065000Y-50138846D01*
X126963379Y-49627964D01*
X126673988Y-49194858D01*
X126240882Y-48905467D01*
X125730000Y-48803846D01*
X125219118Y-48905467D01*
X124786012Y-49194858D01*
X124496621Y-49627964D01*
X124395000Y-50138846D01*
X117638909Y-50138846D01*
X117653227Y-50117419D01*
X117770072Y-49530000D01*
X117653227Y-48942581D01*
X117320481Y-48444591D01*
X116822491Y-48111845D01*
X116235072Y-47995000D01*
X116174928Y-47995000D01*
X115587509Y-48111845D01*
X115089519Y-48444591D01*
X114930499Y-48682582D01*
X114572576Y-48292034D01*
X114029742Y-48038954D01*
X113792000Y-48159003D01*
X113538000Y-48159003D01*
X113300258Y-48038954D01*
X112757424Y-48292034D01*
X112634156Y-48426538D01*
X112628162Y-48394683D01*
X112489090Y-48178559D01*
X112276890Y-48033569D01*
X112025000Y-47982560D01*
X110225000Y-47982560D01*
X109989683Y-48026838D01*
X109773559Y-48165910D01*
X109628569Y-48378110D01*
X109577560Y-48630000D01*
X96595000Y-48630000D01*
X96595000Y-46140000D01*
X100737560Y-46140000D01*
X100737560Y-47840000D01*
X100781838Y-48075317D01*
X100920910Y-48291441D01*
X101133110Y-48436431D01*
X101385000Y-48487440D01*
X103085000Y-48487440D01*
X103320317Y-48443162D01*
X103536441Y-48304090D01*
X103681431Y-48091890D01*
X103695086Y-48024459D01*
X103724946Y-48069147D01*
X104206715Y-48391054D01*
X104775000Y-48504093D01*
X105343285Y-48391054D01*
X105825054Y-48069147D01*
X106146961Y-47587378D01*
X106260000Y-47019093D01*
X106260000Y-46960907D01*
X106146961Y-46392622D01*
X105825054Y-45910853D01*
X105343285Y-45588946D01*
X104775000Y-45475907D01*
X104206715Y-45588946D01*
X103724946Y-45910853D01*
X103697150Y-45952452D01*
X103688162Y-45904683D01*
X103549090Y-45688559D01*
X103336890Y-45543569D01*
X103085000Y-45492560D01*
X101385000Y-45492560D01*
X101149683Y-45536838D01*
X100933559Y-45675910D01*
X100788569Y-45888110D01*
X100737560Y-46140000D01*
X96595000Y-46140000D01*
X96595000Y-43650000D01*
X119837560Y-43650000D01*
X119837560Y-45250000D01*
X119881838Y-45485317D01*
X120020910Y-45701441D01*
X120233110Y-45846431D01*
X120485000Y-45897440D01*
X122085000Y-45897440D01*
X122320317Y-45853162D01*
X122536441Y-45714090D01*
X122540977Y-45707452D01*
X123068223Y-45896965D01*
X123638454Y-45869778D01*
X124039005Y-45703864D01*
X124113139Y-45457745D01*
X123285000Y-44629605D01*
X123270858Y-44643748D01*
X123091253Y-44464143D01*
X123105395Y-44450000D01*
X123464605Y-44450000D01*
X124292745Y-45278139D01*
X124538864Y-45204005D01*
X124731965Y-44666777D01*
X124704778Y-44096546D01*
X124538864Y-43695995D01*
X124292745Y-43621861D01*
X123464605Y-44450000D01*
X123105395Y-44450000D01*
X123091253Y-44435858D01*
X123270858Y-44256252D01*
X123285000Y-44270395D01*
X124113139Y-43442255D01*
X124039005Y-43196136D01*
X123501777Y-43003035D01*
X122931546Y-43030222D01*
X122540053Y-43192384D01*
X122336890Y-43053569D01*
X122085000Y-43002560D01*
X120485000Y-43002560D01*
X120249683Y-43046838D01*
X120033559Y-43185910D01*
X119888569Y-43398110D01*
X119837560Y-43650000D01*
X96595000Y-43650000D01*
X96595000Y-40475000D01*
X100787560Y-40475000D01*
X100787560Y-42075000D01*
X100831838Y-42310317D01*
X100970910Y-42526441D01*
X101183110Y-42671431D01*
X101435000Y-42722440D01*
X103035000Y-42722440D01*
X103270317Y-42678162D01*
X103486441Y-42539090D01*
X103490977Y-42532452D01*
X104018223Y-42721965D01*
X104588454Y-42694778D01*
X104989005Y-42528864D01*
X105063139Y-42282745D01*
X104235000Y-41454605D01*
X104220858Y-41468748D01*
X104041253Y-41289143D01*
X104055395Y-41275000D01*
X104414605Y-41275000D01*
X105242745Y-42103139D01*
X105488864Y-42029005D01*
X105681965Y-41491777D01*
X105654778Y-40921546D01*
X105488864Y-40520995D01*
X105242745Y-40446861D01*
X104414605Y-41275000D01*
X104055395Y-41275000D01*
X104041253Y-41260858D01*
X104220858Y-41081252D01*
X104235000Y-41095395D01*
X105063139Y-40267255D01*
X104989005Y-40021136D01*
X104451777Y-39828035D01*
X103881546Y-39855222D01*
X103490053Y-40017384D01*
X103286890Y-39878569D01*
X103035000Y-39827560D01*
X101435000Y-39827560D01*
X101199683Y-39871838D01*
X100983559Y-40010910D01*
X100838569Y-40223110D01*
X100787560Y-40475000D01*
X96595000Y-40475000D01*
X96595000Y-36479187D01*
X100799752Y-36479187D01*
X101017757Y-37006800D01*
X101421077Y-37410824D01*
X101948309Y-37629750D01*
X102519187Y-37630248D01*
X103046800Y-37412243D01*
X103256663Y-37202745D01*
X103906861Y-37202745D01*
X103980995Y-37448864D01*
X104518223Y-37641965D01*
X105088454Y-37614778D01*
X105489005Y-37448864D01*
X105563139Y-37202745D01*
X104735000Y-36374605D01*
X103906861Y-37202745D01*
X103256663Y-37202745D01*
X103450824Y-37008923D01*
X103478423Y-36942456D01*
X103481136Y-36949005D01*
X103727255Y-37023139D01*
X104555395Y-36195000D01*
X104914605Y-36195000D01*
X105742745Y-37023139D01*
X105988864Y-36949005D01*
X106181965Y-36411777D01*
X106154778Y-35841546D01*
X105988864Y-35440995D01*
X105742745Y-35366861D01*
X104914605Y-36195000D01*
X104555395Y-36195000D01*
X103727255Y-35366861D01*
X103481136Y-35440995D01*
X103478804Y-35447483D01*
X103452243Y-35383200D01*
X103256640Y-35187255D01*
X103906861Y-35187255D01*
X104735000Y-36015395D01*
X105563139Y-35187255D01*
X105489005Y-34941136D01*
X104951777Y-34748035D01*
X104381546Y-34775222D01*
X103980995Y-34941136D01*
X103906861Y-35187255D01*
X103256640Y-35187255D01*
X103048923Y-34979176D01*
X102521691Y-34760250D01*
X101950813Y-34759752D01*
X101423200Y-34977757D01*
X101019176Y-35381077D01*
X100800250Y-35908309D01*
X100799752Y-36479187D01*
X96595000Y-36479187D01*
X96595000Y-32728599D01*
X97324699Y-32728599D01*
X97588281Y-33366515D01*
X98075918Y-33855004D01*
X98713373Y-34119699D01*
X99403599Y-34120301D01*
X100041515Y-33856719D01*
X100530004Y-33369082D01*
X100737241Y-32870000D01*
X111233275Y-32870000D01*
X111414822Y-33782700D01*
X111931825Y-34556450D01*
X112705575Y-35073453D01*
X113618275Y-35255000D01*
X113711725Y-35255000D01*
X114624425Y-35073453D01*
X115398175Y-34556450D01*
X115915178Y-33782700D01*
X116096725Y-32870000D01*
X116068599Y-32728599D01*
X125899699Y-32728599D01*
X126163281Y-33366515D01*
X126650918Y-33855004D01*
X127288373Y-34119699D01*
X127978599Y-34120301D01*
X128616515Y-33856719D01*
X129105004Y-33369082D01*
X129369699Y-32731627D01*
X129370301Y-32041401D01*
X129106719Y-31403485D01*
X128619082Y-30914996D01*
X127981627Y-30650301D01*
X127291401Y-30649699D01*
X126653485Y-30913281D01*
X126164996Y-31400918D01*
X125900301Y-32038373D01*
X125899699Y-32728599D01*
X116068599Y-32728599D01*
X115915178Y-31957300D01*
X115398175Y-31183550D01*
X114624425Y-30666547D01*
X113711725Y-30485000D01*
X113618275Y-30485000D01*
X112705575Y-30666547D01*
X111931825Y-31183550D01*
X111414822Y-31957300D01*
X111233275Y-32870000D01*
X100737241Y-32870000D01*
X100794699Y-32731627D01*
X100795301Y-32041401D01*
X100531719Y-31403485D01*
X100044082Y-30914996D01*
X99406627Y-30650301D01*
X98716401Y-30649699D01*
X98078485Y-30913281D01*
X97589996Y-31400918D01*
X97325301Y-32038373D01*
X97324699Y-32728599D01*
X96595000Y-32728599D01*
X96595000Y-29920000D01*
X130100000Y-29920000D01*
X130100000Y-97715000D01*
X130100000Y-97715000D01*
G37*
X130100000Y-97715000D02*
X96595000Y-97715000D01*
X96595000Y-95593599D01*
X97324699Y-95593599D01*
X97588281Y-96231515D01*
X98075918Y-96720004D01*
X98713373Y-96984699D01*
X99403599Y-96985301D01*
X100041515Y-96721719D01*
X100530004Y-96234082D01*
X100794699Y-95596627D01*
X100794701Y-95593599D01*
X125899699Y-95593599D01*
X126163281Y-96231515D01*
X126650918Y-96720004D01*
X127288373Y-96984699D01*
X127978599Y-96985301D01*
X128616515Y-96721719D01*
X129105004Y-96234082D01*
X129369699Y-95596627D01*
X129370301Y-94906401D01*
X129106719Y-94268485D01*
X128619082Y-93779996D01*
X127981627Y-93515301D01*
X127291401Y-93514699D01*
X126653485Y-93778281D01*
X126164996Y-94265918D01*
X125900301Y-94903373D01*
X125899699Y-95593599D01*
X100794701Y-95593599D01*
X100795301Y-94906401D01*
X100531719Y-94268485D01*
X100044082Y-93779996D01*
X99406627Y-93515301D01*
X98716401Y-93514699D01*
X98078485Y-93778281D01*
X97589996Y-94265918D01*
X97325301Y-94903373D01*
X97324699Y-95593599D01*
X96595000Y-95593599D01*
X96595000Y-91225000D01*
X102007560Y-91225000D01*
X102007560Y-92925000D01*
X102051838Y-93160317D01*
X102190910Y-93376441D01*
X102403110Y-93521431D01*
X102655000Y-93572440D01*
X104355000Y-93572440D01*
X104590317Y-93528162D01*
X104806441Y-93389090D01*
X104951431Y-93176890D01*
X104965086Y-93109459D01*
X104994946Y-93154147D01*
X105476715Y-93476054D01*
X106045000Y-93589093D01*
X106613285Y-93476054D01*
X107095054Y-93154147D01*
X107315000Y-92824974D01*
X107534946Y-93154147D01*
X108016715Y-93476054D01*
X108585000Y-93589093D01*
X109153285Y-93476054D01*
X109635054Y-93154147D01*
X109855000Y-92824974D01*
X110074946Y-93154147D01*
X110556715Y-93476054D01*
X111125000Y-93589093D01*
X111693285Y-93476054D01*
X112175054Y-93154147D01*
X112395000Y-92824974D01*
X112614946Y-93154147D01*
X113096715Y-93476054D01*
X113665000Y-93589093D01*
X114233285Y-93476054D01*
X114715054Y-93154147D01*
X115036961Y-92672378D01*
X115150000Y-92104093D01*
X115150000Y-92045907D01*
X115036961Y-91477622D01*
X114715054Y-90995853D01*
X114431899Y-90806655D01*
X114431924Y-90806645D01*
X114860183Y-90416358D01*
X115106486Y-89891892D01*
X114985819Y-89662000D01*
X113792000Y-89662000D01*
X113792000Y-89682000D01*
X113538000Y-89682000D01*
X113538000Y-89662000D01*
X111252000Y-89662000D01*
X111252000Y-89682000D01*
X110998000Y-89682000D01*
X110998000Y-89662000D01*
X108712000Y-89662000D01*
X108712000Y-89682000D01*
X108458000Y-89682000D01*
X108458000Y-89662000D01*
X106172000Y-89662000D01*
X106172000Y-89682000D01*
X105918000Y-89682000D01*
X105918000Y-89662000D01*
X103632000Y-89662000D01*
X103632000Y-89682000D01*
X103378000Y-89682000D01*
X103378000Y-89662000D01*
X102184181Y-89662000D01*
X102063514Y-89891892D01*
X102309817Y-90416358D01*
X102515504Y-90603808D01*
X102419683Y-90621838D01*
X102203559Y-90760910D01*
X102058569Y-90973110D01*
X102007560Y-91225000D01*
X96595000Y-91225000D01*
X96595000Y-89535000D01*
X117230907Y-89535000D01*
X117343946Y-90103285D01*
X117665853Y-90585054D01*
X117707452Y-90612850D01*
X117659683Y-90621838D01*
X117443559Y-90760910D01*
X117298569Y-90973110D01*
X117247560Y-91225000D01*
X117247560Y-92925000D01*
X117291838Y-93160317D01*
X117430910Y-93376441D01*
X117643110Y-93521431D01*
X117895000Y-93572440D01*
X119595000Y-93572440D01*
X119830317Y-93528162D01*
X120046441Y-93389090D01*
X120191431Y-93176890D01*
X120242440Y-92925000D01*
X120242440Y-91225000D01*
X120198162Y-90989683D01*
X120059090Y-90773559D01*
X119846890Y-90628569D01*
X119779459Y-90614914D01*
X119824147Y-90585054D01*
X120146054Y-90103285D01*
X120259093Y-89535000D01*
X121040907Y-89535000D01*
X121153946Y-90103285D01*
X121475853Y-90585054D01*
X121517452Y-90612850D01*
X121469683Y-90621838D01*
X121253559Y-90760910D01*
X121108569Y-90973110D01*
X121057560Y-91225000D01*
X121057560Y-92925000D01*
X121101838Y-93160317D01*
X121240910Y-93376441D01*
X121453110Y-93521431D01*
X121705000Y-93572440D01*
X123405000Y-93572440D01*
X123640317Y-93528162D01*
X123856441Y-93389090D01*
X124001431Y-93176890D01*
X124052440Y-92925000D01*
X124052440Y-91225000D01*
X124008162Y-90989683D01*
X123869090Y-90773559D01*
X123656890Y-90628569D01*
X123589459Y-90614914D01*
X123634147Y-90585054D01*
X123956054Y-90103285D01*
X124069093Y-89535000D01*
X123956054Y-88966715D01*
X123634147Y-88484946D01*
X123152378Y-88163039D01*
X122584093Y-88050000D01*
X122525907Y-88050000D01*
X121957622Y-88163039D01*
X121475853Y-88484946D01*
X121153946Y-88966715D01*
X121040907Y-89535000D01*
X120259093Y-89535000D01*
X120146054Y-88966715D01*
X119824147Y-88484946D01*
X119342378Y-88163039D01*
X118774093Y-88050000D01*
X118715907Y-88050000D01*
X118147622Y-88163039D01*
X117665853Y-88484946D01*
X117343946Y-88966715D01*
X117230907Y-89535000D01*
X96595000Y-89535000D01*
X96595000Y-89178108D01*
X102063514Y-89178108D01*
X102184181Y-89408000D01*
X103378000Y-89408000D01*
X103378000Y-88214845D01*
X103632000Y-88214845D01*
X103632000Y-89408000D01*
X105918000Y-89408000D01*
X105918000Y-88214845D01*
X106172000Y-88214845D01*
X106172000Y-89408000D01*
X108458000Y-89408000D01*
X108458000Y-88214845D01*
X108712000Y-88214845D01*
X108712000Y-89408000D01*
X110998000Y-89408000D01*
X110998000Y-88214845D01*
X111252000Y-88214845D01*
X111252000Y-89408000D01*
X113538000Y-89408000D01*
X113538000Y-88214845D01*
X113792000Y-88214845D01*
X113792000Y-89408000D01*
X114985819Y-89408000D01*
X115106486Y-89178108D01*
X114860183Y-88653642D01*
X114431924Y-88263355D01*
X114021890Y-88093524D01*
X113792000Y-88214845D01*
X113538000Y-88214845D01*
X113308110Y-88093524D01*
X112898076Y-88263355D01*
X112469817Y-88653642D01*
X112395000Y-88812954D01*
X112320183Y-88653642D01*
X111891924Y-88263355D01*
X111481890Y-88093524D01*
X111252000Y-88214845D01*
X110998000Y-88214845D01*
X110768110Y-88093524D01*
X110358076Y-88263355D01*
X109929817Y-88653642D01*
X109855000Y-88812954D01*
X109780183Y-88653642D01*
X109351924Y-88263355D01*
X108941890Y-88093524D01*
X108712000Y-88214845D01*
X108458000Y-88214845D01*
X108228110Y-88093524D01*
X107818076Y-88263355D01*
X107389817Y-88653642D01*
X107315000Y-88812954D01*
X107240183Y-88653642D01*
X106811924Y-88263355D01*
X106401890Y-88093524D01*
X106172000Y-88214845D01*
X105918000Y-88214845D01*
X105688110Y-88093524D01*
X105278076Y-88263355D01*
X104849817Y-88653642D01*
X104775000Y-88812954D01*
X104700183Y-88653642D01*
X104271924Y-88263355D01*
X103861890Y-88093524D01*
X103632000Y-88214845D01*
X103378000Y-88214845D01*
X103148110Y-88093524D01*
X102738076Y-88263355D01*
X102309817Y-88653642D01*
X102063514Y-89178108D01*
X96595000Y-89178108D01*
X96595000Y-84084383D01*
X98994769Y-84084383D01*
X99197582Y-84575229D01*
X99572796Y-84951098D01*
X100063287Y-85154768D01*
X100594383Y-85155231D01*
X101085229Y-84952418D01*
X101461098Y-84577204D01*
X101664768Y-84086713D01*
X101664892Y-83945000D01*
X103227560Y-83945000D01*
X103227560Y-84085000D01*
X103271838Y-84320317D01*
X103410910Y-84536441D01*
X103623110Y-84681431D01*
X103875000Y-84732440D01*
X105675000Y-84732440D01*
X105910317Y-84688162D01*
X106126441Y-84549090D01*
X106271431Y-84336890D01*
X106275567Y-84316466D01*
X106444357Y-84485551D01*
X107008330Y-84719733D01*
X107618991Y-84720265D01*
X108183371Y-84487068D01*
X108615551Y-84055643D01*
X108849733Y-83491670D01*
X108850265Y-82881009D01*
X108617068Y-82316629D01*
X108185643Y-81884449D01*
X107621670Y-81650267D01*
X107011009Y-81649735D01*
X106446629Y-81882932D01*
X106278387Y-82050880D01*
X106278162Y-82049683D01*
X106139090Y-81833559D01*
X105926890Y-81688569D01*
X105675000Y-81637560D01*
X103875000Y-81637560D01*
X103639683Y-81681838D01*
X103423559Y-81820910D01*
X103278569Y-82033110D01*
X103227560Y-82285000D01*
X103227560Y-82425000D01*
X100965000Y-82425000D01*
X100674161Y-82482852D01*
X100642281Y-82504154D01*
X100596713Y-82485232D01*
X100065617Y-82484769D01*
X99574771Y-82687582D01*
X99198902Y-83062796D01*
X98995232Y-83553287D01*
X98994769Y-84084383D01*
X96595000Y-84084383D01*
X96595000Y-79073331D01*
X99037273Y-79073331D01*
X99263236Y-79542663D01*
X99651604Y-79889797D01*
X99996671Y-80032716D01*
X100203000Y-79909374D01*
X100203000Y-78867000D01*
X100457000Y-78867000D01*
X100457000Y-79909374D01*
X100663329Y-80032716D01*
X101008396Y-79889797D01*
X101396764Y-79542663D01*
X101622727Y-79073331D01*
X101500206Y-78867000D01*
X100457000Y-78867000D01*
X100203000Y-78867000D01*
X99159794Y-78867000D01*
X99037273Y-79073331D01*
X96595000Y-79073331D01*
X96595000Y-78406669D01*
X99037273Y-78406669D01*
X99159794Y-78613000D01*
X100203000Y-78613000D01*
X100203000Y-77570626D01*
X100457000Y-77570626D01*
X100457000Y-78613000D01*
X101500206Y-78613000D01*
X101622727Y-78406669D01*
X101396764Y-77937337D01*
X101273198Y-77826890D01*
X103968524Y-77826890D01*
X104138355Y-78236924D01*
X104528642Y-78665183D01*
X105053108Y-78911486D01*
X105283000Y-78790819D01*
X105283000Y-77597000D01*
X105537000Y-77597000D01*
X105537000Y-78790819D01*
X105766892Y-78911486D01*
X106291358Y-78665183D01*
X106681645Y-78236924D01*
X106851476Y-77826890D01*
X106730155Y-77597000D01*
X105537000Y-77597000D01*
X105283000Y-77597000D01*
X104089845Y-77597000D01*
X103968524Y-77826890D01*
X101273198Y-77826890D01*
X101008396Y-77590203D01*
X100663329Y-77447284D01*
X100457000Y-77570626D01*
X100203000Y-77570626D01*
X99996671Y-77447284D01*
X99651604Y-77590203D01*
X99263236Y-77937337D01*
X99037273Y-78406669D01*
X96595000Y-78406669D01*
X96595000Y-63500000D01*
X98815907Y-63500000D01*
X98928946Y-64068285D01*
X99250853Y-64550054D01*
X99732622Y-64871961D01*
X100300907Y-64985000D01*
X100359093Y-64985000D01*
X100927378Y-64871961D01*
X101128065Y-64737867D01*
X102332599Y-65942401D01*
X102579161Y-66107148D01*
X102870000Y-66165000D01*
X103190198Y-66165000D01*
X103968790Y-66943592D01*
X103895907Y-67310000D01*
X104008946Y-67878285D01*
X104330853Y-68360054D01*
X104660026Y-68580000D01*
X104330853Y-68799946D01*
X104137046Y-69090000D01*
X101602954Y-69090000D01*
X101409147Y-68799946D01*
X100927378Y-68478039D01*
X100359093Y-68365000D01*
X100300907Y-68365000D01*
X99732622Y-68478039D01*
X99250853Y-68799946D01*
X98928946Y-69281715D01*
X98815907Y-69850000D01*
X98928946Y-70418285D01*
X99250853Y-70900054D01*
X99292452Y-70927850D01*
X99244683Y-70936838D01*
X99028559Y-71075910D01*
X98883569Y-71288110D01*
X98832560Y-71540000D01*
X98832560Y-73240000D01*
X98876838Y-73475317D01*
X99015910Y-73691441D01*
X99228110Y-73836431D01*
X99480000Y-73887440D01*
X101180000Y-73887440D01*
X101415317Y-73843162D01*
X101631441Y-73704090D01*
X101776431Y-73491890D01*
X101827440Y-73240000D01*
X101827440Y-73150000D01*
X104137046Y-73150000D01*
X104330853Y-73440054D01*
X104660026Y-73660000D01*
X104330853Y-73879946D01*
X104008946Y-74361715D01*
X103895907Y-74930000D01*
X104008946Y-75498285D01*
X104330853Y-75980054D01*
X104671553Y-76207702D01*
X104528642Y-76274817D01*
X104138355Y-76703076D01*
X103968524Y-77113110D01*
X104089845Y-77343000D01*
X105283000Y-77343000D01*
X105283000Y-77323000D01*
X105537000Y-77323000D01*
X105537000Y-77343000D01*
X106730155Y-77343000D01*
X106848268Y-77119187D01*
X110959752Y-77119187D01*
X111177757Y-77646800D01*
X111581077Y-78050824D01*
X111635000Y-78073215D01*
X111635000Y-81244895D01*
X111493559Y-81335910D01*
X111348569Y-81548110D01*
X111297560Y-81800000D01*
X111297560Y-83300000D01*
X111341838Y-83535317D01*
X111480910Y-83751441D01*
X111693110Y-83896431D01*
X111945000Y-83947440D01*
X112845000Y-83947440D01*
X113080317Y-83903162D01*
X113213529Y-83817442D01*
X113370999Y-83894408D01*
X113538000Y-83767502D01*
X113538000Y-82677000D01*
X113518000Y-82677000D01*
X113518000Y-82423000D01*
X113538000Y-82423000D01*
X113538000Y-81332498D01*
X113792000Y-81332498D01*
X113792000Y-82423000D01*
X113812000Y-82423000D01*
X113812000Y-82677000D01*
X113792000Y-82677000D01*
X113792000Y-83767502D01*
X113959001Y-83894408D01*
X114295726Y-83729830D01*
X114519788Y-83879543D01*
X114935000Y-83962134D01*
X115350212Y-83879543D01*
X115702211Y-83644345D01*
X115937409Y-83292346D01*
X116020000Y-82877134D01*
X116020000Y-82222866D01*
X119565000Y-82222866D01*
X119565000Y-82877134D01*
X119647591Y-83292346D01*
X119882789Y-83644345D01*
X120234788Y-83879543D01*
X120650000Y-83962134D01*
X121065212Y-83879543D01*
X121285000Y-83732685D01*
X121504788Y-83879543D01*
X121920000Y-83962134D01*
X122335212Y-83879543D01*
X122390546Y-83842570D01*
X122613691Y-83935000D01*
X122904250Y-83935000D01*
X123063000Y-83776250D01*
X123063000Y-82677000D01*
X123317000Y-82677000D01*
X123317000Y-83776250D01*
X123475750Y-83935000D01*
X123766309Y-83935000D01*
X123999698Y-83838327D01*
X124178327Y-83659699D01*
X124275000Y-83426310D01*
X124275000Y-82835750D01*
X124116250Y-82677000D01*
X123317000Y-82677000D01*
X123063000Y-82677000D01*
X123043000Y-82677000D01*
X123043000Y-82423000D01*
X123063000Y-82423000D01*
X123063000Y-81323750D01*
X123317000Y-81323750D01*
X123317000Y-82423000D01*
X124116250Y-82423000D01*
X124275000Y-82264250D01*
X124275000Y-81673690D01*
X124178327Y-81440301D01*
X123999698Y-81261673D01*
X123766309Y-81165000D01*
X123475750Y-81165000D01*
X123317000Y-81323750D01*
X123063000Y-81323750D01*
X122904250Y-81165000D01*
X122613691Y-81165000D01*
X122390546Y-81257430D01*
X122335212Y-81220457D01*
X121920000Y-81137866D01*
X121504788Y-81220457D01*
X121285000Y-81367315D01*
X121065212Y-81220457D01*
X120650000Y-81137866D01*
X120234788Y-81220457D01*
X119882789Y-81455655D01*
X119647591Y-81807654D01*
X119565000Y-82222866D01*
X116020000Y-82222866D01*
X115937409Y-81807654D01*
X115702211Y-81455655D01*
X115350212Y-81220457D01*
X114935000Y-81137866D01*
X114519788Y-81220457D01*
X114295726Y-81370170D01*
X113959001Y-81205592D01*
X113792000Y-81332498D01*
X113538000Y-81332498D01*
X113370999Y-81205592D01*
X113212925Y-81282853D01*
X113155000Y-81243274D01*
X113155000Y-78073646D01*
X113206800Y-78052243D01*
X113416663Y-77842745D01*
X114066861Y-77842745D01*
X114140995Y-78088864D01*
X114678223Y-78281965D01*
X115248454Y-78254778D01*
X115649005Y-78088864D01*
X115723139Y-77842745D01*
X115707285Y-77826890D01*
X118968524Y-77826890D01*
X119138355Y-78236924D01*
X119528642Y-78665183D01*
X120053108Y-78911486D01*
X120283000Y-78790819D01*
X120283000Y-77597000D01*
X120537000Y-77597000D01*
X120537000Y-78790819D01*
X120766892Y-78911486D01*
X121291358Y-78665183D01*
X121681645Y-78236924D01*
X121747118Y-78078846D01*
X123760000Y-78078846D01*
X123760000Y-78131154D01*
X123861621Y-78642036D01*
X124151012Y-79075142D01*
X124584118Y-79364533D01*
X125095000Y-79466154D01*
X125605882Y-79364533D01*
X126038988Y-79075142D01*
X126328379Y-78642036D01*
X126430000Y-78131154D01*
X126430000Y-78078846D01*
X126328379Y-77567964D01*
X126038988Y-77134858D01*
X125605882Y-76845467D01*
X125095000Y-76743846D01*
X124584118Y-76845467D01*
X124151012Y-77134858D01*
X123861621Y-77567964D01*
X123760000Y-78078846D01*
X121747118Y-78078846D01*
X121851476Y-77826890D01*
X121730155Y-77597000D01*
X120537000Y-77597000D01*
X120283000Y-77597000D01*
X119089845Y-77597000D01*
X118968524Y-77826890D01*
X115707285Y-77826890D01*
X114895000Y-77014605D01*
X114066861Y-77842745D01*
X113416663Y-77842745D01*
X113610824Y-77648923D01*
X113638423Y-77582456D01*
X113641136Y-77589005D01*
X113887255Y-77663139D01*
X114715395Y-76835000D01*
X115074605Y-76835000D01*
X115902745Y-77663139D01*
X116148864Y-77589005D01*
X116341965Y-77051777D01*
X116314778Y-76481546D01*
X116148864Y-76080995D01*
X115902745Y-76006861D01*
X115074605Y-76835000D01*
X114715395Y-76835000D01*
X113887255Y-76006861D01*
X113641136Y-76080995D01*
X113638804Y-76087483D01*
X113612243Y-76023200D01*
X113416640Y-75827255D01*
X114066861Y-75827255D01*
X114895000Y-76655395D01*
X115723139Y-75827255D01*
X115649005Y-75581136D01*
X115111777Y-75388035D01*
X114541546Y-75415222D01*
X114140995Y-75581136D01*
X114066861Y-75827255D01*
X113416640Y-75827255D01*
X113208923Y-75619176D01*
X112681691Y-75400250D01*
X112110813Y-75399752D01*
X111583200Y-75617757D01*
X111179176Y-76021077D01*
X110960250Y-76548309D01*
X110959752Y-77119187D01*
X106848268Y-77119187D01*
X106851476Y-77113110D01*
X106681645Y-76703076D01*
X106291358Y-76274817D01*
X106148447Y-76207702D01*
X106489147Y-75980054D01*
X106811054Y-75498285D01*
X106924093Y-74930000D01*
X106811054Y-74361715D01*
X106489147Y-73879946D01*
X106159974Y-73660000D01*
X106489147Y-73440054D01*
X106811054Y-72958285D01*
X106924093Y-72390000D01*
X106811054Y-71821715D01*
X106489147Y-71339946D01*
X106159974Y-71120000D01*
X106489147Y-70900054D01*
X106811054Y-70418285D01*
X106924093Y-69850000D01*
X112270000Y-69850000D01*
X112270000Y-71755000D01*
X112327852Y-72045839D01*
X112492599Y-72292401D01*
X113999878Y-73799680D01*
X113999838Y-73845167D01*
X114141883Y-74188943D01*
X114404673Y-74452192D01*
X114748201Y-74594838D01*
X115120167Y-74595162D01*
X115463943Y-74453117D01*
X115727192Y-74190327D01*
X115869838Y-73846799D01*
X115870162Y-73474833D01*
X115728117Y-73131057D01*
X115465327Y-72867808D01*
X115121799Y-72725162D01*
X115074923Y-72725121D01*
X114228461Y-71878659D01*
X114457192Y-71650327D01*
X114599838Y-71306799D01*
X114599879Y-71259923D01*
X114870113Y-70989689D01*
X114869769Y-71384383D01*
X115072582Y-71875229D01*
X115447796Y-72251098D01*
X115938287Y-72454768D01*
X116469383Y-72455231D01*
X116960229Y-72252418D01*
X117333297Y-71880000D01*
X118997352Y-71880000D01*
X118895907Y-72390000D01*
X119008946Y-72958285D01*
X119330853Y-73440054D01*
X119660026Y-73660000D01*
X119330853Y-73879946D01*
X119008946Y-74361715D01*
X118895907Y-74930000D01*
X119008946Y-75498285D01*
X119330853Y-75980054D01*
X119671553Y-76207702D01*
X119528642Y-76274817D01*
X119138355Y-76703076D01*
X118968524Y-77113110D01*
X119089845Y-77343000D01*
X120283000Y-77343000D01*
X120283000Y-77323000D01*
X120537000Y-77323000D01*
X120537000Y-77343000D01*
X121730155Y-77343000D01*
X121851476Y-77113110D01*
X121681645Y-76703076D01*
X121291358Y-76274817D01*
X121148447Y-76207702D01*
X121489147Y-75980054D01*
X121811054Y-75498285D01*
X121924093Y-74930000D01*
X121811054Y-74361715D01*
X121489147Y-73879946D01*
X121347050Y-73785000D01*
X123967345Y-73785000D01*
X124337796Y-74156098D01*
X124828287Y-74359768D01*
X125359383Y-74360231D01*
X125850229Y-74157418D01*
X126226098Y-73782204D01*
X126429768Y-73291713D01*
X126430231Y-72760617D01*
X126227418Y-72269771D01*
X125852204Y-71893902D01*
X125361713Y-71690232D01*
X124830617Y-71689769D01*
X124339771Y-71892582D01*
X123966703Y-72265000D01*
X121899229Y-72265000D01*
X121811054Y-71821715D01*
X121489147Y-71339946D01*
X121159974Y-71120000D01*
X121489147Y-70900054D01*
X121811054Y-70418285D01*
X121924093Y-69850000D01*
X121811054Y-69281715D01*
X121489147Y-68799946D01*
X121159974Y-68580000D01*
X121489147Y-68360054D01*
X121811054Y-67878285D01*
X121924093Y-67310000D01*
X121811054Y-66741715D01*
X121489147Y-66259946D01*
X121159974Y-66040000D01*
X121489147Y-65820054D01*
X121811054Y-65338285D01*
X121924093Y-64770000D01*
X121876641Y-64531443D01*
X122017599Y-64672401D01*
X122264161Y-64837148D01*
X122555000Y-64895000D01*
X124602345Y-64895000D01*
X124972796Y-65266098D01*
X125463287Y-65469768D01*
X125994383Y-65470231D01*
X126485229Y-65267418D01*
X126861098Y-64892204D01*
X127064768Y-64401713D01*
X127065231Y-63870617D01*
X126862418Y-63379771D01*
X126487204Y-63003902D01*
X125996713Y-62800232D01*
X125465617Y-62799769D01*
X124974771Y-63002582D01*
X124601703Y-63375000D01*
X122869802Y-63375000D01*
X121891028Y-62396226D01*
X121924093Y-62230000D01*
X121811054Y-61661715D01*
X121489147Y-61179946D01*
X121184840Y-60976615D01*
X121250086Y-60949656D01*
X121668188Y-60532283D01*
X121894742Y-59986681D01*
X121895257Y-59395911D01*
X121669656Y-58849914D01*
X121252283Y-58431812D01*
X120706681Y-58205258D01*
X120115911Y-58204743D01*
X119569914Y-58430344D01*
X119151812Y-58847717D01*
X118925258Y-59393319D01*
X118924743Y-59984089D01*
X119013955Y-60200000D01*
X118745000Y-60200000D01*
X118454161Y-60257852D01*
X118207599Y-60422599D01*
X114397599Y-64232599D01*
X114232852Y-64479161D01*
X114175000Y-64770000D01*
X114175000Y-67630198D01*
X112492599Y-69312599D01*
X112327852Y-69559161D01*
X112270000Y-69850000D01*
X106924093Y-69850000D01*
X106811054Y-69281715D01*
X106489147Y-68799946D01*
X106159974Y-68580000D01*
X106489147Y-68360054D01*
X106811054Y-67878285D01*
X106924093Y-67310000D01*
X106811054Y-66741715D01*
X106489147Y-66259946D01*
X106159974Y-66040000D01*
X106489147Y-65820054D01*
X106811054Y-65338285D01*
X106924093Y-64770000D01*
X106811054Y-64201715D01*
X106489147Y-63719946D01*
X106159974Y-63500000D01*
X106489147Y-63280054D01*
X106811054Y-62798285D01*
X106924093Y-62230000D01*
X106811054Y-61661715D01*
X106489147Y-61179946D01*
X106445223Y-61150597D01*
X106619698Y-61078327D01*
X106798327Y-60899699D01*
X106895000Y-60666310D01*
X106895000Y-59975750D01*
X106736250Y-59817000D01*
X105537000Y-59817000D01*
X105537000Y-59837000D01*
X105283000Y-59837000D01*
X105283000Y-59817000D01*
X104083750Y-59817000D01*
X103925000Y-59975750D01*
X103925000Y-60666310D01*
X104021673Y-60899699D01*
X104200302Y-61078327D01*
X104374777Y-61150597D01*
X104330853Y-61179946D01*
X104008946Y-61661715D01*
X103895907Y-62230000D01*
X104008946Y-62798285D01*
X104330853Y-63280054D01*
X104660026Y-63500000D01*
X104330853Y-63719946D01*
X104264321Y-63819519D01*
X101827440Y-61382638D01*
X101827440Y-60110000D01*
X101783162Y-59874683D01*
X101644090Y-59658559D01*
X101431890Y-59513569D01*
X101180000Y-59462560D01*
X99480000Y-59462560D01*
X99244683Y-59506838D01*
X99028559Y-59645910D01*
X98883569Y-59858110D01*
X98832560Y-60110000D01*
X98832560Y-61810000D01*
X98876838Y-62045317D01*
X99015910Y-62261441D01*
X99228110Y-62406431D01*
X99295541Y-62420086D01*
X99250853Y-62449946D01*
X98928946Y-62931715D01*
X98815907Y-63500000D01*
X96595000Y-63500000D01*
X96595000Y-58713690D01*
X103925000Y-58713690D01*
X103925000Y-59404250D01*
X104083750Y-59563000D01*
X105283000Y-59563000D01*
X105283000Y-58363750D01*
X105537000Y-58363750D01*
X105537000Y-59563000D01*
X106736250Y-59563000D01*
X106895000Y-59404250D01*
X106895000Y-58713690D01*
X106798327Y-58480301D01*
X106619698Y-58301673D01*
X106386309Y-58205000D01*
X105695750Y-58205000D01*
X105537000Y-58363750D01*
X105283000Y-58363750D01*
X105124250Y-58205000D01*
X104433691Y-58205000D01*
X104200302Y-58301673D01*
X104021673Y-58480301D01*
X103925000Y-58713690D01*
X96595000Y-58713690D01*
X96595000Y-54982745D01*
X110336861Y-54982745D01*
X110410995Y-55228864D01*
X110948223Y-55421965D01*
X111518454Y-55394778D01*
X111919005Y-55228864D01*
X111993139Y-54982745D01*
X111165000Y-54154605D01*
X110336861Y-54982745D01*
X96595000Y-54982745D01*
X96595000Y-53061892D01*
X100793514Y-53061892D01*
X101039817Y-53586358D01*
X101468076Y-53976645D01*
X101878110Y-54146476D01*
X102108000Y-54025155D01*
X102108000Y-52832000D01*
X100914181Y-52832000D01*
X100793514Y-53061892D01*
X96595000Y-53061892D01*
X96595000Y-52348108D01*
X100793514Y-52348108D01*
X100914181Y-52578000D01*
X102108000Y-52578000D01*
X102108000Y-51384845D01*
X102362000Y-51384845D01*
X102362000Y-52578000D01*
X102382000Y-52578000D01*
X102382000Y-52832000D01*
X102362000Y-52832000D01*
X102362000Y-54025155D01*
X102591890Y-54146476D01*
X103001924Y-53976645D01*
X103304937Y-53700499D01*
X103321838Y-53790317D01*
X103460910Y-54006441D01*
X103673110Y-54151431D01*
X103925000Y-54202440D01*
X105625000Y-54202440D01*
X105860317Y-54158162D01*
X106076441Y-54019090D01*
X106221431Y-53806890D01*
X106231286Y-53758223D01*
X109718035Y-53758223D01*
X109745222Y-54328454D01*
X109911136Y-54729005D01*
X110157255Y-54803139D01*
X110985395Y-53975000D01*
X111344605Y-53975000D01*
X112172745Y-54803139D01*
X112418864Y-54729005D01*
X112421196Y-54722517D01*
X112447757Y-54786800D01*
X112851077Y-55190824D01*
X113378309Y-55409750D01*
X113949187Y-55410248D01*
X114476800Y-55192243D01*
X114880824Y-54788923D01*
X115099750Y-54261691D01*
X115099750Y-54260750D01*
X117025000Y-54260750D01*
X117025000Y-54851310D01*
X117121673Y-55084699D01*
X117300302Y-55263327D01*
X117533691Y-55360000D01*
X117824250Y-55360000D01*
X117983000Y-55201250D01*
X117983000Y-54102000D01*
X117183750Y-54102000D01*
X117025000Y-54260750D01*
X115099750Y-54260750D01*
X115100248Y-53690813D01*
X114882243Y-53163200D01*
X114817846Y-53098690D01*
X117025000Y-53098690D01*
X117025000Y-53689250D01*
X117183750Y-53848000D01*
X117983000Y-53848000D01*
X117983000Y-52748750D01*
X118237000Y-52748750D01*
X118237000Y-53848000D01*
X118257000Y-53848000D01*
X118257000Y-54102000D01*
X118237000Y-54102000D01*
X118237000Y-55201250D01*
X118395750Y-55360000D01*
X118642875Y-55360000D01*
X118677852Y-55535839D01*
X118842599Y-55782401D01*
X119089161Y-55947148D01*
X119380000Y-56005000D01*
X119700198Y-56005000D01*
X120112599Y-56417401D01*
X120359161Y-56582148D01*
X120650000Y-56640000D01*
X122240198Y-56640000D01*
X124433830Y-58833632D01*
X124395000Y-59028846D01*
X124395000Y-59081154D01*
X124496621Y-59592036D01*
X124786012Y-60025142D01*
X125219118Y-60314533D01*
X125730000Y-60416154D01*
X126240882Y-60314533D01*
X126673988Y-60025142D01*
X126963379Y-59592036D01*
X127065000Y-59081154D01*
X127065000Y-59028846D01*
X126963379Y-58517964D01*
X126673988Y-58084858D01*
X126240882Y-57795467D01*
X125730000Y-57693846D01*
X125491157Y-57741355D01*
X123754802Y-56005000D01*
X124602345Y-56005000D01*
X124972796Y-56376098D01*
X125463287Y-56579768D01*
X125994383Y-56580231D01*
X126485229Y-56377418D01*
X126861098Y-56002204D01*
X127064768Y-55511713D01*
X127065231Y-54980617D01*
X126862418Y-54489771D01*
X126487204Y-54113902D01*
X125996713Y-53910232D01*
X125465617Y-53909769D01*
X124974771Y-54112582D01*
X124601703Y-54485000D01*
X122234802Y-54485000D01*
X121735000Y-53985198D01*
X121735000Y-53647866D01*
X121652409Y-53232654D01*
X121417211Y-52880655D01*
X121065212Y-52645457D01*
X120650000Y-52562866D01*
X120234788Y-52645457D01*
X120015000Y-52792315D01*
X119795212Y-52645457D01*
X119380000Y-52562866D01*
X118964788Y-52645457D01*
X118909454Y-52682430D01*
X118686309Y-52590000D01*
X118395750Y-52590000D01*
X118237000Y-52748750D01*
X117983000Y-52748750D01*
X117824250Y-52590000D01*
X117533691Y-52590000D01*
X117300302Y-52686673D01*
X117121673Y-52865301D01*
X117025000Y-53098690D01*
X114817846Y-53098690D01*
X114478923Y-52759176D01*
X113951691Y-52540250D01*
X113380813Y-52539752D01*
X112853200Y-52757757D01*
X112449176Y-53161077D01*
X112421577Y-53227544D01*
X112418864Y-53220995D01*
X112172745Y-53146861D01*
X111344605Y-53975000D01*
X110985395Y-53975000D01*
X110157255Y-53146861D01*
X109911136Y-53220995D01*
X109718035Y-53758223D01*
X106231286Y-53758223D01*
X106272440Y-53555000D01*
X106272440Y-52967255D01*
X110336861Y-52967255D01*
X111165000Y-53795395D01*
X111993139Y-52967255D01*
X111919005Y-52721136D01*
X111381777Y-52528035D01*
X110811546Y-52555222D01*
X110410995Y-52721136D01*
X110336861Y-52967255D01*
X106272440Y-52967255D01*
X106272440Y-51855000D01*
X106228162Y-51619683D01*
X106089090Y-51403559D01*
X105876890Y-51258569D01*
X105625000Y-51207560D01*
X103925000Y-51207560D01*
X103689683Y-51251838D01*
X103473559Y-51390910D01*
X103328569Y-51603110D01*
X103306699Y-51711107D01*
X103001924Y-51433355D01*
X102591890Y-51263524D01*
X102362000Y-51384845D01*
X102108000Y-51384845D01*
X101878110Y-51263524D01*
X101468076Y-51433355D01*
X101039817Y-51823642D01*
X100793514Y-52348108D01*
X96595000Y-52348108D01*
X96595000Y-48630000D01*
X109577560Y-48630000D01*
X109577560Y-50430000D01*
X109621838Y-50665317D01*
X109760910Y-50881441D01*
X109973110Y-51026431D01*
X110225000Y-51077440D01*
X112025000Y-51077440D01*
X112260317Y-51033162D01*
X112476441Y-50894090D01*
X112621431Y-50681890D01*
X112631766Y-50630854D01*
X112757424Y-50767966D01*
X113300258Y-51021046D01*
X113538000Y-50900997D01*
X113538000Y-49657000D01*
X113518000Y-49657000D01*
X113518000Y-49403000D01*
X113538000Y-49403000D01*
X113538000Y-48159003D01*
X113792000Y-48159003D01*
X113792000Y-49403000D01*
X113812000Y-49403000D01*
X113812000Y-49657000D01*
X113792000Y-49657000D01*
X113792000Y-50900997D01*
X114029742Y-51021046D01*
X114572576Y-50767966D01*
X114930499Y-50377418D01*
X115089519Y-50615409D01*
X115587509Y-50948155D01*
X116174928Y-51065000D01*
X116235072Y-51065000D01*
X116822491Y-50948155D01*
X117320481Y-50615409D01*
X117638909Y-50138846D01*
X124395000Y-50138846D01*
X124395000Y-50191154D01*
X124496621Y-50702036D01*
X124786012Y-51135142D01*
X125219118Y-51424533D01*
X125730000Y-51526154D01*
X126240882Y-51424533D01*
X126673988Y-51135142D01*
X126963379Y-50702036D01*
X127065000Y-50191154D01*
X127065000Y-50138846D01*
X126963379Y-49627964D01*
X126673988Y-49194858D01*
X126240882Y-48905467D01*
X125730000Y-48803846D01*
X125219118Y-48905467D01*
X124786012Y-49194858D01*
X124496621Y-49627964D01*
X124395000Y-50138846D01*
X117638909Y-50138846D01*
X117653227Y-50117419D01*
X117770072Y-49530000D01*
X117653227Y-48942581D01*
X117320481Y-48444591D01*
X116822491Y-48111845D01*
X116235072Y-47995000D01*
X116174928Y-47995000D01*
X115587509Y-48111845D01*
X115089519Y-48444591D01*
X114930499Y-48682582D01*
X114572576Y-48292034D01*
X114029742Y-48038954D01*
X113792000Y-48159003D01*
X113538000Y-48159003D01*
X113300258Y-48038954D01*
X112757424Y-48292034D01*
X112634156Y-48426538D01*
X112628162Y-48394683D01*
X112489090Y-48178559D01*
X112276890Y-48033569D01*
X112025000Y-47982560D01*
X110225000Y-47982560D01*
X109989683Y-48026838D01*
X109773559Y-48165910D01*
X109628569Y-48378110D01*
X109577560Y-48630000D01*
X96595000Y-48630000D01*
X96595000Y-46140000D01*
X100737560Y-46140000D01*
X100737560Y-47840000D01*
X100781838Y-48075317D01*
X100920910Y-48291441D01*
X101133110Y-48436431D01*
X101385000Y-48487440D01*
X103085000Y-48487440D01*
X103320317Y-48443162D01*
X103536441Y-48304090D01*
X103681431Y-48091890D01*
X103695086Y-48024459D01*
X103724946Y-48069147D01*
X104206715Y-48391054D01*
X104775000Y-48504093D01*
X105343285Y-48391054D01*
X105825054Y-48069147D01*
X106146961Y-47587378D01*
X106260000Y-47019093D01*
X106260000Y-46960907D01*
X106146961Y-46392622D01*
X105825054Y-45910853D01*
X105343285Y-45588946D01*
X104775000Y-45475907D01*
X104206715Y-45588946D01*
X103724946Y-45910853D01*
X103697150Y-45952452D01*
X103688162Y-45904683D01*
X103549090Y-45688559D01*
X103336890Y-45543569D01*
X103085000Y-45492560D01*
X101385000Y-45492560D01*
X101149683Y-45536838D01*
X100933559Y-45675910D01*
X100788569Y-45888110D01*
X100737560Y-46140000D01*
X96595000Y-46140000D01*
X96595000Y-43650000D01*
X119837560Y-43650000D01*
X119837560Y-45250000D01*
X119881838Y-45485317D01*
X120020910Y-45701441D01*
X120233110Y-45846431D01*
X120485000Y-45897440D01*
X122085000Y-45897440D01*
X122320317Y-45853162D01*
X122536441Y-45714090D01*
X122540977Y-45707452D01*
X123068223Y-45896965D01*
X123638454Y-45869778D01*
X124039005Y-45703864D01*
X124113139Y-45457745D01*
X123285000Y-44629605D01*
X123270858Y-44643748D01*
X123091253Y-44464143D01*
X123105395Y-44450000D01*
X123464605Y-44450000D01*
X124292745Y-45278139D01*
X124538864Y-45204005D01*
X124731965Y-44666777D01*
X124704778Y-44096546D01*
X124538864Y-43695995D01*
X124292745Y-43621861D01*
X123464605Y-44450000D01*
X123105395Y-44450000D01*
X123091253Y-44435858D01*
X123270858Y-44256252D01*
X123285000Y-44270395D01*
X124113139Y-43442255D01*
X124039005Y-43196136D01*
X123501777Y-43003035D01*
X122931546Y-43030222D01*
X122540053Y-43192384D01*
X122336890Y-43053569D01*
X122085000Y-43002560D01*
X120485000Y-43002560D01*
X120249683Y-43046838D01*
X120033559Y-43185910D01*
X119888569Y-43398110D01*
X119837560Y-43650000D01*
X96595000Y-43650000D01*
X96595000Y-40475000D01*
X100787560Y-40475000D01*
X100787560Y-42075000D01*
X100831838Y-42310317D01*
X100970910Y-42526441D01*
X101183110Y-42671431D01*
X101435000Y-42722440D01*
X103035000Y-42722440D01*
X103270317Y-42678162D01*
X103486441Y-42539090D01*
X103490977Y-42532452D01*
X104018223Y-42721965D01*
X104588454Y-42694778D01*
X104989005Y-42528864D01*
X105063139Y-42282745D01*
X104235000Y-41454605D01*
X104220858Y-41468748D01*
X104041253Y-41289143D01*
X104055395Y-41275000D01*
X104414605Y-41275000D01*
X105242745Y-42103139D01*
X105488864Y-42029005D01*
X105681965Y-41491777D01*
X105654778Y-40921546D01*
X105488864Y-40520995D01*
X105242745Y-40446861D01*
X104414605Y-41275000D01*
X104055395Y-41275000D01*
X104041253Y-41260858D01*
X104220858Y-41081252D01*
X104235000Y-41095395D01*
X105063139Y-40267255D01*
X104989005Y-40021136D01*
X104451777Y-39828035D01*
X103881546Y-39855222D01*
X103490053Y-40017384D01*
X103286890Y-39878569D01*
X103035000Y-39827560D01*
X101435000Y-39827560D01*
X101199683Y-39871838D01*
X100983559Y-40010910D01*
X100838569Y-40223110D01*
X100787560Y-40475000D01*
X96595000Y-40475000D01*
X96595000Y-36479187D01*
X100799752Y-36479187D01*
X101017757Y-37006800D01*
X101421077Y-37410824D01*
X101948309Y-37629750D01*
X102519187Y-37630248D01*
X103046800Y-37412243D01*
X103256663Y-37202745D01*
X103906861Y-37202745D01*
X103980995Y-37448864D01*
X104518223Y-37641965D01*
X105088454Y-37614778D01*
X105489005Y-37448864D01*
X105563139Y-37202745D01*
X104735000Y-36374605D01*
X103906861Y-37202745D01*
X103256663Y-37202745D01*
X103450824Y-37008923D01*
X103478423Y-36942456D01*
X103481136Y-36949005D01*
X103727255Y-37023139D01*
X104555395Y-36195000D01*
X104914605Y-36195000D01*
X105742745Y-37023139D01*
X105988864Y-36949005D01*
X106181965Y-36411777D01*
X106154778Y-35841546D01*
X105988864Y-35440995D01*
X105742745Y-35366861D01*
X104914605Y-36195000D01*
X104555395Y-36195000D01*
X103727255Y-35366861D01*
X103481136Y-35440995D01*
X103478804Y-35447483D01*
X103452243Y-35383200D01*
X103256640Y-35187255D01*
X103906861Y-35187255D01*
X104735000Y-36015395D01*
X105563139Y-35187255D01*
X105489005Y-34941136D01*
X104951777Y-34748035D01*
X104381546Y-34775222D01*
X103980995Y-34941136D01*
X103906861Y-35187255D01*
X103256640Y-35187255D01*
X103048923Y-34979176D01*
X102521691Y-34760250D01*
X101950813Y-34759752D01*
X101423200Y-34977757D01*
X101019176Y-35381077D01*
X100800250Y-35908309D01*
X100799752Y-36479187D01*
X96595000Y-36479187D01*
X96595000Y-32728599D01*
X97324699Y-32728599D01*
X97588281Y-33366515D01*
X98075918Y-33855004D01*
X98713373Y-34119699D01*
X99403599Y-34120301D01*
X100041515Y-33856719D01*
X100530004Y-33369082D01*
X100737241Y-32870000D01*
X111233275Y-32870000D01*
X111414822Y-33782700D01*
X111931825Y-34556450D01*
X112705575Y-35073453D01*
X113618275Y-35255000D01*
X113711725Y-35255000D01*
X114624425Y-35073453D01*
X115398175Y-34556450D01*
X115915178Y-33782700D01*
X116096725Y-32870000D01*
X116068599Y-32728599D01*
X125899699Y-32728599D01*
X126163281Y-33366515D01*
X126650918Y-33855004D01*
X127288373Y-34119699D01*
X127978599Y-34120301D01*
X128616515Y-33856719D01*
X129105004Y-33369082D01*
X129369699Y-32731627D01*
X129370301Y-32041401D01*
X129106719Y-31403485D01*
X128619082Y-30914996D01*
X127981627Y-30650301D01*
X127291401Y-30649699D01*
X126653485Y-30913281D01*
X126164996Y-31400918D01*
X125900301Y-32038373D01*
X125899699Y-32728599D01*
X116068599Y-32728599D01*
X115915178Y-31957300D01*
X115398175Y-31183550D01*
X114624425Y-30666547D01*
X113711725Y-30485000D01*
X113618275Y-30485000D01*
X112705575Y-30666547D01*
X111931825Y-31183550D01*
X111414822Y-31957300D01*
X111233275Y-32870000D01*
X100737241Y-32870000D01*
X100794699Y-32731627D01*
X100795301Y-32041401D01*
X100531719Y-31403485D01*
X100044082Y-30914996D01*
X99406627Y-30650301D01*
X98716401Y-30649699D01*
X98078485Y-30913281D01*
X97589996Y-31400918D01*
X97325301Y-32038373D01*
X97324699Y-32728599D01*
X96595000Y-32728599D01*
X96595000Y-29920000D01*
X130100000Y-29920000D01*
X130100000Y-97715000D01*
M02*
