G04 #@! TF.FileFunction,Soldermask,Top*
%FSLAX46Y46*%
G04 Gerber Fmt 4.6, Leading zero omitted, Abs format (unit mm)*
G04 Created by KiCad (PCBNEW 4.0.7) date Sunday, April 15, 2018 'PMt' 03:49:00 PM*
%MOMM*%
%LPD*%
G01*
G04 APERTURE LIST*
%ADD10C,0.100000*%
%ADD11C,2.000000*%
%ADD12R,2.100000X2.100000*%
%ADD13O,2.100000X2.100000*%
%ADD14O,3.900000X3.900000*%
%ADD15R,2.200000X2.200000*%
%ADD16O,2.200000X2.200000*%
%ADD17O,1.300000X1.900000*%
%ADD18R,1.300000X1.900000*%
%ADD19R,2.000000X2.000000*%
%ADD20C,2.200000*%
%ADD21C,1.800000*%
%ADD22O,1.800000X1.800000*%
%ADD23C,2.600000*%
%ADD24C,2.100000*%
G04 APERTURE END LIST*
D10*
D11*
X112395000Y-76835000D03*
X114895000Y-76835000D03*
D12*
X100330000Y-60960000D03*
D13*
X100330000Y-63500000D03*
D12*
X100330000Y-72390000D03*
D13*
X100330000Y-69850000D03*
D14*
X113665000Y-32870000D03*
D15*
X111125000Y-49530000D03*
D16*
X113665000Y-49530000D03*
X116205000Y-49530000D03*
D17*
X113665000Y-82550000D03*
X114935000Y-82550000D03*
D18*
X112395000Y-82550000D03*
D19*
X102235000Y-41275000D03*
D11*
X104235000Y-41275000D03*
D15*
X104775000Y-83185000D03*
D20*
X107315000Y-83185000D03*
D12*
X122555000Y-92075000D03*
D13*
X122555000Y-89535000D03*
D12*
X118745000Y-92075000D03*
D13*
X118745000Y-89535000D03*
D21*
X100330000Y-83820000D03*
D22*
X100330000Y-78740000D03*
D21*
X116205000Y-71120000D03*
D22*
X116205000Y-66040000D03*
D21*
X125730000Y-55245000D03*
D22*
X125730000Y-50165000D03*
D11*
X113665000Y-53975000D03*
X111165000Y-53975000D03*
X102235000Y-36195000D03*
X104735000Y-36195000D03*
D19*
X121285000Y-44450000D03*
D11*
X123285000Y-44450000D03*
D12*
X103505000Y-92075000D03*
D13*
X103505000Y-89535000D03*
X106045000Y-92075000D03*
X106045000Y-89535000D03*
X108585000Y-92075000D03*
X108585000Y-89535000D03*
X111125000Y-92075000D03*
X111125000Y-89535000D03*
X113665000Y-92075000D03*
X113665000Y-89535000D03*
D21*
X125095000Y-73025000D03*
D22*
X125095000Y-78105000D03*
D21*
X125730000Y-64135000D03*
D22*
X125730000Y-59055000D03*
D12*
X104775000Y-52705000D03*
D13*
X102235000Y-52705000D03*
D17*
X121920000Y-82550000D03*
X120650000Y-82550000D03*
D18*
X123190000Y-82550000D03*
D17*
X119380000Y-53975000D03*
X120650000Y-53975000D03*
D18*
X118110000Y-53975000D03*
D23*
X127635000Y-32385000D03*
X99060000Y-32385000D03*
X127635000Y-95250000D03*
X99060000Y-95250000D03*
D12*
X102235000Y-46990000D03*
D13*
X104775000Y-46990000D03*
X120410000Y-77470000D03*
X120410000Y-74930000D03*
X120410000Y-72390000D03*
X120410000Y-69850000D03*
X120410000Y-67310000D03*
X120410000Y-64770000D03*
X120410000Y-62230000D03*
D24*
X120410000Y-59690000D03*
D12*
X105410000Y-59690000D03*
D13*
X105410000Y-62230000D03*
X105410000Y-64770000D03*
X105410000Y-67310000D03*
X105410000Y-69850000D03*
X105410000Y-72390000D03*
X105410000Y-74930000D03*
X105410000Y-77470000D03*
M02*
