G04 #@! TF.FileFunction,Copper,L1,Top,Signal*
%FSLAX46Y46*%
G04 Gerber Fmt 4.6, Leading zero omitted, Abs format (unit mm)*
G04 Created by KiCad (PCBNEW 4.0.7) date Sunday, April 15, 2018 'PMt' 03:49:00 PM*
%MOMM*%
%LPD*%
G01*
G04 APERTURE LIST*
%ADD10C,0.100000*%
%ADD11C,1.600000*%
%ADD12R,1.700000X1.700000*%
%ADD13O,1.700000X1.700000*%
%ADD14R,1.800000X1.800000*%
%ADD15O,1.800000X1.800000*%
%ADD16O,0.900000X1.500000*%
%ADD17R,0.900000X1.500000*%
%ADD18R,1.600000X1.600000*%
%ADD19C,1.800000*%
%ADD20C,1.400000*%
%ADD21O,1.400000X1.400000*%
%ADD22C,1.700000*%
%ADD23C,0.600000*%
%ADD24C,0.250000*%
%ADD25C,0.550000*%
%ADD26C,0.254000*%
G04 APERTURE END LIST*
D10*
D11*
X112395000Y-76835000D03*
X114895000Y-76835000D03*
D12*
X100330000Y-60960000D03*
D13*
X100330000Y-63500000D03*
D12*
X100330000Y-72390000D03*
D13*
X100330000Y-69850000D03*
D14*
X111125000Y-49530000D03*
D15*
X113665000Y-49530000D03*
X116205000Y-49530000D03*
D16*
X113665000Y-82550000D03*
X114935000Y-82550000D03*
D17*
X112395000Y-82550000D03*
D18*
X102235000Y-41275000D03*
D11*
X104235000Y-41275000D03*
D14*
X104775000Y-83185000D03*
D19*
X107315000Y-83185000D03*
D12*
X122555000Y-92075000D03*
D13*
X122555000Y-89535000D03*
D12*
X118745000Y-92075000D03*
D13*
X118745000Y-89535000D03*
D20*
X100330000Y-83820000D03*
D21*
X100330000Y-78740000D03*
D20*
X116205000Y-71120000D03*
D21*
X116205000Y-66040000D03*
D20*
X125730000Y-55245000D03*
D21*
X125730000Y-50165000D03*
D11*
X113665000Y-53975000D03*
X111165000Y-53975000D03*
X102235000Y-36195000D03*
X104735000Y-36195000D03*
D18*
X121285000Y-44450000D03*
D11*
X123285000Y-44450000D03*
D12*
X103505000Y-92075000D03*
D13*
X103505000Y-89535000D03*
X106045000Y-92075000D03*
X106045000Y-89535000D03*
X108585000Y-92075000D03*
X108585000Y-89535000D03*
X111125000Y-92075000D03*
X111125000Y-89535000D03*
X113665000Y-92075000D03*
X113665000Y-89535000D03*
D20*
X125095000Y-73025000D03*
D21*
X125095000Y-78105000D03*
D20*
X125730000Y-64135000D03*
D21*
X125730000Y-59055000D03*
D12*
X104775000Y-52705000D03*
D13*
X102235000Y-52705000D03*
D16*
X121920000Y-82550000D03*
X120650000Y-82550000D03*
D17*
X123190000Y-82550000D03*
D16*
X119380000Y-53975000D03*
X120650000Y-53975000D03*
D17*
X118110000Y-53975000D03*
D12*
X102235000Y-46990000D03*
D13*
X104775000Y-46990000D03*
X120410000Y-77470000D03*
X120410000Y-74930000D03*
X120410000Y-72390000D03*
X120410000Y-69850000D03*
X120410000Y-67310000D03*
X120410000Y-64770000D03*
X120410000Y-62230000D03*
D22*
X120410000Y-59690000D03*
D12*
X105410000Y-59690000D03*
D13*
X105410000Y-62230000D03*
X105410000Y-64770000D03*
X105410000Y-67310000D03*
X105410000Y-69850000D03*
X105410000Y-72390000D03*
X105410000Y-74930000D03*
X105410000Y-77470000D03*
D23*
X114935000Y-73660000D03*
X113665000Y-71120000D03*
D24*
X105410000Y-59690000D02*
X102235000Y-56515000D01*
X102235000Y-56515000D02*
X102235000Y-52705000D01*
X105410000Y-77470000D02*
X104140000Y-76200000D01*
X104140000Y-76200000D02*
X104140000Y-60960000D01*
X104140000Y-60960000D02*
X105410000Y-59690000D01*
X111165000Y-53975000D02*
X111125000Y-53975000D01*
X111125000Y-53975000D02*
X113665000Y-51435000D01*
X113665000Y-51435000D02*
X113665000Y-49530000D01*
X113665000Y-82550000D02*
X113665000Y-89535000D01*
X104235000Y-41275000D02*
X104140000Y-41275000D01*
X104140000Y-41275000D02*
X104775000Y-40640000D01*
X104775000Y-40640000D02*
X104775000Y-36195000D01*
X104775000Y-36195000D02*
X104735000Y-36195000D01*
X116205000Y-66040000D02*
X116205000Y-64135000D01*
X116205000Y-64135000D02*
X114300000Y-62230000D01*
X114300000Y-62230000D02*
X114300000Y-54610000D01*
X114300000Y-54610000D02*
X113665000Y-53975000D01*
D25*
X113665000Y-92075000D02*
X114300000Y-92075000D01*
X114300000Y-92075000D02*
X116205000Y-90170000D01*
X116205000Y-83820000D02*
X114935000Y-82550000D01*
X116205000Y-90170000D02*
X116205000Y-83820000D01*
X113665000Y-63500000D02*
X113665000Y-66675000D01*
X113665000Y-66675000D02*
X105410000Y-74930000D01*
X105410000Y-74930000D02*
X106045000Y-74930000D01*
X106045000Y-74930000D02*
X111125000Y-80010000D01*
X111125000Y-80010000D02*
X113665000Y-80010000D01*
X113665000Y-80010000D02*
X114935000Y-81280000D01*
X114935000Y-81280000D02*
X114935000Y-82550000D01*
X105410000Y-62230000D02*
X112395000Y-62230000D01*
X112395000Y-62230000D02*
X113665000Y-63500000D01*
X113665000Y-53975000D02*
X113665000Y-63500000D01*
X117475000Y-67310000D02*
X120410000Y-67310000D01*
X113665000Y-63500000D02*
X117475000Y-67310000D01*
X116205000Y-49530000D02*
X116205000Y-51435000D01*
X116205000Y-51435000D02*
X113665000Y-53975000D01*
X121285000Y-44450000D02*
X121285000Y-46990000D01*
X124460000Y-50165000D02*
X125730000Y-50165000D01*
X121285000Y-46990000D02*
X124460000Y-50165000D01*
X121285000Y-44450000D02*
X116205000Y-49530000D01*
X111125000Y-92075000D02*
X113665000Y-92075000D01*
D24*
X108585000Y-92075000D02*
X109855000Y-90805000D01*
X112395000Y-84455000D02*
X112395000Y-82550000D01*
X109855000Y-86995000D02*
X112395000Y-84455000D01*
X109855000Y-90805000D02*
X109855000Y-86995000D01*
X107315000Y-83185000D02*
X111760000Y-83185000D01*
X111760000Y-83185000D02*
X112395000Y-82550000D01*
X120410000Y-74930000D02*
X120650000Y-74930000D01*
X120650000Y-74930000D02*
X119380000Y-76200000D01*
X119380000Y-76200000D02*
X118745000Y-76200000D01*
X118745000Y-76200000D02*
X118745000Y-78740000D01*
X118745000Y-78740000D02*
X119380000Y-79375000D01*
X119380000Y-79375000D02*
X119380000Y-83820000D01*
X119380000Y-83820000D02*
X121285000Y-85725000D01*
X121285000Y-85725000D02*
X121285000Y-90805000D01*
X121285000Y-90805000D02*
X122555000Y-92075000D01*
X125095000Y-73025000D02*
X126365000Y-74295000D01*
X126365000Y-74295000D02*
X126365000Y-79375000D01*
X126365000Y-79375000D02*
X124460000Y-81280000D01*
X124460000Y-81280000D02*
X124460000Y-83820000D01*
X124460000Y-83820000D02*
X122555000Y-85725000D01*
X122555000Y-85725000D02*
X122555000Y-89535000D01*
X114935000Y-73660000D02*
X118110000Y-76835000D01*
X118110000Y-76835000D02*
X118110000Y-80010000D01*
X118110000Y-80010000D02*
X118745000Y-80645000D01*
X118745000Y-80645000D02*
X118745000Y-85090000D01*
X118745000Y-85090000D02*
X120015000Y-86360000D01*
X120015000Y-86360000D02*
X120015000Y-90805000D01*
X120015000Y-90805000D02*
X118745000Y-92075000D01*
X118745000Y-89535000D02*
X116840000Y-87630000D01*
X116840000Y-87630000D02*
X116840000Y-82550000D01*
X116840000Y-82550000D02*
X116205000Y-81915000D01*
X116205000Y-81915000D02*
X116205000Y-81280000D01*
X116205000Y-81280000D02*
X115570000Y-80645000D01*
X115570000Y-80645000D02*
X115570000Y-80010000D01*
X115570000Y-80010000D02*
X113665000Y-78105000D01*
X113665000Y-78105000D02*
X113665000Y-71120000D01*
X120650000Y-82550000D02*
X120650000Y-81280000D01*
X120650000Y-81280000D02*
X121920000Y-80010000D01*
X121920000Y-80010000D02*
X121920000Y-71120000D01*
X121920000Y-71120000D02*
X120650000Y-69850000D01*
X120650000Y-69850000D02*
X120410000Y-69850000D01*
X120410000Y-64770000D02*
X120650000Y-64770000D01*
X120650000Y-64770000D02*
X121920000Y-63500000D01*
X121920000Y-63500000D02*
X121920000Y-58420000D01*
X121920000Y-58420000D02*
X120650000Y-57150000D01*
X120650000Y-57150000D02*
X120650000Y-53975000D01*
X121920000Y-82550000D02*
X121920000Y-81280000D01*
X121920000Y-81280000D02*
X122555000Y-81280000D01*
X122555000Y-81280000D02*
X125095000Y-78740000D01*
X125095000Y-78740000D02*
X125095000Y-78105000D01*
D25*
X102235000Y-46990000D02*
X102235000Y-46355000D01*
X102235000Y-46355000D02*
X104140000Y-44450000D01*
X106045000Y-44450000D02*
X111125000Y-49530000D01*
X104140000Y-44450000D02*
X106045000Y-44450000D01*
X102235000Y-46990000D02*
X102235000Y-41275000D01*
X102235000Y-41275000D02*
X102235000Y-36195000D01*
X103505000Y-92075000D02*
X102235000Y-92075000D01*
X97790000Y-51435000D02*
X102235000Y-46990000D01*
X97790000Y-87630000D02*
X97790000Y-51435000D01*
X102235000Y-92075000D02*
X97790000Y-87630000D01*
X106045000Y-92075000D02*
X103505000Y-92075000D01*
X104775000Y-46990000D02*
X104775000Y-52705000D01*
D26*
G36*
X130100000Y-97715000D02*
X96595000Y-97715000D01*
X96595000Y-95593599D01*
X97324699Y-95593599D01*
X97588281Y-96231515D01*
X98075918Y-96720004D01*
X98713373Y-96984699D01*
X99403599Y-96985301D01*
X100041515Y-96721719D01*
X100530004Y-96234082D01*
X100794699Y-95596627D01*
X100794701Y-95593599D01*
X125899699Y-95593599D01*
X126163281Y-96231515D01*
X126650918Y-96720004D01*
X127288373Y-96984699D01*
X127978599Y-96985301D01*
X128616515Y-96721719D01*
X129105004Y-96234082D01*
X129369699Y-95596627D01*
X129370301Y-94906401D01*
X129106719Y-94268485D01*
X128619082Y-93779996D01*
X127981627Y-93515301D01*
X127291401Y-93514699D01*
X126653485Y-93778281D01*
X126164996Y-94265918D01*
X125900301Y-94903373D01*
X125899699Y-95593599D01*
X100794701Y-95593599D01*
X100795301Y-94906401D01*
X100531719Y-94268485D01*
X100044082Y-93779996D01*
X99406627Y-93515301D01*
X98716401Y-93514699D01*
X98078485Y-93778281D01*
X97589996Y-94265918D01*
X97325301Y-94903373D01*
X97324699Y-95593599D01*
X96595000Y-95593599D01*
X96595000Y-51435000D01*
X96880000Y-51435000D01*
X96880000Y-87630000D01*
X96949270Y-87978242D01*
X97146533Y-88273467D01*
X101591533Y-92718467D01*
X101886758Y-92915730D01*
X102010445Y-92940333D01*
X102051838Y-93160317D01*
X102190910Y-93376441D01*
X102403110Y-93521431D01*
X102655000Y-93572440D01*
X104355000Y-93572440D01*
X104590317Y-93528162D01*
X104806441Y-93389090D01*
X104951431Y-93176890D01*
X104965086Y-93109459D01*
X104994946Y-93154147D01*
X105476715Y-93476054D01*
X106045000Y-93589093D01*
X106613285Y-93476054D01*
X107095054Y-93154147D01*
X107315000Y-92824974D01*
X107534946Y-93154147D01*
X108016715Y-93476054D01*
X108585000Y-93589093D01*
X109153285Y-93476054D01*
X109635054Y-93154147D01*
X109855000Y-92824974D01*
X110074946Y-93154147D01*
X110556715Y-93476054D01*
X111125000Y-93589093D01*
X111693285Y-93476054D01*
X112175054Y-93154147D01*
X112288074Y-92985000D01*
X112501926Y-92985000D01*
X112614946Y-93154147D01*
X113096715Y-93476054D01*
X113665000Y-93589093D01*
X114233285Y-93476054D01*
X114715054Y-93154147D01*
X115036961Y-92672378D01*
X115048732Y-92613202D01*
X116848467Y-90813467D01*
X116941692Y-90673946D01*
X117045730Y-90518242D01*
X117115000Y-90170000D01*
X117115000Y-88979802D01*
X117303790Y-89168592D01*
X117230907Y-89535000D01*
X117343946Y-90103285D01*
X117665853Y-90585054D01*
X117707452Y-90612850D01*
X117659683Y-90621838D01*
X117443559Y-90760910D01*
X117298569Y-90973110D01*
X117247560Y-91225000D01*
X117247560Y-92925000D01*
X117291838Y-93160317D01*
X117430910Y-93376441D01*
X117643110Y-93521431D01*
X117895000Y-93572440D01*
X119595000Y-93572440D01*
X119830317Y-93528162D01*
X120046441Y-93389090D01*
X120191431Y-93176890D01*
X120242440Y-92925000D01*
X120242440Y-91652362D01*
X120552401Y-91342401D01*
X120650000Y-91196334D01*
X120747599Y-91342401D01*
X121057560Y-91652362D01*
X121057560Y-92925000D01*
X121101838Y-93160317D01*
X121240910Y-93376441D01*
X121453110Y-93521431D01*
X121705000Y-93572440D01*
X123405000Y-93572440D01*
X123640317Y-93528162D01*
X123856441Y-93389090D01*
X124001431Y-93176890D01*
X124052440Y-92925000D01*
X124052440Y-91225000D01*
X124008162Y-90989683D01*
X123869090Y-90773559D01*
X123656890Y-90628569D01*
X123589459Y-90614914D01*
X123634147Y-90585054D01*
X123956054Y-90103285D01*
X124069093Y-89535000D01*
X123956054Y-88966715D01*
X123634147Y-88484946D01*
X123315000Y-88271699D01*
X123315000Y-86039802D01*
X124997401Y-84357401D01*
X125162148Y-84110839D01*
X125220000Y-83820000D01*
X125220000Y-81594802D01*
X126902401Y-79912401D01*
X127067148Y-79665839D01*
X127125000Y-79375000D01*
X127125000Y-74295000D01*
X127097633Y-74157418D01*
X127067148Y-74004160D01*
X126902401Y-73757599D01*
X126429774Y-73284972D01*
X126430231Y-72760617D01*
X126227418Y-72269771D01*
X125852204Y-71893902D01*
X125361713Y-71690232D01*
X124830617Y-71689769D01*
X124339771Y-71892582D01*
X123963902Y-72267796D01*
X123760232Y-72758287D01*
X123759769Y-73289383D01*
X123962582Y-73780229D01*
X124337796Y-74156098D01*
X124828287Y-74359768D01*
X125355426Y-74360228D01*
X125605000Y-74609802D01*
X125605000Y-76845292D01*
X125095000Y-76743846D01*
X124584118Y-76845467D01*
X124151012Y-77134858D01*
X123861621Y-77567964D01*
X123760000Y-78078846D01*
X123760000Y-78131154D01*
X123861621Y-78642036D01*
X123964377Y-78795821D01*
X122662570Y-80097628D01*
X122680000Y-80010000D01*
X122680000Y-71120000D01*
X122644905Y-70943569D01*
X122622148Y-70829160D01*
X122457401Y-70582599D01*
X121891028Y-70016226D01*
X121924093Y-69850000D01*
X121811054Y-69281715D01*
X121489147Y-68799946D01*
X121159974Y-68580000D01*
X121489147Y-68360054D01*
X121811054Y-67878285D01*
X121924093Y-67310000D01*
X121811054Y-66741715D01*
X121489147Y-66259946D01*
X121159974Y-66040000D01*
X121489147Y-65820054D01*
X121811054Y-65338285D01*
X121924093Y-64770000D01*
X121891028Y-64603774D01*
X122095419Y-64399383D01*
X124394769Y-64399383D01*
X124597582Y-64890229D01*
X124972796Y-65266098D01*
X125463287Y-65469768D01*
X125994383Y-65470231D01*
X126485229Y-65267418D01*
X126861098Y-64892204D01*
X127064768Y-64401713D01*
X127065231Y-63870617D01*
X126862418Y-63379771D01*
X126487204Y-63003902D01*
X125996713Y-62800232D01*
X125465617Y-62799769D01*
X124974771Y-63002582D01*
X124598902Y-63377796D01*
X124395232Y-63868287D01*
X124394769Y-64399383D01*
X122095419Y-64399383D01*
X122457401Y-64037401D01*
X122622148Y-63790840D01*
X122680000Y-63500000D01*
X122680000Y-59028846D01*
X124395000Y-59028846D01*
X124395000Y-59081154D01*
X124496621Y-59592036D01*
X124786012Y-60025142D01*
X125219118Y-60314533D01*
X125730000Y-60416154D01*
X126240882Y-60314533D01*
X126673988Y-60025142D01*
X126963379Y-59592036D01*
X127065000Y-59081154D01*
X127065000Y-59028846D01*
X126963379Y-58517964D01*
X126673988Y-58084858D01*
X126240882Y-57795467D01*
X125730000Y-57693846D01*
X125219118Y-57795467D01*
X124786012Y-58084858D01*
X124496621Y-58517964D01*
X124395000Y-59028846D01*
X122680000Y-59028846D01*
X122680000Y-58420000D01*
X122637285Y-58205258D01*
X122622148Y-58129160D01*
X122457401Y-57882599D01*
X121410000Y-56835198D01*
X121410000Y-55509383D01*
X124394769Y-55509383D01*
X124597582Y-56000229D01*
X124972796Y-56376098D01*
X125463287Y-56579768D01*
X125994383Y-56580231D01*
X126485229Y-56377418D01*
X126861098Y-56002204D01*
X127064768Y-55511713D01*
X127065231Y-54980617D01*
X126862418Y-54489771D01*
X126487204Y-54113902D01*
X125996713Y-53910232D01*
X125465617Y-53909769D01*
X124974771Y-54112582D01*
X124598902Y-54487796D01*
X124395232Y-54978287D01*
X124394769Y-55509383D01*
X121410000Y-55509383D01*
X121410000Y-55074163D01*
X121417211Y-55069345D01*
X121652409Y-54717346D01*
X121735000Y-54302134D01*
X121735000Y-53647866D01*
X121652409Y-53232654D01*
X121417211Y-52880655D01*
X121065212Y-52645457D01*
X120650000Y-52562866D01*
X120234788Y-52645457D01*
X120015000Y-52792315D01*
X119795212Y-52645457D01*
X119380000Y-52562866D01*
X118964788Y-52645457D01*
X118909454Y-52682430D01*
X118686309Y-52590000D01*
X118395750Y-52590000D01*
X118237000Y-52748750D01*
X118237000Y-53848000D01*
X118257000Y-53848000D01*
X118257000Y-54102000D01*
X118237000Y-54102000D01*
X118237000Y-55201250D01*
X118395750Y-55360000D01*
X118686309Y-55360000D01*
X118909454Y-55267570D01*
X118964788Y-55304543D01*
X119380000Y-55387134D01*
X119795212Y-55304543D01*
X119890000Y-55241208D01*
X119890000Y-57150000D01*
X119947852Y-57440839D01*
X120112599Y-57687401D01*
X120630389Y-58205191D01*
X120115911Y-58204743D01*
X119569914Y-58430344D01*
X119151812Y-58847717D01*
X118925258Y-59393319D01*
X118924743Y-59984089D01*
X119150344Y-60530086D01*
X119567717Y-60948188D01*
X119635550Y-60976355D01*
X119330853Y-61179946D01*
X119008946Y-61661715D01*
X118895907Y-62230000D01*
X119008946Y-62798285D01*
X119330853Y-63280054D01*
X119660026Y-63500000D01*
X119330853Y-63719946D01*
X119008946Y-64201715D01*
X118895907Y-64770000D01*
X119008946Y-65338285D01*
X119330853Y-65820054D01*
X119660026Y-66040000D01*
X119330853Y-66259946D01*
X119237272Y-66400000D01*
X117851934Y-66400000D01*
X117536365Y-66084431D01*
X117540000Y-66066154D01*
X117540000Y-66013846D01*
X117438379Y-65502964D01*
X117148988Y-65069858D01*
X116965000Y-64946922D01*
X116965000Y-64135000D01*
X116907148Y-63844161D01*
X116742401Y-63597599D01*
X115060000Y-61915198D01*
X115060000Y-54610000D01*
X115026031Y-54439227D01*
X115099750Y-54261691D01*
X115099750Y-54260750D01*
X117025000Y-54260750D01*
X117025000Y-54851310D01*
X117121673Y-55084699D01*
X117300302Y-55263327D01*
X117533691Y-55360000D01*
X117824250Y-55360000D01*
X117983000Y-55201250D01*
X117983000Y-54102000D01*
X117183750Y-54102000D01*
X117025000Y-54260750D01*
X115099750Y-54260750D01*
X115100129Y-53826805D01*
X115828244Y-53098690D01*
X117025000Y-53098690D01*
X117025000Y-53689250D01*
X117183750Y-53848000D01*
X117983000Y-53848000D01*
X117983000Y-52748750D01*
X117824250Y-52590000D01*
X117533691Y-52590000D01*
X117300302Y-52686673D01*
X117121673Y-52865301D01*
X117025000Y-53098690D01*
X115828244Y-53098690D01*
X116848467Y-52078467D01*
X117045730Y-51783242D01*
X117078264Y-51619683D01*
X117115000Y-51435000D01*
X117115000Y-50752707D01*
X117320481Y-50615409D01*
X117653227Y-50117419D01*
X117770072Y-49530000D01*
X117723926Y-49298008D01*
X120375000Y-46646934D01*
X120375000Y-46990000D01*
X120444270Y-47338242D01*
X120641533Y-47633467D01*
X123816533Y-50808467D01*
X124111758Y-51005730D01*
X124460000Y-51075000D01*
X124745827Y-51075000D01*
X124786012Y-51135142D01*
X125219118Y-51424533D01*
X125730000Y-51526154D01*
X126240882Y-51424533D01*
X126673988Y-51135142D01*
X126963379Y-50702036D01*
X127065000Y-50191154D01*
X127065000Y-50138846D01*
X126963379Y-49627964D01*
X126673988Y-49194858D01*
X126240882Y-48905467D01*
X125730000Y-48803846D01*
X125219118Y-48905467D01*
X124786012Y-49194858D01*
X124782319Y-49200385D01*
X122195000Y-46613066D01*
X122195000Y-45876742D01*
X122320317Y-45853162D01*
X122536441Y-45714090D01*
X122540977Y-45707452D01*
X123068223Y-45896965D01*
X123638454Y-45869778D01*
X124039005Y-45703864D01*
X124113139Y-45457745D01*
X123285000Y-44629605D01*
X123270858Y-44643748D01*
X123091253Y-44464143D01*
X123105395Y-44450000D01*
X123464605Y-44450000D01*
X124292745Y-45278139D01*
X124538864Y-45204005D01*
X124731965Y-44666777D01*
X124704778Y-44096546D01*
X124538864Y-43695995D01*
X124292745Y-43621861D01*
X123464605Y-44450000D01*
X123105395Y-44450000D01*
X123091253Y-44435858D01*
X123270858Y-44256252D01*
X123285000Y-44270395D01*
X124113139Y-43442255D01*
X124039005Y-43196136D01*
X123501777Y-43003035D01*
X122931546Y-43030222D01*
X122540053Y-43192384D01*
X122336890Y-43053569D01*
X122085000Y-43002560D01*
X120485000Y-43002560D01*
X120249683Y-43046838D01*
X120033559Y-43185910D01*
X119888569Y-43398110D01*
X119837560Y-43650000D01*
X119837560Y-44610506D01*
X116416898Y-48031168D01*
X116235072Y-47995000D01*
X116174928Y-47995000D01*
X115587509Y-48111845D01*
X115089519Y-48444591D01*
X114930499Y-48682582D01*
X114572576Y-48292034D01*
X114029742Y-48038954D01*
X113792000Y-48159003D01*
X113792000Y-49403000D01*
X113812000Y-49403000D01*
X113812000Y-49657000D01*
X113792000Y-49657000D01*
X113792000Y-50900997D01*
X114029742Y-51021046D01*
X114572576Y-50767966D01*
X114930499Y-50377418D01*
X115089519Y-50615409D01*
X115295000Y-50752707D01*
X115295000Y-51058066D01*
X113812937Y-52540129D01*
X113380813Y-52539752D01*
X112853200Y-52757757D01*
X112449176Y-53161077D01*
X112421577Y-53227544D01*
X112418864Y-53220995D01*
X112172745Y-53146861D01*
X111344605Y-53975000D01*
X112172745Y-54803139D01*
X112418864Y-54729005D01*
X112421196Y-54722517D01*
X112447757Y-54786800D01*
X112755000Y-55094579D01*
X112755000Y-61397126D01*
X112743242Y-61389270D01*
X112395000Y-61320000D01*
X106582728Y-61320000D01*
X106489147Y-61179946D01*
X106445223Y-61150597D01*
X106619698Y-61078327D01*
X106798327Y-60899699D01*
X106895000Y-60666310D01*
X106895000Y-59975750D01*
X106736250Y-59817000D01*
X105537000Y-59817000D01*
X105537000Y-59837000D01*
X105283000Y-59837000D01*
X105283000Y-59817000D01*
X104083750Y-59817000D01*
X103925000Y-59975750D01*
X103925000Y-60666310D01*
X104021673Y-60899699D01*
X104200302Y-61078327D01*
X104374777Y-61150597D01*
X104330853Y-61179946D01*
X104008946Y-61661715D01*
X103895907Y-62230000D01*
X104008946Y-62798285D01*
X104330853Y-63280054D01*
X104660026Y-63500000D01*
X104330853Y-63719946D01*
X104008946Y-64201715D01*
X103895907Y-64770000D01*
X104008946Y-65338285D01*
X104330853Y-65820054D01*
X104660026Y-66040000D01*
X104330853Y-66259946D01*
X104008946Y-66741715D01*
X103895907Y-67310000D01*
X104008946Y-67878285D01*
X104330853Y-68360054D01*
X104660026Y-68580000D01*
X104330853Y-68799946D01*
X104008946Y-69281715D01*
X103895907Y-69850000D01*
X104008946Y-70418285D01*
X104330853Y-70900054D01*
X104660026Y-71120000D01*
X104330853Y-71339946D01*
X104008946Y-71821715D01*
X103895907Y-72390000D01*
X104008946Y-72958285D01*
X104330853Y-73440054D01*
X104660026Y-73660000D01*
X104330853Y-73879946D01*
X104008946Y-74361715D01*
X103895907Y-74930000D01*
X104008946Y-75498285D01*
X104330853Y-75980054D01*
X104671553Y-76207702D01*
X104528642Y-76274817D01*
X104138355Y-76703076D01*
X103968524Y-77113110D01*
X104089845Y-77343000D01*
X105283000Y-77343000D01*
X105283000Y-77323000D01*
X105537000Y-77323000D01*
X105537000Y-77343000D01*
X106730155Y-77343000D01*
X106851476Y-77113110D01*
X106788055Y-76959989D01*
X110481533Y-80653467D01*
X110776758Y-80850730D01*
X111125000Y-80920000D01*
X113288066Y-80920000D01*
X113537998Y-81169932D01*
X113537998Y-81332496D01*
X113370999Y-81205592D01*
X113212925Y-81282853D01*
X113096890Y-81203569D01*
X112845000Y-81152560D01*
X111945000Y-81152560D01*
X111709683Y-81196838D01*
X111493559Y-81335910D01*
X111348569Y-81548110D01*
X111297560Y-81800000D01*
X111297560Y-82425000D01*
X108661846Y-82425000D01*
X108617068Y-82316629D01*
X108185643Y-81884449D01*
X107621670Y-81650267D01*
X107011009Y-81649735D01*
X106446629Y-81882932D01*
X106278387Y-82050880D01*
X106278162Y-82049683D01*
X106139090Y-81833559D01*
X105926890Y-81688569D01*
X105675000Y-81637560D01*
X103875000Y-81637560D01*
X103639683Y-81681838D01*
X103423559Y-81820910D01*
X103278569Y-82033110D01*
X103227560Y-82285000D01*
X103227560Y-84085000D01*
X103271838Y-84320317D01*
X103410910Y-84536441D01*
X103623110Y-84681431D01*
X103875000Y-84732440D01*
X105675000Y-84732440D01*
X105910317Y-84688162D01*
X106126441Y-84549090D01*
X106271431Y-84336890D01*
X106275567Y-84316466D01*
X106444357Y-84485551D01*
X107008330Y-84719733D01*
X107618991Y-84720265D01*
X108183371Y-84487068D01*
X108615551Y-84055643D01*
X108661494Y-83945000D01*
X111635000Y-83945000D01*
X111635000Y-84140198D01*
X109317599Y-86457599D01*
X109152852Y-86704161D01*
X109095000Y-86995000D01*
X109095000Y-88156940D01*
X108941890Y-88093524D01*
X108712000Y-88214845D01*
X108712000Y-89408000D01*
X108732000Y-89408000D01*
X108732000Y-89662000D01*
X108712000Y-89662000D01*
X108712000Y-89682000D01*
X108458000Y-89682000D01*
X108458000Y-89662000D01*
X106172000Y-89662000D01*
X106172000Y-89682000D01*
X105918000Y-89682000D01*
X105918000Y-89662000D01*
X103632000Y-89662000D01*
X103632000Y-89682000D01*
X103378000Y-89682000D01*
X103378000Y-89662000D01*
X102184181Y-89662000D01*
X102063514Y-89891892D01*
X102309817Y-90416358D01*
X102515504Y-90603808D01*
X102419683Y-90621838D01*
X102206166Y-90759232D01*
X100625042Y-89178108D01*
X102063514Y-89178108D01*
X102184181Y-89408000D01*
X103378000Y-89408000D01*
X103378000Y-88214845D01*
X103632000Y-88214845D01*
X103632000Y-89408000D01*
X105918000Y-89408000D01*
X105918000Y-88214845D01*
X106172000Y-88214845D01*
X106172000Y-89408000D01*
X108458000Y-89408000D01*
X108458000Y-88214845D01*
X108228110Y-88093524D01*
X107818076Y-88263355D01*
X107389817Y-88653642D01*
X107315000Y-88812954D01*
X107240183Y-88653642D01*
X106811924Y-88263355D01*
X106401890Y-88093524D01*
X106172000Y-88214845D01*
X105918000Y-88214845D01*
X105688110Y-88093524D01*
X105278076Y-88263355D01*
X104849817Y-88653642D01*
X104775000Y-88812954D01*
X104700183Y-88653642D01*
X104271924Y-88263355D01*
X103861890Y-88093524D01*
X103632000Y-88214845D01*
X103378000Y-88214845D01*
X103148110Y-88093524D01*
X102738076Y-88263355D01*
X102309817Y-88653642D01*
X102063514Y-89178108D01*
X100625042Y-89178108D01*
X98700000Y-87253066D01*
X98700000Y-84084383D01*
X98994769Y-84084383D01*
X99197582Y-84575229D01*
X99572796Y-84951098D01*
X100063287Y-85154768D01*
X100594383Y-85155231D01*
X101085229Y-84952418D01*
X101461098Y-84577204D01*
X101664768Y-84086713D01*
X101665231Y-83555617D01*
X101462418Y-83064771D01*
X101087204Y-82688902D01*
X100596713Y-82485232D01*
X100065617Y-82484769D01*
X99574771Y-82687582D01*
X99198902Y-83062796D01*
X98995232Y-83553287D01*
X98994769Y-84084383D01*
X98700000Y-84084383D01*
X98700000Y-79073331D01*
X99037273Y-79073331D01*
X99263236Y-79542663D01*
X99651604Y-79889797D01*
X99996671Y-80032716D01*
X100203000Y-79909374D01*
X100203000Y-78867000D01*
X100457000Y-78867000D01*
X100457000Y-79909374D01*
X100663329Y-80032716D01*
X101008396Y-79889797D01*
X101396764Y-79542663D01*
X101622727Y-79073331D01*
X101500206Y-78867000D01*
X100457000Y-78867000D01*
X100203000Y-78867000D01*
X99159794Y-78867000D01*
X99037273Y-79073331D01*
X98700000Y-79073331D01*
X98700000Y-78406669D01*
X99037273Y-78406669D01*
X99159794Y-78613000D01*
X100203000Y-78613000D01*
X100203000Y-77570626D01*
X100457000Y-77570626D01*
X100457000Y-78613000D01*
X101500206Y-78613000D01*
X101622727Y-78406669D01*
X101396764Y-77937337D01*
X101273198Y-77826890D01*
X103968524Y-77826890D01*
X104138355Y-78236924D01*
X104528642Y-78665183D01*
X105053108Y-78911486D01*
X105283000Y-78790819D01*
X105283000Y-77597000D01*
X105537000Y-77597000D01*
X105537000Y-78790819D01*
X105766892Y-78911486D01*
X106291358Y-78665183D01*
X106681645Y-78236924D01*
X106851476Y-77826890D01*
X106730155Y-77597000D01*
X105537000Y-77597000D01*
X105283000Y-77597000D01*
X104089845Y-77597000D01*
X103968524Y-77826890D01*
X101273198Y-77826890D01*
X101008396Y-77590203D01*
X100663329Y-77447284D01*
X100457000Y-77570626D01*
X100203000Y-77570626D01*
X99996671Y-77447284D01*
X99651604Y-77590203D01*
X99263236Y-77937337D01*
X99037273Y-78406669D01*
X98700000Y-78406669D01*
X98700000Y-69850000D01*
X98815907Y-69850000D01*
X98928946Y-70418285D01*
X99250853Y-70900054D01*
X99292452Y-70927850D01*
X99244683Y-70936838D01*
X99028559Y-71075910D01*
X98883569Y-71288110D01*
X98832560Y-71540000D01*
X98832560Y-73240000D01*
X98876838Y-73475317D01*
X99015910Y-73691441D01*
X99228110Y-73836431D01*
X99480000Y-73887440D01*
X101180000Y-73887440D01*
X101415317Y-73843162D01*
X101631441Y-73704090D01*
X101776431Y-73491890D01*
X101827440Y-73240000D01*
X101827440Y-71540000D01*
X101783162Y-71304683D01*
X101644090Y-71088559D01*
X101431890Y-70943569D01*
X101364459Y-70929914D01*
X101409147Y-70900054D01*
X101731054Y-70418285D01*
X101844093Y-69850000D01*
X101731054Y-69281715D01*
X101409147Y-68799946D01*
X100927378Y-68478039D01*
X100359093Y-68365000D01*
X100300907Y-68365000D01*
X99732622Y-68478039D01*
X99250853Y-68799946D01*
X98928946Y-69281715D01*
X98815907Y-69850000D01*
X98700000Y-69850000D01*
X98700000Y-63500000D01*
X98815907Y-63500000D01*
X98928946Y-64068285D01*
X99250853Y-64550054D01*
X99732622Y-64871961D01*
X100300907Y-64985000D01*
X100359093Y-64985000D01*
X100927378Y-64871961D01*
X101409147Y-64550054D01*
X101731054Y-64068285D01*
X101844093Y-63500000D01*
X101731054Y-62931715D01*
X101409147Y-62449946D01*
X101367548Y-62422150D01*
X101415317Y-62413162D01*
X101631441Y-62274090D01*
X101776431Y-62061890D01*
X101827440Y-61810000D01*
X101827440Y-60110000D01*
X101783162Y-59874683D01*
X101644090Y-59658559D01*
X101431890Y-59513569D01*
X101180000Y-59462560D01*
X99480000Y-59462560D01*
X99244683Y-59506838D01*
X99028559Y-59645910D01*
X98883569Y-59858110D01*
X98832560Y-60110000D01*
X98832560Y-61810000D01*
X98876838Y-62045317D01*
X99015910Y-62261441D01*
X99228110Y-62406431D01*
X99295541Y-62420086D01*
X99250853Y-62449946D01*
X98928946Y-62931715D01*
X98815907Y-63500000D01*
X98700000Y-63500000D01*
X98700000Y-58713690D01*
X103925000Y-58713690D01*
X103925000Y-59404250D01*
X104083750Y-59563000D01*
X105283000Y-59563000D01*
X105283000Y-58363750D01*
X105537000Y-58363750D01*
X105537000Y-59563000D01*
X106736250Y-59563000D01*
X106895000Y-59404250D01*
X106895000Y-58713690D01*
X106798327Y-58480301D01*
X106619698Y-58301673D01*
X106386309Y-58205000D01*
X105695750Y-58205000D01*
X105537000Y-58363750D01*
X105283000Y-58363750D01*
X105124250Y-58205000D01*
X104433691Y-58205000D01*
X104200302Y-58301673D01*
X104021673Y-58480301D01*
X103925000Y-58713690D01*
X98700000Y-58713690D01*
X98700000Y-54982745D01*
X110336861Y-54982745D01*
X110410995Y-55228864D01*
X110948223Y-55421965D01*
X111518454Y-55394778D01*
X111919005Y-55228864D01*
X111993139Y-54982745D01*
X111165000Y-54154605D01*
X110336861Y-54982745D01*
X98700000Y-54982745D01*
X98700000Y-53061892D01*
X100793514Y-53061892D01*
X101039817Y-53586358D01*
X101468076Y-53976645D01*
X101878110Y-54146476D01*
X102108000Y-54025155D01*
X102108000Y-52832000D01*
X100914181Y-52832000D01*
X100793514Y-53061892D01*
X98700000Y-53061892D01*
X98700000Y-52348108D01*
X100793514Y-52348108D01*
X100914181Y-52578000D01*
X102108000Y-52578000D01*
X102108000Y-51384845D01*
X101878110Y-51263524D01*
X101468076Y-51433355D01*
X101039817Y-51823642D01*
X100793514Y-52348108D01*
X98700000Y-52348108D01*
X98700000Y-51811934D01*
X102024494Y-48487440D01*
X103085000Y-48487440D01*
X103320317Y-48443162D01*
X103536441Y-48304090D01*
X103681431Y-48091890D01*
X103695086Y-48024459D01*
X103724946Y-48069147D01*
X103865000Y-48162728D01*
X103865000Y-51218850D01*
X103689683Y-51251838D01*
X103473559Y-51390910D01*
X103328569Y-51603110D01*
X103306699Y-51711107D01*
X103001924Y-51433355D01*
X102591890Y-51263524D01*
X102362000Y-51384845D01*
X102362000Y-52578000D01*
X102382000Y-52578000D01*
X102382000Y-52832000D01*
X102362000Y-52832000D01*
X102362000Y-54025155D01*
X102591890Y-54146476D01*
X103001924Y-53976645D01*
X103304937Y-53700499D01*
X103321838Y-53790317D01*
X103460910Y-54006441D01*
X103673110Y-54151431D01*
X103925000Y-54202440D01*
X105625000Y-54202440D01*
X105860317Y-54158162D01*
X106076441Y-54019090D01*
X106221431Y-53806890D01*
X106231286Y-53758223D01*
X109718035Y-53758223D01*
X109745222Y-54328454D01*
X109911136Y-54729005D01*
X110157255Y-54803139D01*
X110985395Y-53975000D01*
X110157255Y-53146861D01*
X109911136Y-53220995D01*
X109718035Y-53758223D01*
X106231286Y-53758223D01*
X106272440Y-53555000D01*
X106272440Y-52967255D01*
X110336861Y-52967255D01*
X111165000Y-53795395D01*
X111993139Y-52967255D01*
X111919005Y-52721136D01*
X111381777Y-52528035D01*
X110811546Y-52555222D01*
X110410995Y-52721136D01*
X110336861Y-52967255D01*
X106272440Y-52967255D01*
X106272440Y-51855000D01*
X106228162Y-51619683D01*
X106089090Y-51403559D01*
X105876890Y-51258569D01*
X105685000Y-51219710D01*
X105685000Y-48162728D01*
X105825054Y-48069147D01*
X106146961Y-47587378D01*
X106260000Y-47019093D01*
X106260000Y-46960907D01*
X106146961Y-46392622D01*
X105825054Y-45910853D01*
X105343285Y-45588946D01*
X104775000Y-45475907D01*
X104308168Y-45568766D01*
X104516934Y-45360000D01*
X105668066Y-45360000D01*
X109577560Y-49269494D01*
X109577560Y-50430000D01*
X109621838Y-50665317D01*
X109760910Y-50881441D01*
X109973110Y-51026431D01*
X110225000Y-51077440D01*
X112025000Y-51077440D01*
X112260317Y-51033162D01*
X112476441Y-50894090D01*
X112621431Y-50681890D01*
X112631766Y-50630854D01*
X112757424Y-50767966D01*
X113300258Y-51021046D01*
X113538000Y-50900997D01*
X113538000Y-49657000D01*
X113518000Y-49657000D01*
X113518000Y-49403000D01*
X113538000Y-49403000D01*
X113538000Y-48159003D01*
X113300258Y-48038954D01*
X112757424Y-48292034D01*
X112634156Y-48426538D01*
X112628162Y-48394683D01*
X112489090Y-48178559D01*
X112276890Y-48033569D01*
X112025000Y-47982560D01*
X110864494Y-47982560D01*
X106688467Y-43806533D01*
X106393242Y-43609270D01*
X106045000Y-43540000D01*
X104140000Y-43540000D01*
X103791758Y-43609270D01*
X103661965Y-43695995D01*
X103496533Y-43806533D01*
X103145000Y-44158066D01*
X103145000Y-42701742D01*
X103270317Y-42678162D01*
X103486441Y-42539090D01*
X103490977Y-42532452D01*
X104018223Y-42721965D01*
X104588454Y-42694778D01*
X104989005Y-42528864D01*
X105063139Y-42282745D01*
X104235000Y-41454605D01*
X104220858Y-41468748D01*
X104041253Y-41289143D01*
X104055395Y-41275000D01*
X104414605Y-41275000D01*
X105242745Y-42103139D01*
X105488864Y-42029005D01*
X105681965Y-41491777D01*
X105654778Y-40921546D01*
X105488864Y-40520995D01*
X105242745Y-40446861D01*
X104414605Y-41275000D01*
X104055395Y-41275000D01*
X104041253Y-41260858D01*
X104220858Y-41081252D01*
X104235000Y-41095395D01*
X105063139Y-40267255D01*
X104989005Y-40021136D01*
X104451777Y-39828035D01*
X103881546Y-39855222D01*
X103490053Y-40017384D01*
X103286890Y-39878569D01*
X103145000Y-39849836D01*
X103145000Y-37314214D01*
X103256663Y-37202745D01*
X103906861Y-37202745D01*
X103980995Y-37448864D01*
X104518223Y-37641965D01*
X105088454Y-37614778D01*
X105489005Y-37448864D01*
X105563139Y-37202745D01*
X104735000Y-36374605D01*
X103906861Y-37202745D01*
X103256663Y-37202745D01*
X103450824Y-37008923D01*
X103478423Y-36942456D01*
X103481136Y-36949005D01*
X103727255Y-37023139D01*
X104555395Y-36195000D01*
X104914605Y-36195000D01*
X105742745Y-37023139D01*
X105988864Y-36949005D01*
X106181965Y-36411777D01*
X106154778Y-35841546D01*
X105988864Y-35440995D01*
X105742745Y-35366861D01*
X104914605Y-36195000D01*
X104555395Y-36195000D01*
X103727255Y-35366861D01*
X103481136Y-35440995D01*
X103478804Y-35447483D01*
X103452243Y-35383200D01*
X103256640Y-35187255D01*
X103906861Y-35187255D01*
X104735000Y-36015395D01*
X105563139Y-35187255D01*
X105489005Y-34941136D01*
X104951777Y-34748035D01*
X104381546Y-34775222D01*
X103980995Y-34941136D01*
X103906861Y-35187255D01*
X103256640Y-35187255D01*
X103048923Y-34979176D01*
X102521691Y-34760250D01*
X101950813Y-34759752D01*
X101423200Y-34977757D01*
X101019176Y-35381077D01*
X100800250Y-35908309D01*
X100799752Y-36479187D01*
X101017757Y-37006800D01*
X101325000Y-37314579D01*
X101325000Y-39848258D01*
X101199683Y-39871838D01*
X100983559Y-40010910D01*
X100838569Y-40223110D01*
X100787560Y-40475000D01*
X100787560Y-42075000D01*
X100831838Y-42310317D01*
X100970910Y-42526441D01*
X101183110Y-42671431D01*
X101325000Y-42700164D01*
X101325000Y-45503850D01*
X101149683Y-45536838D01*
X100933559Y-45675910D01*
X100788569Y-45888110D01*
X100737560Y-46140000D01*
X100737560Y-47200506D01*
X97146533Y-50791533D01*
X96949270Y-51086758D01*
X96880000Y-51435000D01*
X96595000Y-51435000D01*
X96595000Y-32728599D01*
X97324699Y-32728599D01*
X97588281Y-33366515D01*
X98075918Y-33855004D01*
X98713373Y-34119699D01*
X99403599Y-34120301D01*
X100041515Y-33856719D01*
X100530004Y-33369082D01*
X100737241Y-32870000D01*
X111233275Y-32870000D01*
X111414822Y-33782700D01*
X111931825Y-34556450D01*
X112705575Y-35073453D01*
X113618275Y-35255000D01*
X113711725Y-35255000D01*
X114624425Y-35073453D01*
X115398175Y-34556450D01*
X115915178Y-33782700D01*
X116096725Y-32870000D01*
X116068599Y-32728599D01*
X125899699Y-32728599D01*
X126163281Y-33366515D01*
X126650918Y-33855004D01*
X127288373Y-34119699D01*
X127978599Y-34120301D01*
X128616515Y-33856719D01*
X129105004Y-33369082D01*
X129369699Y-32731627D01*
X129370301Y-32041401D01*
X129106719Y-31403485D01*
X128619082Y-30914996D01*
X127981627Y-30650301D01*
X127291401Y-30649699D01*
X126653485Y-30913281D01*
X126164996Y-31400918D01*
X125900301Y-32038373D01*
X125899699Y-32728599D01*
X116068599Y-32728599D01*
X115915178Y-31957300D01*
X115398175Y-31183550D01*
X114624425Y-30666547D01*
X113711725Y-30485000D01*
X113618275Y-30485000D01*
X112705575Y-30666547D01*
X111931825Y-31183550D01*
X111414822Y-31957300D01*
X111233275Y-32870000D01*
X100737241Y-32870000D01*
X100794699Y-32731627D01*
X100795301Y-32041401D01*
X100531719Y-31403485D01*
X100044082Y-30914996D01*
X99406627Y-30650301D01*
X98716401Y-30649699D01*
X98078485Y-30913281D01*
X97589996Y-31400918D01*
X97325301Y-32038373D01*
X97324699Y-32728599D01*
X96595000Y-32728599D01*
X96595000Y-29920000D01*
X130100000Y-29920000D01*
X130100000Y-97715000D01*
X130100000Y-97715000D01*
G37*
X130100000Y-97715000D02*
X96595000Y-97715000D01*
X96595000Y-95593599D01*
X97324699Y-95593599D01*
X97588281Y-96231515D01*
X98075918Y-96720004D01*
X98713373Y-96984699D01*
X99403599Y-96985301D01*
X100041515Y-96721719D01*
X100530004Y-96234082D01*
X100794699Y-95596627D01*
X100794701Y-95593599D01*
X125899699Y-95593599D01*
X126163281Y-96231515D01*
X126650918Y-96720004D01*
X127288373Y-96984699D01*
X127978599Y-96985301D01*
X128616515Y-96721719D01*
X129105004Y-96234082D01*
X129369699Y-95596627D01*
X129370301Y-94906401D01*
X129106719Y-94268485D01*
X128619082Y-93779996D01*
X127981627Y-93515301D01*
X127291401Y-93514699D01*
X126653485Y-93778281D01*
X126164996Y-94265918D01*
X125900301Y-94903373D01*
X125899699Y-95593599D01*
X100794701Y-95593599D01*
X100795301Y-94906401D01*
X100531719Y-94268485D01*
X100044082Y-93779996D01*
X99406627Y-93515301D01*
X98716401Y-93514699D01*
X98078485Y-93778281D01*
X97589996Y-94265918D01*
X97325301Y-94903373D01*
X97324699Y-95593599D01*
X96595000Y-95593599D01*
X96595000Y-51435000D01*
X96880000Y-51435000D01*
X96880000Y-87630000D01*
X96949270Y-87978242D01*
X97146533Y-88273467D01*
X101591533Y-92718467D01*
X101886758Y-92915730D01*
X102010445Y-92940333D01*
X102051838Y-93160317D01*
X102190910Y-93376441D01*
X102403110Y-93521431D01*
X102655000Y-93572440D01*
X104355000Y-93572440D01*
X104590317Y-93528162D01*
X104806441Y-93389090D01*
X104951431Y-93176890D01*
X104965086Y-93109459D01*
X104994946Y-93154147D01*
X105476715Y-93476054D01*
X106045000Y-93589093D01*
X106613285Y-93476054D01*
X107095054Y-93154147D01*
X107315000Y-92824974D01*
X107534946Y-93154147D01*
X108016715Y-93476054D01*
X108585000Y-93589093D01*
X109153285Y-93476054D01*
X109635054Y-93154147D01*
X109855000Y-92824974D01*
X110074946Y-93154147D01*
X110556715Y-93476054D01*
X111125000Y-93589093D01*
X111693285Y-93476054D01*
X112175054Y-93154147D01*
X112288074Y-92985000D01*
X112501926Y-92985000D01*
X112614946Y-93154147D01*
X113096715Y-93476054D01*
X113665000Y-93589093D01*
X114233285Y-93476054D01*
X114715054Y-93154147D01*
X115036961Y-92672378D01*
X115048732Y-92613202D01*
X116848467Y-90813467D01*
X116941692Y-90673946D01*
X117045730Y-90518242D01*
X117115000Y-90170000D01*
X117115000Y-88979802D01*
X117303790Y-89168592D01*
X117230907Y-89535000D01*
X117343946Y-90103285D01*
X117665853Y-90585054D01*
X117707452Y-90612850D01*
X117659683Y-90621838D01*
X117443559Y-90760910D01*
X117298569Y-90973110D01*
X117247560Y-91225000D01*
X117247560Y-92925000D01*
X117291838Y-93160317D01*
X117430910Y-93376441D01*
X117643110Y-93521431D01*
X117895000Y-93572440D01*
X119595000Y-93572440D01*
X119830317Y-93528162D01*
X120046441Y-93389090D01*
X120191431Y-93176890D01*
X120242440Y-92925000D01*
X120242440Y-91652362D01*
X120552401Y-91342401D01*
X120650000Y-91196334D01*
X120747599Y-91342401D01*
X121057560Y-91652362D01*
X121057560Y-92925000D01*
X121101838Y-93160317D01*
X121240910Y-93376441D01*
X121453110Y-93521431D01*
X121705000Y-93572440D01*
X123405000Y-93572440D01*
X123640317Y-93528162D01*
X123856441Y-93389090D01*
X124001431Y-93176890D01*
X124052440Y-92925000D01*
X124052440Y-91225000D01*
X124008162Y-90989683D01*
X123869090Y-90773559D01*
X123656890Y-90628569D01*
X123589459Y-90614914D01*
X123634147Y-90585054D01*
X123956054Y-90103285D01*
X124069093Y-89535000D01*
X123956054Y-88966715D01*
X123634147Y-88484946D01*
X123315000Y-88271699D01*
X123315000Y-86039802D01*
X124997401Y-84357401D01*
X125162148Y-84110839D01*
X125220000Y-83820000D01*
X125220000Y-81594802D01*
X126902401Y-79912401D01*
X127067148Y-79665839D01*
X127125000Y-79375000D01*
X127125000Y-74295000D01*
X127097633Y-74157418D01*
X127067148Y-74004160D01*
X126902401Y-73757599D01*
X126429774Y-73284972D01*
X126430231Y-72760617D01*
X126227418Y-72269771D01*
X125852204Y-71893902D01*
X125361713Y-71690232D01*
X124830617Y-71689769D01*
X124339771Y-71892582D01*
X123963902Y-72267796D01*
X123760232Y-72758287D01*
X123759769Y-73289383D01*
X123962582Y-73780229D01*
X124337796Y-74156098D01*
X124828287Y-74359768D01*
X125355426Y-74360228D01*
X125605000Y-74609802D01*
X125605000Y-76845292D01*
X125095000Y-76743846D01*
X124584118Y-76845467D01*
X124151012Y-77134858D01*
X123861621Y-77567964D01*
X123760000Y-78078846D01*
X123760000Y-78131154D01*
X123861621Y-78642036D01*
X123964377Y-78795821D01*
X122662570Y-80097628D01*
X122680000Y-80010000D01*
X122680000Y-71120000D01*
X122644905Y-70943569D01*
X122622148Y-70829160D01*
X122457401Y-70582599D01*
X121891028Y-70016226D01*
X121924093Y-69850000D01*
X121811054Y-69281715D01*
X121489147Y-68799946D01*
X121159974Y-68580000D01*
X121489147Y-68360054D01*
X121811054Y-67878285D01*
X121924093Y-67310000D01*
X121811054Y-66741715D01*
X121489147Y-66259946D01*
X121159974Y-66040000D01*
X121489147Y-65820054D01*
X121811054Y-65338285D01*
X121924093Y-64770000D01*
X121891028Y-64603774D01*
X122095419Y-64399383D01*
X124394769Y-64399383D01*
X124597582Y-64890229D01*
X124972796Y-65266098D01*
X125463287Y-65469768D01*
X125994383Y-65470231D01*
X126485229Y-65267418D01*
X126861098Y-64892204D01*
X127064768Y-64401713D01*
X127065231Y-63870617D01*
X126862418Y-63379771D01*
X126487204Y-63003902D01*
X125996713Y-62800232D01*
X125465617Y-62799769D01*
X124974771Y-63002582D01*
X124598902Y-63377796D01*
X124395232Y-63868287D01*
X124394769Y-64399383D01*
X122095419Y-64399383D01*
X122457401Y-64037401D01*
X122622148Y-63790840D01*
X122680000Y-63500000D01*
X122680000Y-59028846D01*
X124395000Y-59028846D01*
X124395000Y-59081154D01*
X124496621Y-59592036D01*
X124786012Y-60025142D01*
X125219118Y-60314533D01*
X125730000Y-60416154D01*
X126240882Y-60314533D01*
X126673988Y-60025142D01*
X126963379Y-59592036D01*
X127065000Y-59081154D01*
X127065000Y-59028846D01*
X126963379Y-58517964D01*
X126673988Y-58084858D01*
X126240882Y-57795467D01*
X125730000Y-57693846D01*
X125219118Y-57795467D01*
X124786012Y-58084858D01*
X124496621Y-58517964D01*
X124395000Y-59028846D01*
X122680000Y-59028846D01*
X122680000Y-58420000D01*
X122637285Y-58205258D01*
X122622148Y-58129160D01*
X122457401Y-57882599D01*
X121410000Y-56835198D01*
X121410000Y-55509383D01*
X124394769Y-55509383D01*
X124597582Y-56000229D01*
X124972796Y-56376098D01*
X125463287Y-56579768D01*
X125994383Y-56580231D01*
X126485229Y-56377418D01*
X126861098Y-56002204D01*
X127064768Y-55511713D01*
X127065231Y-54980617D01*
X126862418Y-54489771D01*
X126487204Y-54113902D01*
X125996713Y-53910232D01*
X125465617Y-53909769D01*
X124974771Y-54112582D01*
X124598902Y-54487796D01*
X124395232Y-54978287D01*
X124394769Y-55509383D01*
X121410000Y-55509383D01*
X121410000Y-55074163D01*
X121417211Y-55069345D01*
X121652409Y-54717346D01*
X121735000Y-54302134D01*
X121735000Y-53647866D01*
X121652409Y-53232654D01*
X121417211Y-52880655D01*
X121065212Y-52645457D01*
X120650000Y-52562866D01*
X120234788Y-52645457D01*
X120015000Y-52792315D01*
X119795212Y-52645457D01*
X119380000Y-52562866D01*
X118964788Y-52645457D01*
X118909454Y-52682430D01*
X118686309Y-52590000D01*
X118395750Y-52590000D01*
X118237000Y-52748750D01*
X118237000Y-53848000D01*
X118257000Y-53848000D01*
X118257000Y-54102000D01*
X118237000Y-54102000D01*
X118237000Y-55201250D01*
X118395750Y-55360000D01*
X118686309Y-55360000D01*
X118909454Y-55267570D01*
X118964788Y-55304543D01*
X119380000Y-55387134D01*
X119795212Y-55304543D01*
X119890000Y-55241208D01*
X119890000Y-57150000D01*
X119947852Y-57440839D01*
X120112599Y-57687401D01*
X120630389Y-58205191D01*
X120115911Y-58204743D01*
X119569914Y-58430344D01*
X119151812Y-58847717D01*
X118925258Y-59393319D01*
X118924743Y-59984089D01*
X119150344Y-60530086D01*
X119567717Y-60948188D01*
X119635550Y-60976355D01*
X119330853Y-61179946D01*
X119008946Y-61661715D01*
X118895907Y-62230000D01*
X119008946Y-62798285D01*
X119330853Y-63280054D01*
X119660026Y-63500000D01*
X119330853Y-63719946D01*
X119008946Y-64201715D01*
X118895907Y-64770000D01*
X119008946Y-65338285D01*
X119330853Y-65820054D01*
X119660026Y-66040000D01*
X119330853Y-66259946D01*
X119237272Y-66400000D01*
X117851934Y-66400000D01*
X117536365Y-66084431D01*
X117540000Y-66066154D01*
X117540000Y-66013846D01*
X117438379Y-65502964D01*
X117148988Y-65069858D01*
X116965000Y-64946922D01*
X116965000Y-64135000D01*
X116907148Y-63844161D01*
X116742401Y-63597599D01*
X115060000Y-61915198D01*
X115060000Y-54610000D01*
X115026031Y-54439227D01*
X115099750Y-54261691D01*
X115099750Y-54260750D01*
X117025000Y-54260750D01*
X117025000Y-54851310D01*
X117121673Y-55084699D01*
X117300302Y-55263327D01*
X117533691Y-55360000D01*
X117824250Y-55360000D01*
X117983000Y-55201250D01*
X117983000Y-54102000D01*
X117183750Y-54102000D01*
X117025000Y-54260750D01*
X115099750Y-54260750D01*
X115100129Y-53826805D01*
X115828244Y-53098690D01*
X117025000Y-53098690D01*
X117025000Y-53689250D01*
X117183750Y-53848000D01*
X117983000Y-53848000D01*
X117983000Y-52748750D01*
X117824250Y-52590000D01*
X117533691Y-52590000D01*
X117300302Y-52686673D01*
X117121673Y-52865301D01*
X117025000Y-53098690D01*
X115828244Y-53098690D01*
X116848467Y-52078467D01*
X117045730Y-51783242D01*
X117078264Y-51619683D01*
X117115000Y-51435000D01*
X117115000Y-50752707D01*
X117320481Y-50615409D01*
X117653227Y-50117419D01*
X117770072Y-49530000D01*
X117723926Y-49298008D01*
X120375000Y-46646934D01*
X120375000Y-46990000D01*
X120444270Y-47338242D01*
X120641533Y-47633467D01*
X123816533Y-50808467D01*
X124111758Y-51005730D01*
X124460000Y-51075000D01*
X124745827Y-51075000D01*
X124786012Y-51135142D01*
X125219118Y-51424533D01*
X125730000Y-51526154D01*
X126240882Y-51424533D01*
X126673988Y-51135142D01*
X126963379Y-50702036D01*
X127065000Y-50191154D01*
X127065000Y-50138846D01*
X126963379Y-49627964D01*
X126673988Y-49194858D01*
X126240882Y-48905467D01*
X125730000Y-48803846D01*
X125219118Y-48905467D01*
X124786012Y-49194858D01*
X124782319Y-49200385D01*
X122195000Y-46613066D01*
X122195000Y-45876742D01*
X122320317Y-45853162D01*
X122536441Y-45714090D01*
X122540977Y-45707452D01*
X123068223Y-45896965D01*
X123638454Y-45869778D01*
X124039005Y-45703864D01*
X124113139Y-45457745D01*
X123285000Y-44629605D01*
X123270858Y-44643748D01*
X123091253Y-44464143D01*
X123105395Y-44450000D01*
X123464605Y-44450000D01*
X124292745Y-45278139D01*
X124538864Y-45204005D01*
X124731965Y-44666777D01*
X124704778Y-44096546D01*
X124538864Y-43695995D01*
X124292745Y-43621861D01*
X123464605Y-44450000D01*
X123105395Y-44450000D01*
X123091253Y-44435858D01*
X123270858Y-44256252D01*
X123285000Y-44270395D01*
X124113139Y-43442255D01*
X124039005Y-43196136D01*
X123501777Y-43003035D01*
X122931546Y-43030222D01*
X122540053Y-43192384D01*
X122336890Y-43053569D01*
X122085000Y-43002560D01*
X120485000Y-43002560D01*
X120249683Y-43046838D01*
X120033559Y-43185910D01*
X119888569Y-43398110D01*
X119837560Y-43650000D01*
X119837560Y-44610506D01*
X116416898Y-48031168D01*
X116235072Y-47995000D01*
X116174928Y-47995000D01*
X115587509Y-48111845D01*
X115089519Y-48444591D01*
X114930499Y-48682582D01*
X114572576Y-48292034D01*
X114029742Y-48038954D01*
X113792000Y-48159003D01*
X113792000Y-49403000D01*
X113812000Y-49403000D01*
X113812000Y-49657000D01*
X113792000Y-49657000D01*
X113792000Y-50900997D01*
X114029742Y-51021046D01*
X114572576Y-50767966D01*
X114930499Y-50377418D01*
X115089519Y-50615409D01*
X115295000Y-50752707D01*
X115295000Y-51058066D01*
X113812937Y-52540129D01*
X113380813Y-52539752D01*
X112853200Y-52757757D01*
X112449176Y-53161077D01*
X112421577Y-53227544D01*
X112418864Y-53220995D01*
X112172745Y-53146861D01*
X111344605Y-53975000D01*
X112172745Y-54803139D01*
X112418864Y-54729005D01*
X112421196Y-54722517D01*
X112447757Y-54786800D01*
X112755000Y-55094579D01*
X112755000Y-61397126D01*
X112743242Y-61389270D01*
X112395000Y-61320000D01*
X106582728Y-61320000D01*
X106489147Y-61179946D01*
X106445223Y-61150597D01*
X106619698Y-61078327D01*
X106798327Y-60899699D01*
X106895000Y-60666310D01*
X106895000Y-59975750D01*
X106736250Y-59817000D01*
X105537000Y-59817000D01*
X105537000Y-59837000D01*
X105283000Y-59837000D01*
X105283000Y-59817000D01*
X104083750Y-59817000D01*
X103925000Y-59975750D01*
X103925000Y-60666310D01*
X104021673Y-60899699D01*
X104200302Y-61078327D01*
X104374777Y-61150597D01*
X104330853Y-61179946D01*
X104008946Y-61661715D01*
X103895907Y-62230000D01*
X104008946Y-62798285D01*
X104330853Y-63280054D01*
X104660026Y-63500000D01*
X104330853Y-63719946D01*
X104008946Y-64201715D01*
X103895907Y-64770000D01*
X104008946Y-65338285D01*
X104330853Y-65820054D01*
X104660026Y-66040000D01*
X104330853Y-66259946D01*
X104008946Y-66741715D01*
X103895907Y-67310000D01*
X104008946Y-67878285D01*
X104330853Y-68360054D01*
X104660026Y-68580000D01*
X104330853Y-68799946D01*
X104008946Y-69281715D01*
X103895907Y-69850000D01*
X104008946Y-70418285D01*
X104330853Y-70900054D01*
X104660026Y-71120000D01*
X104330853Y-71339946D01*
X104008946Y-71821715D01*
X103895907Y-72390000D01*
X104008946Y-72958285D01*
X104330853Y-73440054D01*
X104660026Y-73660000D01*
X104330853Y-73879946D01*
X104008946Y-74361715D01*
X103895907Y-74930000D01*
X104008946Y-75498285D01*
X104330853Y-75980054D01*
X104671553Y-76207702D01*
X104528642Y-76274817D01*
X104138355Y-76703076D01*
X103968524Y-77113110D01*
X104089845Y-77343000D01*
X105283000Y-77343000D01*
X105283000Y-77323000D01*
X105537000Y-77323000D01*
X105537000Y-77343000D01*
X106730155Y-77343000D01*
X106851476Y-77113110D01*
X106788055Y-76959989D01*
X110481533Y-80653467D01*
X110776758Y-80850730D01*
X111125000Y-80920000D01*
X113288066Y-80920000D01*
X113537998Y-81169932D01*
X113537998Y-81332496D01*
X113370999Y-81205592D01*
X113212925Y-81282853D01*
X113096890Y-81203569D01*
X112845000Y-81152560D01*
X111945000Y-81152560D01*
X111709683Y-81196838D01*
X111493559Y-81335910D01*
X111348569Y-81548110D01*
X111297560Y-81800000D01*
X111297560Y-82425000D01*
X108661846Y-82425000D01*
X108617068Y-82316629D01*
X108185643Y-81884449D01*
X107621670Y-81650267D01*
X107011009Y-81649735D01*
X106446629Y-81882932D01*
X106278387Y-82050880D01*
X106278162Y-82049683D01*
X106139090Y-81833559D01*
X105926890Y-81688569D01*
X105675000Y-81637560D01*
X103875000Y-81637560D01*
X103639683Y-81681838D01*
X103423559Y-81820910D01*
X103278569Y-82033110D01*
X103227560Y-82285000D01*
X103227560Y-84085000D01*
X103271838Y-84320317D01*
X103410910Y-84536441D01*
X103623110Y-84681431D01*
X103875000Y-84732440D01*
X105675000Y-84732440D01*
X105910317Y-84688162D01*
X106126441Y-84549090D01*
X106271431Y-84336890D01*
X106275567Y-84316466D01*
X106444357Y-84485551D01*
X107008330Y-84719733D01*
X107618991Y-84720265D01*
X108183371Y-84487068D01*
X108615551Y-84055643D01*
X108661494Y-83945000D01*
X111635000Y-83945000D01*
X111635000Y-84140198D01*
X109317599Y-86457599D01*
X109152852Y-86704161D01*
X109095000Y-86995000D01*
X109095000Y-88156940D01*
X108941890Y-88093524D01*
X108712000Y-88214845D01*
X108712000Y-89408000D01*
X108732000Y-89408000D01*
X108732000Y-89662000D01*
X108712000Y-89662000D01*
X108712000Y-89682000D01*
X108458000Y-89682000D01*
X108458000Y-89662000D01*
X106172000Y-89662000D01*
X106172000Y-89682000D01*
X105918000Y-89682000D01*
X105918000Y-89662000D01*
X103632000Y-89662000D01*
X103632000Y-89682000D01*
X103378000Y-89682000D01*
X103378000Y-89662000D01*
X102184181Y-89662000D01*
X102063514Y-89891892D01*
X102309817Y-90416358D01*
X102515504Y-90603808D01*
X102419683Y-90621838D01*
X102206166Y-90759232D01*
X100625042Y-89178108D01*
X102063514Y-89178108D01*
X102184181Y-89408000D01*
X103378000Y-89408000D01*
X103378000Y-88214845D01*
X103632000Y-88214845D01*
X103632000Y-89408000D01*
X105918000Y-89408000D01*
X105918000Y-88214845D01*
X106172000Y-88214845D01*
X106172000Y-89408000D01*
X108458000Y-89408000D01*
X108458000Y-88214845D01*
X108228110Y-88093524D01*
X107818076Y-88263355D01*
X107389817Y-88653642D01*
X107315000Y-88812954D01*
X107240183Y-88653642D01*
X106811924Y-88263355D01*
X106401890Y-88093524D01*
X106172000Y-88214845D01*
X105918000Y-88214845D01*
X105688110Y-88093524D01*
X105278076Y-88263355D01*
X104849817Y-88653642D01*
X104775000Y-88812954D01*
X104700183Y-88653642D01*
X104271924Y-88263355D01*
X103861890Y-88093524D01*
X103632000Y-88214845D01*
X103378000Y-88214845D01*
X103148110Y-88093524D01*
X102738076Y-88263355D01*
X102309817Y-88653642D01*
X102063514Y-89178108D01*
X100625042Y-89178108D01*
X98700000Y-87253066D01*
X98700000Y-84084383D01*
X98994769Y-84084383D01*
X99197582Y-84575229D01*
X99572796Y-84951098D01*
X100063287Y-85154768D01*
X100594383Y-85155231D01*
X101085229Y-84952418D01*
X101461098Y-84577204D01*
X101664768Y-84086713D01*
X101665231Y-83555617D01*
X101462418Y-83064771D01*
X101087204Y-82688902D01*
X100596713Y-82485232D01*
X100065617Y-82484769D01*
X99574771Y-82687582D01*
X99198902Y-83062796D01*
X98995232Y-83553287D01*
X98994769Y-84084383D01*
X98700000Y-84084383D01*
X98700000Y-79073331D01*
X99037273Y-79073331D01*
X99263236Y-79542663D01*
X99651604Y-79889797D01*
X99996671Y-80032716D01*
X100203000Y-79909374D01*
X100203000Y-78867000D01*
X100457000Y-78867000D01*
X100457000Y-79909374D01*
X100663329Y-80032716D01*
X101008396Y-79889797D01*
X101396764Y-79542663D01*
X101622727Y-79073331D01*
X101500206Y-78867000D01*
X100457000Y-78867000D01*
X100203000Y-78867000D01*
X99159794Y-78867000D01*
X99037273Y-79073331D01*
X98700000Y-79073331D01*
X98700000Y-78406669D01*
X99037273Y-78406669D01*
X99159794Y-78613000D01*
X100203000Y-78613000D01*
X100203000Y-77570626D01*
X100457000Y-77570626D01*
X100457000Y-78613000D01*
X101500206Y-78613000D01*
X101622727Y-78406669D01*
X101396764Y-77937337D01*
X101273198Y-77826890D01*
X103968524Y-77826890D01*
X104138355Y-78236924D01*
X104528642Y-78665183D01*
X105053108Y-78911486D01*
X105283000Y-78790819D01*
X105283000Y-77597000D01*
X105537000Y-77597000D01*
X105537000Y-78790819D01*
X105766892Y-78911486D01*
X106291358Y-78665183D01*
X106681645Y-78236924D01*
X106851476Y-77826890D01*
X106730155Y-77597000D01*
X105537000Y-77597000D01*
X105283000Y-77597000D01*
X104089845Y-77597000D01*
X103968524Y-77826890D01*
X101273198Y-77826890D01*
X101008396Y-77590203D01*
X100663329Y-77447284D01*
X100457000Y-77570626D01*
X100203000Y-77570626D01*
X99996671Y-77447284D01*
X99651604Y-77590203D01*
X99263236Y-77937337D01*
X99037273Y-78406669D01*
X98700000Y-78406669D01*
X98700000Y-69850000D01*
X98815907Y-69850000D01*
X98928946Y-70418285D01*
X99250853Y-70900054D01*
X99292452Y-70927850D01*
X99244683Y-70936838D01*
X99028559Y-71075910D01*
X98883569Y-71288110D01*
X98832560Y-71540000D01*
X98832560Y-73240000D01*
X98876838Y-73475317D01*
X99015910Y-73691441D01*
X99228110Y-73836431D01*
X99480000Y-73887440D01*
X101180000Y-73887440D01*
X101415317Y-73843162D01*
X101631441Y-73704090D01*
X101776431Y-73491890D01*
X101827440Y-73240000D01*
X101827440Y-71540000D01*
X101783162Y-71304683D01*
X101644090Y-71088559D01*
X101431890Y-70943569D01*
X101364459Y-70929914D01*
X101409147Y-70900054D01*
X101731054Y-70418285D01*
X101844093Y-69850000D01*
X101731054Y-69281715D01*
X101409147Y-68799946D01*
X100927378Y-68478039D01*
X100359093Y-68365000D01*
X100300907Y-68365000D01*
X99732622Y-68478039D01*
X99250853Y-68799946D01*
X98928946Y-69281715D01*
X98815907Y-69850000D01*
X98700000Y-69850000D01*
X98700000Y-63500000D01*
X98815907Y-63500000D01*
X98928946Y-64068285D01*
X99250853Y-64550054D01*
X99732622Y-64871961D01*
X100300907Y-64985000D01*
X100359093Y-64985000D01*
X100927378Y-64871961D01*
X101409147Y-64550054D01*
X101731054Y-64068285D01*
X101844093Y-63500000D01*
X101731054Y-62931715D01*
X101409147Y-62449946D01*
X101367548Y-62422150D01*
X101415317Y-62413162D01*
X101631441Y-62274090D01*
X101776431Y-62061890D01*
X101827440Y-61810000D01*
X101827440Y-60110000D01*
X101783162Y-59874683D01*
X101644090Y-59658559D01*
X101431890Y-59513569D01*
X101180000Y-59462560D01*
X99480000Y-59462560D01*
X99244683Y-59506838D01*
X99028559Y-59645910D01*
X98883569Y-59858110D01*
X98832560Y-60110000D01*
X98832560Y-61810000D01*
X98876838Y-62045317D01*
X99015910Y-62261441D01*
X99228110Y-62406431D01*
X99295541Y-62420086D01*
X99250853Y-62449946D01*
X98928946Y-62931715D01*
X98815907Y-63500000D01*
X98700000Y-63500000D01*
X98700000Y-58713690D01*
X103925000Y-58713690D01*
X103925000Y-59404250D01*
X104083750Y-59563000D01*
X105283000Y-59563000D01*
X105283000Y-58363750D01*
X105537000Y-58363750D01*
X105537000Y-59563000D01*
X106736250Y-59563000D01*
X106895000Y-59404250D01*
X106895000Y-58713690D01*
X106798327Y-58480301D01*
X106619698Y-58301673D01*
X106386309Y-58205000D01*
X105695750Y-58205000D01*
X105537000Y-58363750D01*
X105283000Y-58363750D01*
X105124250Y-58205000D01*
X104433691Y-58205000D01*
X104200302Y-58301673D01*
X104021673Y-58480301D01*
X103925000Y-58713690D01*
X98700000Y-58713690D01*
X98700000Y-54982745D01*
X110336861Y-54982745D01*
X110410995Y-55228864D01*
X110948223Y-55421965D01*
X111518454Y-55394778D01*
X111919005Y-55228864D01*
X111993139Y-54982745D01*
X111165000Y-54154605D01*
X110336861Y-54982745D01*
X98700000Y-54982745D01*
X98700000Y-53061892D01*
X100793514Y-53061892D01*
X101039817Y-53586358D01*
X101468076Y-53976645D01*
X101878110Y-54146476D01*
X102108000Y-54025155D01*
X102108000Y-52832000D01*
X100914181Y-52832000D01*
X100793514Y-53061892D01*
X98700000Y-53061892D01*
X98700000Y-52348108D01*
X100793514Y-52348108D01*
X100914181Y-52578000D01*
X102108000Y-52578000D01*
X102108000Y-51384845D01*
X101878110Y-51263524D01*
X101468076Y-51433355D01*
X101039817Y-51823642D01*
X100793514Y-52348108D01*
X98700000Y-52348108D01*
X98700000Y-51811934D01*
X102024494Y-48487440D01*
X103085000Y-48487440D01*
X103320317Y-48443162D01*
X103536441Y-48304090D01*
X103681431Y-48091890D01*
X103695086Y-48024459D01*
X103724946Y-48069147D01*
X103865000Y-48162728D01*
X103865000Y-51218850D01*
X103689683Y-51251838D01*
X103473559Y-51390910D01*
X103328569Y-51603110D01*
X103306699Y-51711107D01*
X103001924Y-51433355D01*
X102591890Y-51263524D01*
X102362000Y-51384845D01*
X102362000Y-52578000D01*
X102382000Y-52578000D01*
X102382000Y-52832000D01*
X102362000Y-52832000D01*
X102362000Y-54025155D01*
X102591890Y-54146476D01*
X103001924Y-53976645D01*
X103304937Y-53700499D01*
X103321838Y-53790317D01*
X103460910Y-54006441D01*
X103673110Y-54151431D01*
X103925000Y-54202440D01*
X105625000Y-54202440D01*
X105860317Y-54158162D01*
X106076441Y-54019090D01*
X106221431Y-53806890D01*
X106231286Y-53758223D01*
X109718035Y-53758223D01*
X109745222Y-54328454D01*
X109911136Y-54729005D01*
X110157255Y-54803139D01*
X110985395Y-53975000D01*
X110157255Y-53146861D01*
X109911136Y-53220995D01*
X109718035Y-53758223D01*
X106231286Y-53758223D01*
X106272440Y-53555000D01*
X106272440Y-52967255D01*
X110336861Y-52967255D01*
X111165000Y-53795395D01*
X111993139Y-52967255D01*
X111919005Y-52721136D01*
X111381777Y-52528035D01*
X110811546Y-52555222D01*
X110410995Y-52721136D01*
X110336861Y-52967255D01*
X106272440Y-52967255D01*
X106272440Y-51855000D01*
X106228162Y-51619683D01*
X106089090Y-51403559D01*
X105876890Y-51258569D01*
X105685000Y-51219710D01*
X105685000Y-48162728D01*
X105825054Y-48069147D01*
X106146961Y-47587378D01*
X106260000Y-47019093D01*
X106260000Y-46960907D01*
X106146961Y-46392622D01*
X105825054Y-45910853D01*
X105343285Y-45588946D01*
X104775000Y-45475907D01*
X104308168Y-45568766D01*
X104516934Y-45360000D01*
X105668066Y-45360000D01*
X109577560Y-49269494D01*
X109577560Y-50430000D01*
X109621838Y-50665317D01*
X109760910Y-50881441D01*
X109973110Y-51026431D01*
X110225000Y-51077440D01*
X112025000Y-51077440D01*
X112260317Y-51033162D01*
X112476441Y-50894090D01*
X112621431Y-50681890D01*
X112631766Y-50630854D01*
X112757424Y-50767966D01*
X113300258Y-51021046D01*
X113538000Y-50900997D01*
X113538000Y-49657000D01*
X113518000Y-49657000D01*
X113518000Y-49403000D01*
X113538000Y-49403000D01*
X113538000Y-48159003D01*
X113300258Y-48038954D01*
X112757424Y-48292034D01*
X112634156Y-48426538D01*
X112628162Y-48394683D01*
X112489090Y-48178559D01*
X112276890Y-48033569D01*
X112025000Y-47982560D01*
X110864494Y-47982560D01*
X106688467Y-43806533D01*
X106393242Y-43609270D01*
X106045000Y-43540000D01*
X104140000Y-43540000D01*
X103791758Y-43609270D01*
X103661965Y-43695995D01*
X103496533Y-43806533D01*
X103145000Y-44158066D01*
X103145000Y-42701742D01*
X103270317Y-42678162D01*
X103486441Y-42539090D01*
X103490977Y-42532452D01*
X104018223Y-42721965D01*
X104588454Y-42694778D01*
X104989005Y-42528864D01*
X105063139Y-42282745D01*
X104235000Y-41454605D01*
X104220858Y-41468748D01*
X104041253Y-41289143D01*
X104055395Y-41275000D01*
X104414605Y-41275000D01*
X105242745Y-42103139D01*
X105488864Y-42029005D01*
X105681965Y-41491777D01*
X105654778Y-40921546D01*
X105488864Y-40520995D01*
X105242745Y-40446861D01*
X104414605Y-41275000D01*
X104055395Y-41275000D01*
X104041253Y-41260858D01*
X104220858Y-41081252D01*
X104235000Y-41095395D01*
X105063139Y-40267255D01*
X104989005Y-40021136D01*
X104451777Y-39828035D01*
X103881546Y-39855222D01*
X103490053Y-40017384D01*
X103286890Y-39878569D01*
X103145000Y-39849836D01*
X103145000Y-37314214D01*
X103256663Y-37202745D01*
X103906861Y-37202745D01*
X103980995Y-37448864D01*
X104518223Y-37641965D01*
X105088454Y-37614778D01*
X105489005Y-37448864D01*
X105563139Y-37202745D01*
X104735000Y-36374605D01*
X103906861Y-37202745D01*
X103256663Y-37202745D01*
X103450824Y-37008923D01*
X103478423Y-36942456D01*
X103481136Y-36949005D01*
X103727255Y-37023139D01*
X104555395Y-36195000D01*
X104914605Y-36195000D01*
X105742745Y-37023139D01*
X105988864Y-36949005D01*
X106181965Y-36411777D01*
X106154778Y-35841546D01*
X105988864Y-35440995D01*
X105742745Y-35366861D01*
X104914605Y-36195000D01*
X104555395Y-36195000D01*
X103727255Y-35366861D01*
X103481136Y-35440995D01*
X103478804Y-35447483D01*
X103452243Y-35383200D01*
X103256640Y-35187255D01*
X103906861Y-35187255D01*
X104735000Y-36015395D01*
X105563139Y-35187255D01*
X105489005Y-34941136D01*
X104951777Y-34748035D01*
X104381546Y-34775222D01*
X103980995Y-34941136D01*
X103906861Y-35187255D01*
X103256640Y-35187255D01*
X103048923Y-34979176D01*
X102521691Y-34760250D01*
X101950813Y-34759752D01*
X101423200Y-34977757D01*
X101019176Y-35381077D01*
X100800250Y-35908309D01*
X100799752Y-36479187D01*
X101017757Y-37006800D01*
X101325000Y-37314579D01*
X101325000Y-39848258D01*
X101199683Y-39871838D01*
X100983559Y-40010910D01*
X100838569Y-40223110D01*
X100787560Y-40475000D01*
X100787560Y-42075000D01*
X100831838Y-42310317D01*
X100970910Y-42526441D01*
X101183110Y-42671431D01*
X101325000Y-42700164D01*
X101325000Y-45503850D01*
X101149683Y-45536838D01*
X100933559Y-45675910D01*
X100788569Y-45888110D01*
X100737560Y-46140000D01*
X100737560Y-47200506D01*
X97146533Y-50791533D01*
X96949270Y-51086758D01*
X96880000Y-51435000D01*
X96595000Y-51435000D01*
X96595000Y-32728599D01*
X97324699Y-32728599D01*
X97588281Y-33366515D01*
X98075918Y-33855004D01*
X98713373Y-34119699D01*
X99403599Y-34120301D01*
X100041515Y-33856719D01*
X100530004Y-33369082D01*
X100737241Y-32870000D01*
X111233275Y-32870000D01*
X111414822Y-33782700D01*
X111931825Y-34556450D01*
X112705575Y-35073453D01*
X113618275Y-35255000D01*
X113711725Y-35255000D01*
X114624425Y-35073453D01*
X115398175Y-34556450D01*
X115915178Y-33782700D01*
X116096725Y-32870000D01*
X116068599Y-32728599D01*
X125899699Y-32728599D01*
X126163281Y-33366515D01*
X126650918Y-33855004D01*
X127288373Y-34119699D01*
X127978599Y-34120301D01*
X128616515Y-33856719D01*
X129105004Y-33369082D01*
X129369699Y-32731627D01*
X129370301Y-32041401D01*
X129106719Y-31403485D01*
X128619082Y-30914996D01*
X127981627Y-30650301D01*
X127291401Y-30649699D01*
X126653485Y-30913281D01*
X126164996Y-31400918D01*
X125900301Y-32038373D01*
X125899699Y-32728599D01*
X116068599Y-32728599D01*
X115915178Y-31957300D01*
X115398175Y-31183550D01*
X114624425Y-30666547D01*
X113711725Y-30485000D01*
X113618275Y-30485000D01*
X112705575Y-30666547D01*
X111931825Y-31183550D01*
X111414822Y-31957300D01*
X111233275Y-32870000D01*
X100737241Y-32870000D01*
X100794699Y-32731627D01*
X100795301Y-32041401D01*
X100531719Y-31403485D01*
X100044082Y-30914996D01*
X99406627Y-30650301D01*
X98716401Y-30649699D01*
X98078485Y-30913281D01*
X97589996Y-31400918D01*
X97325301Y-32038373D01*
X97324699Y-32728599D01*
X96595000Y-32728599D01*
X96595000Y-29920000D01*
X130100000Y-29920000D01*
X130100000Y-97715000D01*
G36*
X113792000Y-82423000D02*
X113812000Y-82423000D01*
X113812000Y-82677000D01*
X113792000Y-82677000D01*
X113792000Y-83767502D01*
X113959001Y-83894408D01*
X114295726Y-83729830D01*
X114519788Y-83879543D01*
X114935000Y-83962134D01*
X115039428Y-83941362D01*
X115295000Y-84196934D01*
X115295000Y-89793066D01*
X115027071Y-90060995D01*
X115106486Y-89891892D01*
X114985819Y-89662000D01*
X113792000Y-89662000D01*
X113792000Y-89682000D01*
X113538000Y-89682000D01*
X113538000Y-89662000D01*
X111252000Y-89662000D01*
X111252000Y-89682000D01*
X110998000Y-89682000D01*
X110998000Y-89662000D01*
X110978000Y-89662000D01*
X110978000Y-89408000D01*
X110998000Y-89408000D01*
X110998000Y-88214845D01*
X111252000Y-88214845D01*
X111252000Y-89408000D01*
X113538000Y-89408000D01*
X113538000Y-88214845D01*
X113792000Y-88214845D01*
X113792000Y-89408000D01*
X114985819Y-89408000D01*
X115106486Y-89178108D01*
X114860183Y-88653642D01*
X114431924Y-88263355D01*
X114021890Y-88093524D01*
X113792000Y-88214845D01*
X113538000Y-88214845D01*
X113308110Y-88093524D01*
X112898076Y-88263355D01*
X112469817Y-88653642D01*
X112395000Y-88812954D01*
X112320183Y-88653642D01*
X111891924Y-88263355D01*
X111481890Y-88093524D01*
X111252000Y-88214845D01*
X110998000Y-88214845D01*
X110768110Y-88093524D01*
X110615000Y-88156940D01*
X110615000Y-87309802D01*
X112932401Y-84992401D01*
X113097148Y-84745840D01*
X113114077Y-84660730D01*
X113155000Y-84455000D01*
X113155000Y-83855105D01*
X113213529Y-83817442D01*
X113370999Y-83894408D01*
X113538000Y-83767502D01*
X113538000Y-82677000D01*
X113518000Y-82677000D01*
X113518000Y-82423000D01*
X113538000Y-82423000D01*
X113538000Y-82403000D01*
X113792000Y-82403000D01*
X113792000Y-82423000D01*
X113792000Y-82423000D01*
G37*
X113792000Y-82423000D02*
X113812000Y-82423000D01*
X113812000Y-82677000D01*
X113792000Y-82677000D01*
X113792000Y-83767502D01*
X113959001Y-83894408D01*
X114295726Y-83729830D01*
X114519788Y-83879543D01*
X114935000Y-83962134D01*
X115039428Y-83941362D01*
X115295000Y-84196934D01*
X115295000Y-89793066D01*
X115027071Y-90060995D01*
X115106486Y-89891892D01*
X114985819Y-89662000D01*
X113792000Y-89662000D01*
X113792000Y-89682000D01*
X113538000Y-89682000D01*
X113538000Y-89662000D01*
X111252000Y-89662000D01*
X111252000Y-89682000D01*
X110998000Y-89682000D01*
X110998000Y-89662000D01*
X110978000Y-89662000D01*
X110978000Y-89408000D01*
X110998000Y-89408000D01*
X110998000Y-88214845D01*
X111252000Y-88214845D01*
X111252000Y-89408000D01*
X113538000Y-89408000D01*
X113538000Y-88214845D01*
X113792000Y-88214845D01*
X113792000Y-89408000D01*
X114985819Y-89408000D01*
X115106486Y-89178108D01*
X114860183Y-88653642D01*
X114431924Y-88263355D01*
X114021890Y-88093524D01*
X113792000Y-88214845D01*
X113538000Y-88214845D01*
X113308110Y-88093524D01*
X112898076Y-88263355D01*
X112469817Y-88653642D01*
X112395000Y-88812954D01*
X112320183Y-88653642D01*
X111891924Y-88263355D01*
X111481890Y-88093524D01*
X111252000Y-88214845D01*
X110998000Y-88214845D01*
X110768110Y-88093524D01*
X110615000Y-88156940D01*
X110615000Y-87309802D01*
X112932401Y-84992401D01*
X113097148Y-84745840D01*
X113114077Y-84660730D01*
X113155000Y-84455000D01*
X113155000Y-83855105D01*
X113213529Y-83817442D01*
X113370999Y-83894408D01*
X113538000Y-83767502D01*
X113538000Y-82677000D01*
X113518000Y-82677000D01*
X113518000Y-82423000D01*
X113538000Y-82423000D01*
X113538000Y-82403000D01*
X113792000Y-82403000D01*
X113792000Y-82423000D01*
G36*
X114748201Y-74594838D02*
X114795077Y-74594879D01*
X117350000Y-77149802D01*
X117350000Y-80010000D01*
X117407852Y-80300839D01*
X117572599Y-80547401D01*
X117985000Y-80959802D01*
X117985000Y-85090000D01*
X118042852Y-85380839D01*
X118207599Y-85627401D01*
X119255000Y-86674802D01*
X119255000Y-88145658D01*
X118774093Y-88050000D01*
X118715907Y-88050000D01*
X118398031Y-88113229D01*
X117600000Y-87315198D01*
X117600000Y-82550000D01*
X117542148Y-82259161D01*
X117377401Y-82012599D01*
X116965000Y-81600198D01*
X116965000Y-81280000D01*
X116907148Y-80989161D01*
X116742401Y-80742599D01*
X116330000Y-80330198D01*
X116330000Y-80010000D01*
X116272148Y-79719161D01*
X116107401Y-79472599D01*
X114905911Y-78271109D01*
X115248454Y-78254778D01*
X115649005Y-78088864D01*
X115723139Y-77842745D01*
X114895000Y-77014605D01*
X114880858Y-77028748D01*
X114701253Y-76849143D01*
X114715395Y-76835000D01*
X115074605Y-76835000D01*
X115902745Y-77663139D01*
X116148864Y-77589005D01*
X116341965Y-77051777D01*
X116314778Y-76481546D01*
X116148864Y-76080995D01*
X115902745Y-76006861D01*
X115074605Y-76835000D01*
X114715395Y-76835000D01*
X114701253Y-76820858D01*
X114880858Y-76641252D01*
X114895000Y-76655395D01*
X115723139Y-75827255D01*
X115649005Y-75581136D01*
X115111777Y-75388035D01*
X114541546Y-75415222D01*
X114425000Y-75463497D01*
X114425000Y-74460633D01*
X114748201Y-74594838D01*
X114748201Y-74594838D01*
G37*
X114748201Y-74594838D02*
X114795077Y-74594879D01*
X117350000Y-77149802D01*
X117350000Y-80010000D01*
X117407852Y-80300839D01*
X117572599Y-80547401D01*
X117985000Y-80959802D01*
X117985000Y-85090000D01*
X118042852Y-85380839D01*
X118207599Y-85627401D01*
X119255000Y-86674802D01*
X119255000Y-88145658D01*
X118774093Y-88050000D01*
X118715907Y-88050000D01*
X118398031Y-88113229D01*
X117600000Y-87315198D01*
X117600000Y-82550000D01*
X117542148Y-82259161D01*
X117377401Y-82012599D01*
X116965000Y-81600198D01*
X116965000Y-81280000D01*
X116907148Y-80989161D01*
X116742401Y-80742599D01*
X116330000Y-80330198D01*
X116330000Y-80010000D01*
X116272148Y-79719161D01*
X116107401Y-79472599D01*
X114905911Y-78271109D01*
X115248454Y-78254778D01*
X115649005Y-78088864D01*
X115723139Y-77842745D01*
X114895000Y-77014605D01*
X114880858Y-77028748D01*
X114701253Y-76849143D01*
X114715395Y-76835000D01*
X115074605Y-76835000D01*
X115902745Y-77663139D01*
X116148864Y-77589005D01*
X116341965Y-77051777D01*
X116314778Y-76481546D01*
X116148864Y-76080995D01*
X115902745Y-76006861D01*
X115074605Y-76835000D01*
X114715395Y-76835000D01*
X114701253Y-76820858D01*
X114880858Y-76641252D01*
X114895000Y-76655395D01*
X115723139Y-75827255D01*
X115649005Y-75581136D01*
X115111777Y-75388035D01*
X114541546Y-75415222D01*
X114425000Y-75463497D01*
X114425000Y-74460633D01*
X114748201Y-74594838D01*
G36*
X123317000Y-82423000D02*
X123337000Y-82423000D01*
X123337000Y-82677000D01*
X123317000Y-82677000D01*
X123317000Y-83776250D01*
X123372974Y-83832224D01*
X122017599Y-85187599D01*
X121920000Y-85333667D01*
X121822401Y-85187599D01*
X120583760Y-83948958D01*
X120650000Y-83962134D01*
X121065212Y-83879543D01*
X121285000Y-83732685D01*
X121504788Y-83879543D01*
X121920000Y-83962134D01*
X122335212Y-83879543D01*
X122390546Y-83842570D01*
X122613691Y-83935000D01*
X122904250Y-83935000D01*
X123063000Y-83776250D01*
X123063000Y-82677000D01*
X123043000Y-82677000D01*
X123043000Y-82423000D01*
X123063000Y-82423000D01*
X123063000Y-82403000D01*
X123317000Y-82403000D01*
X123317000Y-82423000D01*
X123317000Y-82423000D01*
G37*
X123317000Y-82423000D02*
X123337000Y-82423000D01*
X123337000Y-82677000D01*
X123317000Y-82677000D01*
X123317000Y-83776250D01*
X123372974Y-83832224D01*
X122017599Y-85187599D01*
X121920000Y-85333667D01*
X121822401Y-85187599D01*
X120583760Y-83948958D01*
X120650000Y-83962134D01*
X121065212Y-83879543D01*
X121285000Y-83732685D01*
X121504788Y-83879543D01*
X121920000Y-83962134D01*
X122335212Y-83879543D01*
X122390546Y-83842570D01*
X122613691Y-83935000D01*
X122904250Y-83935000D01*
X123063000Y-83776250D01*
X123063000Y-82677000D01*
X123043000Y-82677000D01*
X123043000Y-82423000D01*
X123063000Y-82423000D01*
X123063000Y-82403000D01*
X123317000Y-82403000D01*
X123317000Y-82423000D01*
G36*
X120537000Y-77343000D02*
X120557000Y-77343000D01*
X120557000Y-77597000D01*
X120537000Y-77597000D01*
X120537000Y-78790819D01*
X120766892Y-78911486D01*
X121160000Y-78726872D01*
X121160000Y-79695198D01*
X120140000Y-80715198D01*
X120140000Y-79375000D01*
X120082148Y-79084161D01*
X119927290Y-78852398D01*
X120053108Y-78911486D01*
X120283000Y-78790819D01*
X120283000Y-77597000D01*
X120263000Y-77597000D01*
X120263000Y-77343000D01*
X120283000Y-77343000D01*
X120283000Y-77323000D01*
X120537000Y-77323000D01*
X120537000Y-77343000D01*
X120537000Y-77343000D01*
G37*
X120537000Y-77343000D02*
X120557000Y-77343000D01*
X120557000Y-77597000D01*
X120537000Y-77597000D01*
X120537000Y-78790819D01*
X120766892Y-78911486D01*
X121160000Y-78726872D01*
X121160000Y-79695198D01*
X120140000Y-80715198D01*
X120140000Y-79375000D01*
X120082148Y-79084161D01*
X119927290Y-78852398D01*
X120053108Y-78911486D01*
X120283000Y-78790819D01*
X120283000Y-77597000D01*
X120263000Y-77597000D01*
X120263000Y-77343000D01*
X120283000Y-77343000D01*
X120283000Y-77323000D01*
X120537000Y-77323000D01*
X120537000Y-77343000D01*
M02*
