M48
;DRILL file {KiCad 4.0.7} date Sunday, April 15, 2018 'PMt' 03:49:04 PM
;FORMAT={-:-/ absolute / inch / decimal}
FMAT,2
INCH,TZ
T1C0.016
T2C0.024
T3C0.028
T4C0.031
T5C0.035
T6C0.039
%
G90
G05
M72
T1
X4.475Y-2.8
X4.525Y-2.9
T2
X4.425Y-3.25
X4.475Y-3.25
X4.525Y-3.25
X4.65Y-2.125
X4.7Y-2.125
X4.75Y-2.125
X4.75Y-3.25
X4.8Y-3.25
X4.85Y-3.25
T3
X3.95Y-3.1
X3.95Y-3.3
X4.575Y-2.6
X4.575Y-2.8
X4.925Y-2.875
X4.925Y-3.075
X4.95Y-1.975
X4.95Y-2.175
X4.95Y-2.325
X4.95Y-2.525
T4
X4.025Y-1.425
X4.025Y-1.625
X4.1037Y-1.625
X4.1234Y-1.425
X4.3766Y-2.125
X4.425Y-3.025
X4.475Y-2.125
X4.5234Y-3.025
X4.775Y-1.75
X4.8537Y-1.75
T5
X4.125Y-3.275
X4.225Y-3.275
T6
X3.95Y-2.4
X3.95Y-2.5
X3.95Y-2.75
X3.95Y-2.85
X4.025Y-1.85
X4.025Y-2.075
X4.075Y-3.525
X4.075Y-3.625
X4.125Y-1.85
X4.125Y-2.075
X4.15Y-2.35
X4.15Y-2.45
X4.15Y-2.55
X4.15Y-2.65
X4.15Y-2.75
X4.15Y-2.85
X4.15Y-2.95
X4.15Y-3.05
X4.175Y-3.525
X4.175Y-3.625
X4.275Y-3.525
X4.275Y-3.625
X4.375Y-1.95
X4.375Y-3.525
X4.375Y-3.625
X4.475Y-1.95
X4.475Y-3.525
X4.475Y-3.625
X4.575Y-1.95
X4.675Y-3.525
X4.675Y-3.625
X4.7406Y-2.35
X4.7406Y-2.45
X4.7406Y-2.55
X4.7406Y-2.65
X4.7406Y-2.75
X4.7406Y-2.85
X4.7406Y-2.95
X4.7406Y-3.05
X4.825Y-3.525
X4.825Y-3.625
T0
M30
