G04 #@! TF.FileFunction,Legend,Top*
%FSLAX46Y46*%
G04 Gerber Fmt 4.6, Leading zero omitted, Abs format (unit mm)*
G04 Created by KiCad (PCBNEW 4.0.7) date Sunday, April 15, 2018 'PMt' 03:49:00 PM*
%MOMM*%
%LPD*%
G01*
G04 APERTURE LIST*
%ADD10C,0.100000*%
%ADD11C,0.300000*%
%ADD12C,0.120000*%
%ADD13C,0.150000*%
G04 APERTURE END LIST*
D10*
D11*
X119625000Y-97706428D02*
X119625000Y-96992142D01*
X120053571Y-97849285D02*
X118553571Y-97349285D01*
X120053571Y-96849285D01*
X120053571Y-96349285D02*
X118553571Y-96349285D01*
X118553571Y-95777857D01*
X118625000Y-95634999D01*
X118696429Y-95563571D01*
X118839286Y-95492142D01*
X119053571Y-95492142D01*
X119196429Y-95563571D01*
X119267857Y-95634999D01*
X119339286Y-95777857D01*
X119339286Y-96349285D01*
X119982143Y-94920714D02*
X120053571Y-94706428D01*
X120053571Y-94349285D01*
X119982143Y-94206428D01*
X119910714Y-94134999D01*
X119767857Y-94063571D01*
X119625000Y-94063571D01*
X119482143Y-94134999D01*
X119410714Y-94206428D01*
X119339286Y-94349285D01*
X119267857Y-94634999D01*
X119196429Y-94777857D01*
X119125000Y-94849285D01*
X118982143Y-94920714D01*
X118839286Y-94920714D01*
X118696429Y-94849285D01*
X118625000Y-94777857D01*
X118553571Y-94634999D01*
X118553571Y-94277857D01*
X118625000Y-94063571D01*
X121817857Y-97242142D02*
X121889286Y-97027856D01*
X121960714Y-96956428D01*
X122103571Y-96884999D01*
X122317857Y-96884999D01*
X122460714Y-96956428D01*
X122532143Y-97027856D01*
X122603571Y-97170714D01*
X122603571Y-97742142D01*
X121103571Y-97742142D01*
X121103571Y-97242142D01*
X121175000Y-97099285D01*
X121246429Y-97027856D01*
X121389286Y-96956428D01*
X121532143Y-96956428D01*
X121675000Y-97027856D01*
X121746429Y-97099285D01*
X121817857Y-97242142D01*
X121817857Y-97742142D01*
X122603571Y-96242142D02*
X121103571Y-96242142D01*
X121103571Y-95670714D01*
X121175000Y-95527856D01*
X121246429Y-95456428D01*
X121389286Y-95384999D01*
X121603571Y-95384999D01*
X121746429Y-95456428D01*
X121817857Y-95527856D01*
X121889286Y-95670714D01*
X121889286Y-96242142D01*
X122532143Y-94813571D02*
X122603571Y-94599285D01*
X122603571Y-94242142D01*
X122532143Y-94099285D01*
X122460714Y-94027856D01*
X122317857Y-93956428D01*
X122175000Y-93956428D01*
X122032143Y-94027856D01*
X121960714Y-94099285D01*
X121889286Y-94242142D01*
X121817857Y-94527856D01*
X121746429Y-94670714D01*
X121675000Y-94742142D01*
X121532143Y-94813571D01*
X121389286Y-94813571D01*
X121246429Y-94742142D01*
X121175000Y-94670714D01*
X121103571Y-94527856D01*
X121103571Y-94170714D01*
X121175000Y-93956428D01*
X103377857Y-96992142D02*
X103449286Y-96777856D01*
X103520714Y-96706428D01*
X103663571Y-96634999D01*
X103877857Y-96634999D01*
X104020714Y-96706428D01*
X104092143Y-96777856D01*
X104163571Y-96920714D01*
X104163571Y-97492142D01*
X102663571Y-97492142D01*
X102663571Y-96992142D01*
X102735000Y-96849285D01*
X102806429Y-96777856D01*
X102949286Y-96706428D01*
X103092143Y-96706428D01*
X103235000Y-96777856D01*
X103306429Y-96849285D01*
X103377857Y-96992142D01*
X103377857Y-97492142D01*
X103735000Y-96063571D02*
X103735000Y-95349285D01*
X104163571Y-96206428D02*
X102663571Y-95706428D01*
X104163571Y-95206428D01*
X102663571Y-94920714D02*
X102663571Y-94063571D01*
X104163571Y-94492142D02*
X102663571Y-94492142D01*
X105927857Y-96992142D02*
X105999286Y-96777856D01*
X106070714Y-96706428D01*
X106213571Y-96634999D01*
X106427857Y-96634999D01*
X106570714Y-96706428D01*
X106642143Y-96777856D01*
X106713571Y-96920714D01*
X106713571Y-97492142D01*
X105213571Y-97492142D01*
X105213571Y-96992142D01*
X105285000Y-96849285D01*
X105356429Y-96777856D01*
X105499286Y-96706428D01*
X105642143Y-96706428D01*
X105785000Y-96777856D01*
X105856429Y-96849285D01*
X105927857Y-96992142D01*
X105927857Y-97492142D01*
X106285000Y-96063571D02*
X106285000Y-95349285D01*
X106713571Y-96206428D02*
X105213571Y-95706428D01*
X106713571Y-95206428D01*
X105213571Y-94920714D02*
X105213571Y-94063571D01*
X106713571Y-94492142D02*
X105213571Y-94492142D01*
X107763571Y-97742142D02*
X107763571Y-96813571D01*
X108335000Y-97313571D01*
X108335000Y-97099285D01*
X108406429Y-96956428D01*
X108477857Y-96884999D01*
X108620714Y-96813571D01*
X108977857Y-96813571D01*
X109120714Y-96884999D01*
X109192143Y-96956428D01*
X109263571Y-97099285D01*
X109263571Y-97527857D01*
X109192143Y-97670714D01*
X109120714Y-97742142D01*
X107763571Y-96385000D02*
X109263571Y-95885000D01*
X107763571Y-95385000D01*
X107763571Y-95027857D02*
X107763571Y-94099286D01*
X108335000Y-94599286D01*
X108335000Y-94385000D01*
X108406429Y-94242143D01*
X108477857Y-94170714D01*
X108620714Y-94099286D01*
X108977857Y-94099286D01*
X109120714Y-94170714D01*
X109192143Y-94242143D01*
X109263571Y-94385000D01*
X109263571Y-94813572D01*
X109192143Y-94956429D01*
X109120714Y-95027857D01*
X110313571Y-95599285D02*
X110313571Y-96313571D01*
X111027857Y-96385000D01*
X110956429Y-96313571D01*
X110885000Y-96170714D01*
X110885000Y-95813571D01*
X110956429Y-95670714D01*
X111027857Y-95599285D01*
X111170714Y-95527857D01*
X111527857Y-95527857D01*
X111670714Y-95599285D01*
X111742143Y-95670714D01*
X111813571Y-95813571D01*
X111813571Y-96170714D01*
X111742143Y-96313571D01*
X111670714Y-96385000D01*
X110313571Y-95099286D02*
X111813571Y-94599286D01*
X110313571Y-94099286D01*
X112863571Y-95599285D02*
X112863571Y-96313571D01*
X113577857Y-96385000D01*
X113506429Y-96313571D01*
X113435000Y-96170714D01*
X113435000Y-95813571D01*
X113506429Y-95670714D01*
X113577857Y-95599285D01*
X113720714Y-95527857D01*
X114077857Y-95527857D01*
X114220714Y-95599285D01*
X114292143Y-95670714D01*
X114363571Y-95813571D01*
X114363571Y-96170714D01*
X114292143Y-96313571D01*
X114220714Y-96385000D01*
X112863571Y-95099286D02*
X114363571Y-94599286D01*
X112863571Y-94099286D01*
D12*
X111685000Y-75475000D02*
X115605000Y-75475000D01*
X111685000Y-78195000D02*
X115605000Y-78195000D01*
X111685000Y-75475000D02*
X111685000Y-76085000D01*
X111685000Y-77585000D02*
X111685000Y-78195000D01*
X115605000Y-75475000D02*
X115605000Y-76085000D01*
X115605000Y-77585000D02*
X115605000Y-78195000D01*
X99000000Y-64830000D02*
X101660000Y-64830000D01*
X99000000Y-62230000D02*
X99000000Y-64830000D01*
X101660000Y-62230000D02*
X101660000Y-64830000D01*
X99000000Y-62230000D02*
X101660000Y-62230000D01*
X99000000Y-60960000D02*
X99000000Y-59630000D01*
X99000000Y-59630000D02*
X100330000Y-59630000D01*
X101660000Y-68520000D02*
X99000000Y-68520000D01*
X101660000Y-71120000D02*
X101660000Y-68520000D01*
X99000000Y-71120000D02*
X99000000Y-68520000D01*
X101660000Y-71120000D02*
X99000000Y-71120000D01*
X101660000Y-72390000D02*
X101660000Y-73720000D01*
X101660000Y-73720000D02*
X100330000Y-73720000D01*
X108545000Y-45840000D02*
X118785000Y-45840000D01*
X108545000Y-29950000D02*
X118785000Y-29950000D01*
X108545000Y-29950000D02*
X108545000Y-45840000D01*
X118785000Y-29950000D02*
X118785000Y-45840000D01*
X111125000Y-45840000D02*
X111125000Y-48480000D01*
X113665000Y-45840000D02*
X113665000Y-48464000D01*
X116205000Y-45840000D02*
X116205000Y-48464000D01*
X111865000Y-84400000D02*
X115465000Y-84400000D01*
X111826522Y-84388478D02*
G75*
G02X113665000Y-79950000I1838478J1838478D01*
G01*
X115503478Y-84388478D02*
G75*
G03X113665000Y-79950000I-1838478J1838478D01*
G01*
X105540722Y-40095277D02*
G75*
G03X100929420Y-40095000I-2305722J-1179723D01*
G01*
X105540722Y-42454723D02*
G75*
G02X100929420Y-42455000I-2305722J1179723D01*
G01*
X105540722Y-42454723D02*
G75*
G03X105540580Y-40095000I-2305722J1179723D01*
G01*
X103235000Y-38725000D02*
X103235000Y-43825000D01*
X103275000Y-38725000D02*
X103275000Y-40295000D01*
X103275000Y-42255000D02*
X103275000Y-43825000D01*
X103315000Y-38726000D02*
X103315000Y-40295000D01*
X103315000Y-42255000D02*
X103315000Y-43824000D01*
X103355000Y-38727000D02*
X103355000Y-40295000D01*
X103355000Y-42255000D02*
X103355000Y-43823000D01*
X103395000Y-38729000D02*
X103395000Y-40295000D01*
X103395000Y-42255000D02*
X103395000Y-43821000D01*
X103435000Y-38732000D02*
X103435000Y-40295000D01*
X103435000Y-42255000D02*
X103435000Y-43818000D01*
X103475000Y-38736000D02*
X103475000Y-40295000D01*
X103475000Y-42255000D02*
X103475000Y-43814000D01*
X103515000Y-38740000D02*
X103515000Y-40295000D01*
X103515000Y-42255000D02*
X103515000Y-43810000D01*
X103555000Y-38744000D02*
X103555000Y-40295000D01*
X103555000Y-42255000D02*
X103555000Y-43806000D01*
X103595000Y-38750000D02*
X103595000Y-40295000D01*
X103595000Y-42255000D02*
X103595000Y-43800000D01*
X103635000Y-38756000D02*
X103635000Y-40295000D01*
X103635000Y-42255000D02*
X103635000Y-43794000D01*
X103675000Y-38762000D02*
X103675000Y-40295000D01*
X103675000Y-42255000D02*
X103675000Y-43788000D01*
X103715000Y-38769000D02*
X103715000Y-40295000D01*
X103715000Y-42255000D02*
X103715000Y-43781000D01*
X103755000Y-38777000D02*
X103755000Y-40295000D01*
X103755000Y-42255000D02*
X103755000Y-43773000D01*
X103795000Y-38786000D02*
X103795000Y-40295000D01*
X103795000Y-42255000D02*
X103795000Y-43764000D01*
X103835000Y-38795000D02*
X103835000Y-40295000D01*
X103835000Y-42255000D02*
X103835000Y-43755000D01*
X103875000Y-38805000D02*
X103875000Y-40295000D01*
X103875000Y-42255000D02*
X103875000Y-43745000D01*
X103915000Y-38815000D02*
X103915000Y-40295000D01*
X103915000Y-42255000D02*
X103915000Y-43735000D01*
X103956000Y-38827000D02*
X103956000Y-40295000D01*
X103956000Y-42255000D02*
X103956000Y-43723000D01*
X103996000Y-38839000D02*
X103996000Y-40295000D01*
X103996000Y-42255000D02*
X103996000Y-43711000D01*
X104036000Y-38851000D02*
X104036000Y-40295000D01*
X104036000Y-42255000D02*
X104036000Y-43699000D01*
X104076000Y-38865000D02*
X104076000Y-40295000D01*
X104076000Y-42255000D02*
X104076000Y-43685000D01*
X104116000Y-38879000D02*
X104116000Y-40295000D01*
X104116000Y-42255000D02*
X104116000Y-43671000D01*
X104156000Y-38893000D02*
X104156000Y-40295000D01*
X104156000Y-42255000D02*
X104156000Y-43657000D01*
X104196000Y-38909000D02*
X104196000Y-40295000D01*
X104196000Y-42255000D02*
X104196000Y-43641000D01*
X104236000Y-38925000D02*
X104236000Y-40295000D01*
X104236000Y-42255000D02*
X104236000Y-43625000D01*
X104276000Y-38942000D02*
X104276000Y-40295000D01*
X104276000Y-42255000D02*
X104276000Y-43608000D01*
X104316000Y-38960000D02*
X104316000Y-40295000D01*
X104316000Y-42255000D02*
X104316000Y-43590000D01*
X104356000Y-38979000D02*
X104356000Y-40295000D01*
X104356000Y-42255000D02*
X104356000Y-43571000D01*
X104396000Y-38999000D02*
X104396000Y-40295000D01*
X104396000Y-42255000D02*
X104396000Y-43551000D01*
X104436000Y-39019000D02*
X104436000Y-40295000D01*
X104436000Y-42255000D02*
X104436000Y-43531000D01*
X104476000Y-39041000D02*
X104476000Y-40295000D01*
X104476000Y-42255000D02*
X104476000Y-43509000D01*
X104516000Y-39063000D02*
X104516000Y-40295000D01*
X104516000Y-42255000D02*
X104516000Y-43487000D01*
X104556000Y-39086000D02*
X104556000Y-40295000D01*
X104556000Y-42255000D02*
X104556000Y-43464000D01*
X104596000Y-39110000D02*
X104596000Y-40295000D01*
X104596000Y-42255000D02*
X104596000Y-43440000D01*
X104636000Y-39135000D02*
X104636000Y-40295000D01*
X104636000Y-42255000D02*
X104636000Y-43415000D01*
X104676000Y-39162000D02*
X104676000Y-40295000D01*
X104676000Y-42255000D02*
X104676000Y-43388000D01*
X104716000Y-39189000D02*
X104716000Y-40295000D01*
X104716000Y-42255000D02*
X104716000Y-43361000D01*
X104756000Y-39217000D02*
X104756000Y-40295000D01*
X104756000Y-42255000D02*
X104756000Y-43333000D01*
X104796000Y-39247000D02*
X104796000Y-40295000D01*
X104796000Y-42255000D02*
X104796000Y-43303000D01*
X104836000Y-39278000D02*
X104836000Y-40295000D01*
X104836000Y-42255000D02*
X104836000Y-43272000D01*
X104876000Y-39310000D02*
X104876000Y-40295000D01*
X104876000Y-42255000D02*
X104876000Y-43240000D01*
X104916000Y-39343000D02*
X104916000Y-40295000D01*
X104916000Y-42255000D02*
X104916000Y-43207000D01*
X104956000Y-39378000D02*
X104956000Y-40295000D01*
X104956000Y-42255000D02*
X104956000Y-43172000D01*
X104996000Y-39414000D02*
X104996000Y-40295000D01*
X104996000Y-42255000D02*
X104996000Y-43136000D01*
X105036000Y-39452000D02*
X105036000Y-40295000D01*
X105036000Y-42255000D02*
X105036000Y-43098000D01*
X105076000Y-39492000D02*
X105076000Y-40295000D01*
X105076000Y-42255000D02*
X105076000Y-43058000D01*
X105116000Y-39533000D02*
X105116000Y-40295000D01*
X105116000Y-42255000D02*
X105116000Y-43017000D01*
X105156000Y-39576000D02*
X105156000Y-40295000D01*
X105156000Y-42255000D02*
X105156000Y-42974000D01*
X105196000Y-39621000D02*
X105196000Y-40295000D01*
X105196000Y-42255000D02*
X105196000Y-42929000D01*
X105236000Y-39669000D02*
X105236000Y-42881000D01*
X105276000Y-39719000D02*
X105276000Y-42831000D01*
X105316000Y-39771000D02*
X105316000Y-42779000D01*
X105356000Y-39827000D02*
X105356000Y-42723000D01*
X105396000Y-39885000D02*
X105396000Y-42665000D01*
X105436000Y-39948000D02*
X105436000Y-42602000D01*
X105476000Y-40014000D02*
X105476000Y-42536000D01*
X105516000Y-40086000D02*
X105516000Y-42464000D01*
X105556000Y-40163000D02*
X105556000Y-42387000D01*
X105596000Y-40247000D02*
X105596000Y-42303000D01*
X105636000Y-40341000D02*
X105636000Y-42209000D01*
X105676000Y-40446000D02*
X105676000Y-42104000D01*
X105716000Y-40568000D02*
X105716000Y-41982000D01*
X105756000Y-40716000D02*
X105756000Y-41834000D01*
X105796000Y-40921000D02*
X105796000Y-41629000D01*
X100035000Y-41275000D02*
X101235000Y-41275000D01*
X100635000Y-40625000D02*
X100635000Y-41925000D01*
X107717335Y-82106392D02*
G75*
G03X104485000Y-81949484I-1672335J-1078608D01*
G01*
X107717335Y-84263608D02*
G75*
G02X104485000Y-84420516I-1672335J1078608D01*
G01*
X107086130Y-82105163D02*
G75*
G03X105004039Y-82105000I-1041130J-1079837D01*
G01*
X107086130Y-84264837D02*
G75*
G02X105004039Y-84265000I-1041130J1079837D01*
G01*
X104485000Y-81949000D02*
X104485000Y-82105000D01*
X104485000Y-84265000D02*
X104485000Y-84421000D01*
X123885000Y-88205000D02*
X121225000Y-88205000D01*
X123885000Y-90805000D02*
X123885000Y-88205000D01*
X121225000Y-90805000D02*
X121225000Y-88205000D01*
X123885000Y-90805000D02*
X121225000Y-90805000D01*
X123885000Y-92075000D02*
X123885000Y-93405000D01*
X123885000Y-93405000D02*
X122555000Y-93405000D01*
X120075000Y-88205000D02*
X117415000Y-88205000D01*
X120075000Y-90805000D02*
X120075000Y-88205000D01*
X117415000Y-90805000D02*
X117415000Y-88205000D01*
X120075000Y-90805000D02*
X117415000Y-90805000D01*
X120075000Y-92075000D02*
X120075000Y-93405000D01*
X120075000Y-93405000D02*
X118745000Y-93405000D01*
X99470000Y-83140000D02*
X99470000Y-79420000D01*
X101190000Y-83140000D02*
X101190000Y-79420000D01*
X115345000Y-70440000D02*
X115345000Y-66720000D01*
X117065000Y-70440000D02*
X117065000Y-66720000D01*
X124870000Y-54565000D02*
X124870000Y-50845000D01*
X126590000Y-54565000D02*
X126590000Y-50845000D01*
X114375000Y-55335000D02*
X110455000Y-55335000D01*
X114375000Y-52615000D02*
X110455000Y-52615000D01*
X114375000Y-55335000D02*
X114375000Y-54725000D01*
X114375000Y-53225000D02*
X114375000Y-52615000D01*
X110455000Y-55335000D02*
X110455000Y-54725000D01*
X110455000Y-53225000D02*
X110455000Y-52615000D01*
X101525000Y-34835000D02*
X105445000Y-34835000D01*
X101525000Y-37555000D02*
X105445000Y-37555000D01*
X101525000Y-34835000D02*
X101525000Y-35445000D01*
X101525000Y-36945000D02*
X101525000Y-37555000D01*
X105445000Y-34835000D02*
X105445000Y-35445000D01*
X105445000Y-36945000D02*
X105445000Y-37555000D01*
X124590722Y-43270277D02*
G75*
G03X119979420Y-43270000I-2305722J-1179723D01*
G01*
X124590722Y-45629723D02*
G75*
G02X119979420Y-45630000I-2305722J1179723D01*
G01*
X124590722Y-45629723D02*
G75*
G03X124590580Y-43270000I-2305722J1179723D01*
G01*
X122285000Y-41900000D02*
X122285000Y-47000000D01*
X122325000Y-41900000D02*
X122325000Y-43470000D01*
X122325000Y-45430000D02*
X122325000Y-47000000D01*
X122365000Y-41901000D02*
X122365000Y-43470000D01*
X122365000Y-45430000D02*
X122365000Y-46999000D01*
X122405000Y-41902000D02*
X122405000Y-43470000D01*
X122405000Y-45430000D02*
X122405000Y-46998000D01*
X122445000Y-41904000D02*
X122445000Y-43470000D01*
X122445000Y-45430000D02*
X122445000Y-46996000D01*
X122485000Y-41907000D02*
X122485000Y-43470000D01*
X122485000Y-45430000D02*
X122485000Y-46993000D01*
X122525000Y-41911000D02*
X122525000Y-43470000D01*
X122525000Y-45430000D02*
X122525000Y-46989000D01*
X122565000Y-41915000D02*
X122565000Y-43470000D01*
X122565000Y-45430000D02*
X122565000Y-46985000D01*
X122605000Y-41919000D02*
X122605000Y-43470000D01*
X122605000Y-45430000D02*
X122605000Y-46981000D01*
X122645000Y-41925000D02*
X122645000Y-43470000D01*
X122645000Y-45430000D02*
X122645000Y-46975000D01*
X122685000Y-41931000D02*
X122685000Y-43470000D01*
X122685000Y-45430000D02*
X122685000Y-46969000D01*
X122725000Y-41937000D02*
X122725000Y-43470000D01*
X122725000Y-45430000D02*
X122725000Y-46963000D01*
X122765000Y-41944000D02*
X122765000Y-43470000D01*
X122765000Y-45430000D02*
X122765000Y-46956000D01*
X122805000Y-41952000D02*
X122805000Y-43470000D01*
X122805000Y-45430000D02*
X122805000Y-46948000D01*
X122845000Y-41961000D02*
X122845000Y-43470000D01*
X122845000Y-45430000D02*
X122845000Y-46939000D01*
X122885000Y-41970000D02*
X122885000Y-43470000D01*
X122885000Y-45430000D02*
X122885000Y-46930000D01*
X122925000Y-41980000D02*
X122925000Y-43470000D01*
X122925000Y-45430000D02*
X122925000Y-46920000D01*
X122965000Y-41990000D02*
X122965000Y-43470000D01*
X122965000Y-45430000D02*
X122965000Y-46910000D01*
X123006000Y-42002000D02*
X123006000Y-43470000D01*
X123006000Y-45430000D02*
X123006000Y-46898000D01*
X123046000Y-42014000D02*
X123046000Y-43470000D01*
X123046000Y-45430000D02*
X123046000Y-46886000D01*
X123086000Y-42026000D02*
X123086000Y-43470000D01*
X123086000Y-45430000D02*
X123086000Y-46874000D01*
X123126000Y-42040000D02*
X123126000Y-43470000D01*
X123126000Y-45430000D02*
X123126000Y-46860000D01*
X123166000Y-42054000D02*
X123166000Y-43470000D01*
X123166000Y-45430000D02*
X123166000Y-46846000D01*
X123206000Y-42068000D02*
X123206000Y-43470000D01*
X123206000Y-45430000D02*
X123206000Y-46832000D01*
X123246000Y-42084000D02*
X123246000Y-43470000D01*
X123246000Y-45430000D02*
X123246000Y-46816000D01*
X123286000Y-42100000D02*
X123286000Y-43470000D01*
X123286000Y-45430000D02*
X123286000Y-46800000D01*
X123326000Y-42117000D02*
X123326000Y-43470000D01*
X123326000Y-45430000D02*
X123326000Y-46783000D01*
X123366000Y-42135000D02*
X123366000Y-43470000D01*
X123366000Y-45430000D02*
X123366000Y-46765000D01*
X123406000Y-42154000D02*
X123406000Y-43470000D01*
X123406000Y-45430000D02*
X123406000Y-46746000D01*
X123446000Y-42174000D02*
X123446000Y-43470000D01*
X123446000Y-45430000D02*
X123446000Y-46726000D01*
X123486000Y-42194000D02*
X123486000Y-43470000D01*
X123486000Y-45430000D02*
X123486000Y-46706000D01*
X123526000Y-42216000D02*
X123526000Y-43470000D01*
X123526000Y-45430000D02*
X123526000Y-46684000D01*
X123566000Y-42238000D02*
X123566000Y-43470000D01*
X123566000Y-45430000D02*
X123566000Y-46662000D01*
X123606000Y-42261000D02*
X123606000Y-43470000D01*
X123606000Y-45430000D02*
X123606000Y-46639000D01*
X123646000Y-42285000D02*
X123646000Y-43470000D01*
X123646000Y-45430000D02*
X123646000Y-46615000D01*
X123686000Y-42310000D02*
X123686000Y-43470000D01*
X123686000Y-45430000D02*
X123686000Y-46590000D01*
X123726000Y-42337000D02*
X123726000Y-43470000D01*
X123726000Y-45430000D02*
X123726000Y-46563000D01*
X123766000Y-42364000D02*
X123766000Y-43470000D01*
X123766000Y-45430000D02*
X123766000Y-46536000D01*
X123806000Y-42392000D02*
X123806000Y-43470000D01*
X123806000Y-45430000D02*
X123806000Y-46508000D01*
X123846000Y-42422000D02*
X123846000Y-43470000D01*
X123846000Y-45430000D02*
X123846000Y-46478000D01*
X123886000Y-42453000D02*
X123886000Y-43470000D01*
X123886000Y-45430000D02*
X123886000Y-46447000D01*
X123926000Y-42485000D02*
X123926000Y-43470000D01*
X123926000Y-45430000D02*
X123926000Y-46415000D01*
X123966000Y-42518000D02*
X123966000Y-43470000D01*
X123966000Y-45430000D02*
X123966000Y-46382000D01*
X124006000Y-42553000D02*
X124006000Y-43470000D01*
X124006000Y-45430000D02*
X124006000Y-46347000D01*
X124046000Y-42589000D02*
X124046000Y-43470000D01*
X124046000Y-45430000D02*
X124046000Y-46311000D01*
X124086000Y-42627000D02*
X124086000Y-43470000D01*
X124086000Y-45430000D02*
X124086000Y-46273000D01*
X124126000Y-42667000D02*
X124126000Y-43470000D01*
X124126000Y-45430000D02*
X124126000Y-46233000D01*
X124166000Y-42708000D02*
X124166000Y-43470000D01*
X124166000Y-45430000D02*
X124166000Y-46192000D01*
X124206000Y-42751000D02*
X124206000Y-43470000D01*
X124206000Y-45430000D02*
X124206000Y-46149000D01*
X124246000Y-42796000D02*
X124246000Y-43470000D01*
X124246000Y-45430000D02*
X124246000Y-46104000D01*
X124286000Y-42844000D02*
X124286000Y-46056000D01*
X124326000Y-42894000D02*
X124326000Y-46006000D01*
X124366000Y-42946000D02*
X124366000Y-45954000D01*
X124406000Y-43002000D02*
X124406000Y-45898000D01*
X124446000Y-43060000D02*
X124446000Y-45840000D01*
X124486000Y-43123000D02*
X124486000Y-45777000D01*
X124526000Y-43189000D02*
X124526000Y-45711000D01*
X124566000Y-43261000D02*
X124566000Y-45639000D01*
X124606000Y-43338000D02*
X124606000Y-45562000D01*
X124646000Y-43422000D02*
X124646000Y-45478000D01*
X124686000Y-43516000D02*
X124686000Y-45384000D01*
X124726000Y-43621000D02*
X124726000Y-45279000D01*
X124766000Y-43743000D02*
X124766000Y-45157000D01*
X124806000Y-43891000D02*
X124806000Y-45009000D01*
X124846000Y-44096000D02*
X124846000Y-44804000D01*
X119085000Y-44450000D02*
X120285000Y-44450000D01*
X119685000Y-43800000D02*
X119685000Y-45100000D01*
X114995000Y-93405000D02*
X114995000Y-88205000D01*
X104775000Y-93405000D02*
X114995000Y-93405000D01*
X102175000Y-88205000D02*
X114995000Y-88205000D01*
X104775000Y-93405000D02*
X104775000Y-90805000D01*
X104775000Y-90805000D02*
X102175000Y-90805000D01*
X102175000Y-90805000D02*
X102175000Y-88205000D01*
X103505000Y-93405000D02*
X102175000Y-93405000D01*
X102175000Y-93405000D02*
X102175000Y-92075000D01*
X125955000Y-73705000D02*
X125955000Y-77425000D01*
X124235000Y-73705000D02*
X124235000Y-77425000D01*
X124870000Y-63455000D02*
X124870000Y-59735000D01*
X126590000Y-63455000D02*
X126590000Y-59735000D01*
X100905000Y-51375000D02*
X100905000Y-54035000D01*
X103505000Y-51375000D02*
X100905000Y-51375000D01*
X103505000Y-54035000D02*
X100905000Y-54035000D01*
X103505000Y-51375000D02*
X103505000Y-54035000D01*
X104775000Y-51375000D02*
X106105000Y-51375000D01*
X106105000Y-51375000D02*
X106105000Y-52705000D01*
X123720000Y-80700000D02*
X120120000Y-80700000D01*
X123758478Y-80711522D02*
G75*
G02X121920000Y-85150000I-1838478J-1838478D01*
G01*
X120081522Y-80711522D02*
G75*
G03X121920000Y-85150000I1838478J-1838478D01*
G01*
X117580000Y-55825000D02*
X121180000Y-55825000D01*
X117541522Y-55813478D02*
G75*
G02X119380000Y-51375000I1838478J1838478D01*
G01*
X121218478Y-55813478D02*
G75*
G03X119380000Y-51375000I-1838478J1838478D01*
G01*
X106105000Y-48320000D02*
X106105000Y-45660000D01*
X103505000Y-48320000D02*
X106105000Y-48320000D01*
X103505000Y-45660000D02*
X106105000Y-45660000D01*
X103505000Y-48320000D02*
X103505000Y-45660000D01*
X102235000Y-48320000D02*
X100905000Y-48320000D01*
X100905000Y-48320000D02*
X100905000Y-46990000D01*
X119080000Y-58360000D02*
X120410000Y-58360000D01*
X119080000Y-59690000D02*
X119080000Y-58360000D01*
X121740000Y-60960000D02*
X119080000Y-60960000D01*
X121740000Y-78800000D02*
X121740000Y-60960000D01*
X119080000Y-78800000D02*
X121740000Y-78800000D01*
X119080000Y-60960000D02*
X119080000Y-78800000D01*
X104080000Y-60960000D02*
X104080000Y-78800000D01*
X104080000Y-78800000D02*
X106740000Y-78800000D01*
X106740000Y-78800000D02*
X106740000Y-60960000D01*
X106740000Y-60960000D02*
X104080000Y-60960000D01*
X104080000Y-59690000D02*
X104080000Y-58360000D01*
X104080000Y-58360000D02*
X105410000Y-58360000D01*
D13*
X113478334Y-74582143D02*
X113430715Y-74629762D01*
X113287858Y-74677381D01*
X113192620Y-74677381D01*
X113049762Y-74629762D01*
X112954524Y-74534524D01*
X112906905Y-74439286D01*
X112859286Y-74248810D01*
X112859286Y-74105952D01*
X112906905Y-73915476D01*
X112954524Y-73820238D01*
X113049762Y-73725000D01*
X113192620Y-73677381D01*
X113287858Y-73677381D01*
X113430715Y-73725000D01*
X113478334Y-73772619D01*
X114335477Y-74010714D02*
X114335477Y-74677381D01*
X114097381Y-73629762D02*
X113859286Y-74344048D01*
X114478334Y-74344048D01*
X99996667Y-58082381D02*
X99996667Y-58796667D01*
X99949047Y-58939524D01*
X99853809Y-59034762D01*
X99710952Y-59082381D01*
X99615714Y-59082381D01*
X100996667Y-59082381D02*
X100425238Y-59082381D01*
X100710952Y-59082381D02*
X100710952Y-58082381D01*
X100615714Y-58225238D01*
X100520476Y-58320476D01*
X100425238Y-58368095D01*
X98242381Y-64991905D02*
X97242381Y-64991905D01*
X97956667Y-64658571D01*
X97242381Y-64325238D01*
X98242381Y-64325238D01*
X98242381Y-63325238D02*
X98242381Y-63896667D01*
X98242381Y-63610953D02*
X97242381Y-63610953D01*
X97385238Y-63706191D01*
X97480476Y-63801429D01*
X97528095Y-63896667D01*
X98242381Y-62134762D02*
X97242381Y-62134762D01*
X97242381Y-61753809D01*
X97290000Y-61658571D01*
X97337619Y-61610952D01*
X97432857Y-61563333D01*
X97575714Y-61563333D01*
X97670952Y-61610952D01*
X97718571Y-61658571D01*
X97766190Y-61753809D01*
X97766190Y-62134762D01*
X97242381Y-61230000D02*
X98242381Y-60991905D01*
X97528095Y-60801428D01*
X98242381Y-60610952D01*
X97242381Y-60372857D01*
X98242381Y-59420476D02*
X97766190Y-59753810D01*
X98242381Y-59991905D02*
X97242381Y-59991905D01*
X97242381Y-59610952D01*
X97290000Y-59515714D01*
X97337619Y-59468095D01*
X97432857Y-59420476D01*
X97575714Y-59420476D01*
X97670952Y-59468095D01*
X97718571Y-59515714D01*
X97766190Y-59610952D01*
X97766190Y-59991905D01*
X99996667Y-74172381D02*
X99996667Y-74886667D01*
X99949047Y-75029524D01*
X99853809Y-75124762D01*
X99710952Y-75172381D01*
X99615714Y-75172381D01*
X100425238Y-74267619D02*
X100472857Y-74220000D01*
X100568095Y-74172381D01*
X100806191Y-74172381D01*
X100901429Y-74220000D01*
X100949048Y-74267619D01*
X100996667Y-74362857D01*
X100996667Y-74458095D01*
X100949048Y-74600952D01*
X100377619Y-75172381D01*
X100996667Y-75172381D01*
X98242381Y-73881905D02*
X97242381Y-73881905D01*
X97956667Y-73548571D01*
X97242381Y-73215238D01*
X98242381Y-73215238D01*
X97337619Y-72786667D02*
X97290000Y-72739048D01*
X97242381Y-72643810D01*
X97242381Y-72405714D01*
X97290000Y-72310476D01*
X97337619Y-72262857D01*
X97432857Y-72215238D01*
X97528095Y-72215238D01*
X97670952Y-72262857D01*
X98242381Y-72834286D01*
X98242381Y-72215238D01*
X98242381Y-71024762D02*
X97242381Y-71024762D01*
X97242381Y-70643809D01*
X97290000Y-70548571D01*
X97337619Y-70500952D01*
X97432857Y-70453333D01*
X97575714Y-70453333D01*
X97670952Y-70500952D01*
X97718571Y-70548571D01*
X97766190Y-70643809D01*
X97766190Y-71024762D01*
X97242381Y-70120000D02*
X98242381Y-69881905D01*
X97528095Y-69691428D01*
X98242381Y-69500952D01*
X97242381Y-69262857D01*
X98242381Y-68310476D02*
X97766190Y-68643810D01*
X98242381Y-68881905D02*
X97242381Y-68881905D01*
X97242381Y-68500952D01*
X97290000Y-68405714D01*
X97337619Y-68358095D01*
X97432857Y-68310476D01*
X97575714Y-68310476D01*
X97670952Y-68358095D01*
X97718571Y-68405714D01*
X97766190Y-68500952D01*
X97766190Y-68881905D01*
X112903095Y-28402381D02*
X112903095Y-29211905D01*
X112950714Y-29307143D01*
X112998333Y-29354762D01*
X113093571Y-29402381D01*
X113284048Y-29402381D01*
X113379286Y-29354762D01*
X113426905Y-29307143D01*
X113474524Y-29211905D01*
X113474524Y-28402381D01*
X113903095Y-28497619D02*
X113950714Y-28450000D01*
X114045952Y-28402381D01*
X114284048Y-28402381D01*
X114379286Y-28450000D01*
X114426905Y-28497619D01*
X114474524Y-28592857D01*
X114474524Y-28688095D01*
X114426905Y-28830952D01*
X113855476Y-29402381D01*
X114474524Y-29402381D01*
X112069762Y-51882381D02*
X111593571Y-51882381D01*
X111593571Y-50882381D01*
X112307857Y-50882381D02*
X112974524Y-50882381D01*
X112545952Y-51882381D01*
X113498333Y-51310952D02*
X113403095Y-51263333D01*
X113355476Y-51215714D01*
X113307857Y-51120476D01*
X113307857Y-51072857D01*
X113355476Y-50977619D01*
X113403095Y-50930000D01*
X113498333Y-50882381D01*
X113688810Y-50882381D01*
X113784048Y-50930000D01*
X113831667Y-50977619D01*
X113879286Y-51072857D01*
X113879286Y-51120476D01*
X113831667Y-51215714D01*
X113784048Y-51263333D01*
X113688810Y-51310952D01*
X113498333Y-51310952D01*
X113403095Y-51358571D01*
X113355476Y-51406190D01*
X113307857Y-51501429D01*
X113307857Y-51691905D01*
X113355476Y-51787143D01*
X113403095Y-51834762D01*
X113498333Y-51882381D01*
X113688810Y-51882381D01*
X113784048Y-51834762D01*
X113831667Y-51787143D01*
X113879286Y-51691905D01*
X113879286Y-51501429D01*
X113831667Y-51406190D01*
X113784048Y-51358571D01*
X113688810Y-51310952D01*
X114498333Y-50882381D02*
X114593572Y-50882381D01*
X114688810Y-50930000D01*
X114736429Y-50977619D01*
X114784048Y-51072857D01*
X114831667Y-51263333D01*
X114831667Y-51501429D01*
X114784048Y-51691905D01*
X114736429Y-51787143D01*
X114688810Y-51834762D01*
X114593572Y-51882381D01*
X114498333Y-51882381D01*
X114403095Y-51834762D01*
X114355476Y-51787143D01*
X114307857Y-51691905D01*
X114260238Y-51501429D01*
X114260238Y-51263333D01*
X114307857Y-51072857D01*
X114355476Y-50977619D01*
X114403095Y-50930000D01*
X114498333Y-50882381D01*
X115736429Y-50882381D02*
X115260238Y-50882381D01*
X115212619Y-51358571D01*
X115260238Y-51310952D01*
X115355476Y-51263333D01*
X115593572Y-51263333D01*
X115688810Y-51310952D01*
X115736429Y-51358571D01*
X115784048Y-51453810D01*
X115784048Y-51691905D01*
X115736429Y-51787143D01*
X115688810Y-51834762D01*
X115593572Y-51882381D01*
X115355476Y-51882381D01*
X115260238Y-51834762D01*
X115212619Y-51787143D01*
X112903095Y-78442381D02*
X112903095Y-79251905D01*
X112950714Y-79347143D01*
X112998333Y-79394762D01*
X113093571Y-79442381D01*
X113284048Y-79442381D01*
X113379286Y-79394762D01*
X113426905Y-79347143D01*
X113474524Y-79251905D01*
X113474524Y-78442381D01*
X113855476Y-78442381D02*
X114474524Y-78442381D01*
X114141190Y-78823333D01*
X114284048Y-78823333D01*
X114379286Y-78870952D01*
X114426905Y-78918571D01*
X114474524Y-79013810D01*
X114474524Y-79251905D01*
X114426905Y-79347143D01*
X114379286Y-79394762D01*
X114284048Y-79442381D01*
X113998333Y-79442381D01*
X113903095Y-79394762D01*
X113855476Y-79347143D01*
X109426905Y-85792381D02*
X108950714Y-85792381D01*
X108950714Y-84792381D01*
X109665000Y-84792381D02*
X110331667Y-84792381D01*
X109903095Y-85792381D01*
X110855476Y-85220952D02*
X110760238Y-85173333D01*
X110712619Y-85125714D01*
X110665000Y-85030476D01*
X110665000Y-84982857D01*
X110712619Y-84887619D01*
X110760238Y-84840000D01*
X110855476Y-84792381D01*
X111045953Y-84792381D01*
X111141191Y-84840000D01*
X111188810Y-84887619D01*
X111236429Y-84982857D01*
X111236429Y-85030476D01*
X111188810Y-85125714D01*
X111141191Y-85173333D01*
X111045953Y-85220952D01*
X110855476Y-85220952D01*
X110760238Y-85268571D01*
X110712619Y-85316190D01*
X110665000Y-85411429D01*
X110665000Y-85601905D01*
X110712619Y-85697143D01*
X110760238Y-85744762D01*
X110855476Y-85792381D01*
X111045953Y-85792381D01*
X111141191Y-85744762D01*
X111188810Y-85697143D01*
X111236429Y-85601905D01*
X111236429Y-85411429D01*
X111188810Y-85316190D01*
X111141191Y-85268571D01*
X111045953Y-85220952D01*
X112141191Y-85792381D02*
X111665000Y-85792381D01*
X111665000Y-84792381D01*
X112379286Y-84792381D02*
X112998334Y-84792381D01*
X112665000Y-85173333D01*
X112807858Y-85173333D01*
X112903096Y-85220952D01*
X112950715Y-85268571D01*
X112998334Y-85363810D01*
X112998334Y-85601905D01*
X112950715Y-85697143D01*
X112903096Y-85744762D01*
X112807858Y-85792381D01*
X112522143Y-85792381D01*
X112426905Y-85744762D01*
X112379286Y-85697143D01*
X113331667Y-84792381D02*
X113950715Y-84792381D01*
X113617381Y-85173333D01*
X113760239Y-85173333D01*
X113855477Y-85220952D01*
X113903096Y-85268571D01*
X113950715Y-85363810D01*
X113950715Y-85601905D01*
X113903096Y-85697143D01*
X113855477Y-85744762D01*
X113760239Y-85792381D01*
X113474524Y-85792381D01*
X113379286Y-85744762D01*
X113331667Y-85697143D01*
X114141191Y-85887619D02*
X114903096Y-85887619D01*
X114998334Y-84792381D02*
X115569763Y-84792381D01*
X115284048Y-85792381D02*
X115284048Y-84792381D01*
X116093572Y-84792381D02*
X116284049Y-84792381D01*
X116379287Y-84840000D01*
X116474525Y-84935238D01*
X116522144Y-85125714D01*
X116522144Y-85459048D01*
X116474525Y-85649524D01*
X116379287Y-85744762D01*
X116284049Y-85792381D01*
X116093572Y-85792381D01*
X115998334Y-85744762D01*
X115903096Y-85649524D01*
X115855477Y-85459048D01*
X115855477Y-85125714D01*
X115903096Y-84935238D01*
X115998334Y-84840000D01*
X116093572Y-84792381D01*
X116998334Y-85792381D02*
X117188810Y-85792381D01*
X117284049Y-85744762D01*
X117331668Y-85697143D01*
X117426906Y-85554286D01*
X117474525Y-85363810D01*
X117474525Y-84982857D01*
X117426906Y-84887619D01*
X117379287Y-84840000D01*
X117284049Y-84792381D01*
X117093572Y-84792381D01*
X116998334Y-84840000D01*
X116950715Y-84887619D01*
X116903096Y-84982857D01*
X116903096Y-85220952D01*
X116950715Y-85316190D01*
X116998334Y-85363810D01*
X117093572Y-85411429D01*
X117284049Y-85411429D01*
X117379287Y-85363810D01*
X117426906Y-85316190D01*
X117474525Y-85220952D01*
X117855477Y-84887619D02*
X117903096Y-84840000D01*
X117998334Y-84792381D01*
X118236430Y-84792381D01*
X118331668Y-84840000D01*
X118379287Y-84887619D01*
X118426906Y-84982857D01*
X118426906Y-85078095D01*
X118379287Y-85220952D01*
X117807858Y-85792381D01*
X118426906Y-85792381D01*
X103068334Y-37822143D02*
X103020715Y-37869762D01*
X102877858Y-37917381D01*
X102782620Y-37917381D01*
X102639762Y-37869762D01*
X102544524Y-37774524D01*
X102496905Y-37679286D01*
X102449286Y-37488810D01*
X102449286Y-37345952D01*
X102496905Y-37155476D01*
X102544524Y-37060238D01*
X102639762Y-36965000D01*
X102782620Y-36917381D01*
X102877858Y-36917381D01*
X103020715Y-36965000D01*
X103068334Y-37012619D01*
X103925477Y-36917381D02*
X103735000Y-36917381D01*
X103639762Y-36965000D01*
X103592143Y-37012619D01*
X103496905Y-37155476D01*
X103449286Y-37345952D01*
X103449286Y-37726905D01*
X103496905Y-37822143D01*
X103544524Y-37869762D01*
X103639762Y-37917381D01*
X103830239Y-37917381D01*
X103925477Y-37869762D01*
X103973096Y-37822143D01*
X104020715Y-37726905D01*
X104020715Y-37488810D01*
X103973096Y-37393571D01*
X103925477Y-37345952D01*
X103830239Y-37298333D01*
X103639762Y-37298333D01*
X103544524Y-37345952D01*
X103496905Y-37393571D01*
X103449286Y-37488810D01*
X105306905Y-80677381D02*
X105306905Y-79677381D01*
X105545000Y-79677381D01*
X105687858Y-79725000D01*
X105783096Y-79820238D01*
X105830715Y-79915476D01*
X105878334Y-80105952D01*
X105878334Y-80248810D01*
X105830715Y-80439286D01*
X105783096Y-80534524D01*
X105687858Y-80629762D01*
X105545000Y-80677381D01*
X105306905Y-80677381D01*
X106830715Y-80677381D02*
X106259286Y-80677381D01*
X106545000Y-80677381D02*
X106545000Y-79677381D01*
X106449762Y-79820238D01*
X106354524Y-79915476D01*
X106259286Y-79963095D01*
X104711667Y-86597381D02*
X104711667Y-85597381D01*
X105092620Y-85597381D01*
X105187858Y-85645000D01*
X105235477Y-85692619D01*
X105283096Y-85787857D01*
X105283096Y-85930714D01*
X105235477Y-86025952D01*
X105187858Y-86073571D01*
X105092620Y-86121190D01*
X104711667Y-86121190D01*
X105616429Y-85597381D02*
X105854524Y-86597381D01*
X106045001Y-85883095D01*
X106235477Y-86597381D01*
X106473572Y-85597381D01*
X107425953Y-86597381D02*
X107092619Y-86121190D01*
X106854524Y-86597381D02*
X106854524Y-85597381D01*
X107235477Y-85597381D01*
X107330715Y-85645000D01*
X107378334Y-85692619D01*
X107425953Y-85787857D01*
X107425953Y-85930714D01*
X107378334Y-86025952D01*
X107330715Y-86073571D01*
X107235477Y-86121190D01*
X106854524Y-86121190D01*
X121745477Y-86447381D02*
X121745477Y-87161667D01*
X121697857Y-87304524D01*
X121602619Y-87399762D01*
X121459762Y-87447381D01*
X121364524Y-87447381D01*
X122745477Y-87447381D02*
X122174048Y-87447381D01*
X122459762Y-87447381D02*
X122459762Y-86447381D01*
X122364524Y-86590238D01*
X122269286Y-86685476D01*
X122174048Y-86733095D01*
X123697858Y-87447381D02*
X123126429Y-87447381D01*
X123412143Y-87447381D02*
X123412143Y-86447381D01*
X123316905Y-86590238D01*
X123221667Y-86685476D01*
X123126429Y-86733095D01*
X125547381Y-93805000D02*
X124547381Y-93805000D01*
X125261667Y-93471666D01*
X124547381Y-93138333D01*
X125547381Y-93138333D01*
X125023571Y-92328809D02*
X125071190Y-92185952D01*
X125118810Y-92138333D01*
X125214048Y-92090714D01*
X125356905Y-92090714D01*
X125452143Y-92138333D01*
X125499762Y-92185952D01*
X125547381Y-92281190D01*
X125547381Y-92662143D01*
X124547381Y-92662143D01*
X124547381Y-92328809D01*
X124595000Y-92233571D01*
X124642619Y-92185952D01*
X124737857Y-92138333D01*
X124833095Y-92138333D01*
X124928333Y-92185952D01*
X124975952Y-92233571D01*
X125023571Y-92328809D01*
X125023571Y-92662143D01*
X125452143Y-90328809D02*
X125499762Y-90376428D01*
X125547381Y-90519285D01*
X125547381Y-90614523D01*
X125499762Y-90757381D01*
X125404524Y-90852619D01*
X125309286Y-90900238D01*
X125118810Y-90947857D01*
X124975952Y-90947857D01*
X124785476Y-90900238D01*
X124690238Y-90852619D01*
X124595000Y-90757381D01*
X124547381Y-90614523D01*
X124547381Y-90519285D01*
X124595000Y-90376428D01*
X124642619Y-90328809D01*
X124547381Y-90043095D02*
X124547381Y-89471666D01*
X125547381Y-89757381D02*
X124547381Y-89757381D01*
X125547381Y-88566904D02*
X125071190Y-88900238D01*
X125547381Y-89138333D02*
X124547381Y-89138333D01*
X124547381Y-88757380D01*
X124595000Y-88662142D01*
X124642619Y-88614523D01*
X124737857Y-88566904D01*
X124880714Y-88566904D01*
X124975952Y-88614523D01*
X125023571Y-88662142D01*
X125071190Y-88757380D01*
X125071190Y-89138333D01*
X125547381Y-87662142D02*
X125547381Y-88138333D01*
X124547381Y-88138333D01*
X117935477Y-86447381D02*
X117935477Y-87161667D01*
X117887857Y-87304524D01*
X117792619Y-87399762D01*
X117649762Y-87447381D01*
X117554524Y-87447381D01*
X118935477Y-87447381D02*
X118364048Y-87447381D01*
X118649762Y-87447381D02*
X118649762Y-86447381D01*
X118554524Y-86590238D01*
X118459286Y-86685476D01*
X118364048Y-86733095D01*
X119316429Y-86542619D02*
X119364048Y-86495000D01*
X119459286Y-86447381D01*
X119697382Y-86447381D01*
X119792620Y-86495000D01*
X119840239Y-86542619D01*
X119887858Y-86637857D01*
X119887858Y-86733095D01*
X119840239Y-86875952D01*
X119268810Y-87447381D01*
X119887858Y-87447381D01*
X116657381Y-93733572D02*
X115657381Y-93733572D01*
X116371667Y-93400238D01*
X115657381Y-93066905D01*
X116657381Y-93066905D01*
X116371667Y-92638334D02*
X116371667Y-92162143D01*
X116657381Y-92733572D02*
X115657381Y-92400239D01*
X116657381Y-92066905D01*
X116562143Y-90400238D02*
X116609762Y-90447857D01*
X116657381Y-90590714D01*
X116657381Y-90685952D01*
X116609762Y-90828810D01*
X116514524Y-90924048D01*
X116419286Y-90971667D01*
X116228810Y-91019286D01*
X116085952Y-91019286D01*
X115895476Y-90971667D01*
X115800238Y-90924048D01*
X115705000Y-90828810D01*
X115657381Y-90685952D01*
X115657381Y-90590714D01*
X115705000Y-90447857D01*
X115752619Y-90400238D01*
X115657381Y-90114524D02*
X115657381Y-89543095D01*
X116657381Y-89828810D02*
X115657381Y-89828810D01*
X116657381Y-88638333D02*
X116181190Y-88971667D01*
X116657381Y-89209762D02*
X115657381Y-89209762D01*
X115657381Y-88828809D01*
X115705000Y-88733571D01*
X115752619Y-88685952D01*
X115847857Y-88638333D01*
X115990714Y-88638333D01*
X116085952Y-88685952D01*
X116133571Y-88733571D01*
X116181190Y-88828809D01*
X116181190Y-89209762D01*
X116657381Y-87733571D02*
X116657381Y-88209762D01*
X115657381Y-88209762D01*
X98922381Y-81446666D02*
X98446190Y-81780000D01*
X98922381Y-82018095D02*
X97922381Y-82018095D01*
X97922381Y-81637142D01*
X97970000Y-81541904D01*
X98017619Y-81494285D01*
X98112857Y-81446666D01*
X98255714Y-81446666D01*
X98350952Y-81494285D01*
X98398571Y-81541904D01*
X98446190Y-81637142D01*
X98446190Y-82018095D01*
X98922381Y-80494285D02*
X98922381Y-81065714D01*
X98922381Y-80780000D02*
X97922381Y-80780000D01*
X98065238Y-80875238D01*
X98160476Y-80970476D01*
X98208095Y-81065714D01*
X101642381Y-82565714D02*
X101642381Y-81946666D01*
X102023333Y-82280000D01*
X102023333Y-82137142D01*
X102070952Y-82041904D01*
X102118571Y-81994285D01*
X102213810Y-81946666D01*
X102451905Y-81946666D01*
X102547143Y-81994285D01*
X102594762Y-82041904D01*
X102642381Y-82137142D01*
X102642381Y-82422857D01*
X102594762Y-82518095D01*
X102547143Y-82565714D01*
X101642381Y-81613333D02*
X101642381Y-80994285D01*
X102023333Y-81327619D01*
X102023333Y-81184761D01*
X102070952Y-81089523D01*
X102118571Y-81041904D01*
X102213810Y-80994285D01*
X102451905Y-80994285D01*
X102547143Y-81041904D01*
X102594762Y-81089523D01*
X102642381Y-81184761D01*
X102642381Y-81470476D01*
X102594762Y-81565714D01*
X102547143Y-81613333D01*
X101642381Y-80375238D02*
X101642381Y-80279999D01*
X101690000Y-80184761D01*
X101737619Y-80137142D01*
X101832857Y-80089523D01*
X102023333Y-80041904D01*
X102261429Y-80041904D01*
X102451905Y-80089523D01*
X102547143Y-80137142D01*
X102594762Y-80184761D01*
X102642381Y-80279999D01*
X102642381Y-80375238D01*
X102594762Y-80470476D01*
X102547143Y-80518095D01*
X102451905Y-80565714D01*
X102261429Y-80613333D01*
X102023333Y-80613333D01*
X101832857Y-80565714D01*
X101737619Y-80518095D01*
X101690000Y-80470476D01*
X101642381Y-80375238D01*
X114797381Y-68746666D02*
X114321190Y-69080000D01*
X114797381Y-69318095D02*
X113797381Y-69318095D01*
X113797381Y-68937142D01*
X113845000Y-68841904D01*
X113892619Y-68794285D01*
X113987857Y-68746666D01*
X114130714Y-68746666D01*
X114225952Y-68794285D01*
X114273571Y-68841904D01*
X114321190Y-68937142D01*
X114321190Y-69318095D01*
X113797381Y-68413333D02*
X113797381Y-67794285D01*
X114178333Y-68127619D01*
X114178333Y-67984761D01*
X114225952Y-67889523D01*
X114273571Y-67841904D01*
X114368810Y-67794285D01*
X114606905Y-67794285D01*
X114702143Y-67841904D01*
X114749762Y-67889523D01*
X114797381Y-67984761D01*
X114797381Y-68270476D01*
X114749762Y-68365714D01*
X114702143Y-68413333D01*
X118517381Y-69175238D02*
X118517381Y-69746667D01*
X118517381Y-69460953D02*
X117517381Y-69460953D01*
X117660238Y-69556191D01*
X117755476Y-69651429D01*
X117803095Y-69746667D01*
X117517381Y-68556191D02*
X117517381Y-68460952D01*
X117565000Y-68365714D01*
X117612619Y-68318095D01*
X117707857Y-68270476D01*
X117898333Y-68222857D01*
X118136429Y-68222857D01*
X118326905Y-68270476D01*
X118422143Y-68318095D01*
X118469762Y-68365714D01*
X118517381Y-68460952D01*
X118517381Y-68556191D01*
X118469762Y-68651429D01*
X118422143Y-68699048D01*
X118326905Y-68746667D01*
X118136429Y-68794286D01*
X117898333Y-68794286D01*
X117707857Y-68746667D01*
X117612619Y-68699048D01*
X117565000Y-68651429D01*
X117517381Y-68556191D01*
X118517381Y-67794286D02*
X117517381Y-67794286D01*
X118136429Y-67699048D02*
X118517381Y-67413333D01*
X117850714Y-67413333D02*
X118231667Y-67794286D01*
X124322381Y-52871666D02*
X123846190Y-53205000D01*
X124322381Y-53443095D02*
X123322381Y-53443095D01*
X123322381Y-53062142D01*
X123370000Y-52966904D01*
X123417619Y-52919285D01*
X123512857Y-52871666D01*
X123655714Y-52871666D01*
X123750952Y-52919285D01*
X123798571Y-52966904D01*
X123846190Y-53062142D01*
X123846190Y-53443095D01*
X123655714Y-52014523D02*
X124322381Y-52014523D01*
X123274762Y-52252619D02*
X123989048Y-52490714D01*
X123989048Y-51871666D01*
X128042381Y-53300238D02*
X128042381Y-53871667D01*
X128042381Y-53585953D02*
X127042381Y-53585953D01*
X127185238Y-53681191D01*
X127280476Y-53776429D01*
X127328095Y-53871667D01*
X127042381Y-52681191D02*
X127042381Y-52585952D01*
X127090000Y-52490714D01*
X127137619Y-52443095D01*
X127232857Y-52395476D01*
X127423333Y-52347857D01*
X127661429Y-52347857D01*
X127851905Y-52395476D01*
X127947143Y-52443095D01*
X127994762Y-52490714D01*
X128042381Y-52585952D01*
X128042381Y-52681191D01*
X127994762Y-52776429D01*
X127947143Y-52824048D01*
X127851905Y-52871667D01*
X127661429Y-52919286D01*
X127423333Y-52919286D01*
X127232857Y-52871667D01*
X127137619Y-52824048D01*
X127090000Y-52776429D01*
X127042381Y-52681191D01*
X128042381Y-51919286D02*
X127042381Y-51919286D01*
X127661429Y-51824048D02*
X128042381Y-51538333D01*
X127375714Y-51538333D02*
X127756667Y-51919286D01*
X112248334Y-56942143D02*
X112200715Y-56989762D01*
X112057858Y-57037381D01*
X111962620Y-57037381D01*
X111819762Y-56989762D01*
X111724524Y-56894524D01*
X111676905Y-56799286D01*
X111629286Y-56608810D01*
X111629286Y-56465952D01*
X111676905Y-56275476D01*
X111724524Y-56180238D01*
X111819762Y-56085000D01*
X111962620Y-56037381D01*
X112057858Y-56037381D01*
X112200715Y-56085000D01*
X112248334Y-56132619D01*
X113200715Y-57037381D02*
X112629286Y-57037381D01*
X112915000Y-57037381D02*
X112915000Y-56037381D01*
X112819762Y-56180238D01*
X112724524Y-56275476D01*
X112629286Y-56323095D01*
X103318334Y-33942143D02*
X103270715Y-33989762D01*
X103127858Y-34037381D01*
X103032620Y-34037381D01*
X102889762Y-33989762D01*
X102794524Y-33894524D01*
X102746905Y-33799286D01*
X102699286Y-33608810D01*
X102699286Y-33465952D01*
X102746905Y-33275476D01*
X102794524Y-33180238D01*
X102889762Y-33085000D01*
X103032620Y-33037381D01*
X103127858Y-33037381D01*
X103270715Y-33085000D01*
X103318334Y-33132619D01*
X103699286Y-33132619D02*
X103746905Y-33085000D01*
X103842143Y-33037381D01*
X104080239Y-33037381D01*
X104175477Y-33085000D01*
X104223096Y-33132619D01*
X104270715Y-33227857D01*
X104270715Y-33323095D01*
X104223096Y-33465952D01*
X103651667Y-34037381D01*
X104270715Y-34037381D01*
X122118334Y-40997143D02*
X122070715Y-41044762D01*
X121927858Y-41092381D01*
X121832620Y-41092381D01*
X121689762Y-41044762D01*
X121594524Y-40949524D01*
X121546905Y-40854286D01*
X121499286Y-40663810D01*
X121499286Y-40520952D01*
X121546905Y-40330476D01*
X121594524Y-40235238D01*
X121689762Y-40140000D01*
X121832620Y-40092381D01*
X121927858Y-40092381D01*
X122070715Y-40140000D01*
X122118334Y-40187619D01*
X122451667Y-40092381D02*
X123070715Y-40092381D01*
X122737381Y-40473333D01*
X122880239Y-40473333D01*
X122975477Y-40520952D01*
X123023096Y-40568571D01*
X123070715Y-40663810D01*
X123070715Y-40901905D01*
X123023096Y-40997143D01*
X122975477Y-41044762D01*
X122880239Y-41092381D01*
X122594524Y-41092381D01*
X122499286Y-41044762D01*
X122451667Y-40997143D01*
X100417381Y-92408333D02*
X101131667Y-92408333D01*
X101274524Y-92455953D01*
X101369762Y-92551191D01*
X101417381Y-92694048D01*
X101417381Y-92789286D01*
X100417381Y-92027381D02*
X100417381Y-91408333D01*
X100798333Y-91741667D01*
X100798333Y-91598809D01*
X100845952Y-91503571D01*
X100893571Y-91455952D01*
X100988810Y-91408333D01*
X101226905Y-91408333D01*
X101322143Y-91455952D01*
X101369762Y-91503571D01*
X101417381Y-91598809D01*
X101417381Y-91884524D01*
X101369762Y-91979762D01*
X101322143Y-92027381D01*
X102465951Y-87447381D02*
X102465951Y-86447381D01*
X102846904Y-86447381D01*
X102942142Y-86495000D01*
X102989761Y-86542619D01*
X103037380Y-86637857D01*
X103037380Y-86780714D01*
X102989761Y-86875952D01*
X102942142Y-86923571D01*
X102846904Y-86971190D01*
X102465951Y-86971190D01*
X103608808Y-87447381D02*
X103513570Y-87399762D01*
X103465951Y-87352143D01*
X103418332Y-87256905D01*
X103418332Y-86971190D01*
X103465951Y-86875952D01*
X103513570Y-86828333D01*
X103608808Y-86780714D01*
X103751666Y-86780714D01*
X103846904Y-86828333D01*
X103894523Y-86875952D01*
X103942142Y-86971190D01*
X103942142Y-87256905D01*
X103894523Y-87352143D01*
X103846904Y-87399762D01*
X103751666Y-87447381D01*
X103608808Y-87447381D01*
X104275475Y-86780714D02*
X104465951Y-87447381D01*
X104656428Y-86971190D01*
X104846904Y-87447381D01*
X105037380Y-86780714D01*
X105799285Y-87399762D02*
X105704047Y-87447381D01*
X105513570Y-87447381D01*
X105418332Y-87399762D01*
X105370713Y-87304524D01*
X105370713Y-86923571D01*
X105418332Y-86828333D01*
X105513570Y-86780714D01*
X105704047Y-86780714D01*
X105799285Y-86828333D01*
X105846904Y-86923571D01*
X105846904Y-87018810D01*
X105370713Y-87114048D01*
X106275475Y-87447381D02*
X106275475Y-86780714D01*
X106275475Y-86971190D02*
X106323094Y-86875952D01*
X106370713Y-86828333D01*
X106465951Y-86780714D01*
X106561190Y-86780714D01*
X108227857Y-87352143D02*
X108180238Y-87399762D01*
X108037381Y-87447381D01*
X107942143Y-87447381D01*
X107799285Y-87399762D01*
X107704047Y-87304524D01*
X107656428Y-87209286D01*
X107608809Y-87018810D01*
X107608809Y-86875952D01*
X107656428Y-86685476D01*
X107704047Y-86590238D01*
X107799285Y-86495000D01*
X107942143Y-86447381D01*
X108037381Y-86447381D01*
X108180238Y-86495000D01*
X108227857Y-86542619D01*
X108799285Y-87447381D02*
X108704047Y-87399762D01*
X108656428Y-87352143D01*
X108608809Y-87256905D01*
X108608809Y-86971190D01*
X108656428Y-86875952D01*
X108704047Y-86828333D01*
X108799285Y-86780714D01*
X108942143Y-86780714D01*
X109037381Y-86828333D01*
X109085000Y-86875952D01*
X109132619Y-86971190D01*
X109132619Y-87256905D01*
X109085000Y-87352143D01*
X109037381Y-87399762D01*
X108942143Y-87447381D01*
X108799285Y-87447381D01*
X109561190Y-86780714D02*
X109561190Y-87447381D01*
X109561190Y-86875952D02*
X109608809Y-86828333D01*
X109704047Y-86780714D01*
X109846905Y-86780714D01*
X109942143Y-86828333D01*
X109989762Y-86923571D01*
X109989762Y-87447381D01*
X110465952Y-86780714D02*
X110465952Y-87447381D01*
X110465952Y-86875952D02*
X110513571Y-86828333D01*
X110608809Y-86780714D01*
X110751667Y-86780714D01*
X110846905Y-86828333D01*
X110894524Y-86923571D01*
X110894524Y-87447381D01*
X111751667Y-87399762D02*
X111656429Y-87447381D01*
X111465952Y-87447381D01*
X111370714Y-87399762D01*
X111323095Y-87304524D01*
X111323095Y-86923571D01*
X111370714Y-86828333D01*
X111465952Y-86780714D01*
X111656429Y-86780714D01*
X111751667Y-86828333D01*
X111799286Y-86923571D01*
X111799286Y-87018810D01*
X111323095Y-87114048D01*
X112656429Y-87399762D02*
X112561191Y-87447381D01*
X112370714Y-87447381D01*
X112275476Y-87399762D01*
X112227857Y-87352143D01*
X112180238Y-87256905D01*
X112180238Y-86971190D01*
X112227857Y-86875952D01*
X112275476Y-86828333D01*
X112370714Y-86780714D01*
X112561191Y-86780714D01*
X112656429Y-86828333D01*
X112942143Y-86780714D02*
X113323095Y-86780714D01*
X113085000Y-86447381D02*
X113085000Y-87304524D01*
X113132619Y-87399762D01*
X113227857Y-87447381D01*
X113323095Y-87447381D01*
X113799286Y-87447381D02*
X113704048Y-87399762D01*
X113656429Y-87352143D01*
X113608810Y-87256905D01*
X113608810Y-86971190D01*
X113656429Y-86875952D01*
X113704048Y-86828333D01*
X113799286Y-86780714D01*
X113942144Y-86780714D01*
X114037382Y-86828333D01*
X114085001Y-86875952D01*
X114132620Y-86971190D01*
X114132620Y-87256905D01*
X114085001Y-87352143D01*
X114037382Y-87399762D01*
X113942144Y-87447381D01*
X113799286Y-87447381D01*
X114561191Y-87447381D02*
X114561191Y-86780714D01*
X114561191Y-86971190D02*
X114608810Y-86875952D01*
X114656429Y-86828333D01*
X114751667Y-86780714D01*
X114846906Y-86780714D01*
X127407381Y-75731666D02*
X126931190Y-76065000D01*
X127407381Y-76303095D02*
X126407381Y-76303095D01*
X126407381Y-75922142D01*
X126455000Y-75826904D01*
X126502619Y-75779285D01*
X126597857Y-75731666D01*
X126740714Y-75731666D01*
X126835952Y-75779285D01*
X126883571Y-75826904D01*
X126931190Y-75922142D01*
X126931190Y-76303095D01*
X126407381Y-74826904D02*
X126407381Y-75303095D01*
X126883571Y-75350714D01*
X126835952Y-75303095D01*
X126788333Y-75207857D01*
X126788333Y-74969761D01*
X126835952Y-74874523D01*
X126883571Y-74826904D01*
X126978810Y-74779285D01*
X127216905Y-74779285D01*
X127312143Y-74826904D01*
X127359762Y-74874523D01*
X127407381Y-74969761D01*
X127407381Y-75207857D01*
X127359762Y-75303095D01*
X127312143Y-75350714D01*
X123687381Y-76160238D02*
X123687381Y-76731667D01*
X123687381Y-76445953D02*
X122687381Y-76445953D01*
X122830238Y-76541191D01*
X122925476Y-76636429D01*
X122973095Y-76731667D01*
X122687381Y-75541191D02*
X122687381Y-75445952D01*
X122735000Y-75350714D01*
X122782619Y-75303095D01*
X122877857Y-75255476D01*
X123068333Y-75207857D01*
X123306429Y-75207857D01*
X123496905Y-75255476D01*
X123592143Y-75303095D01*
X123639762Y-75350714D01*
X123687381Y-75445952D01*
X123687381Y-75541191D01*
X123639762Y-75636429D01*
X123592143Y-75684048D01*
X123496905Y-75731667D01*
X123306429Y-75779286D01*
X123068333Y-75779286D01*
X122877857Y-75731667D01*
X122782619Y-75684048D01*
X122735000Y-75636429D01*
X122687381Y-75541191D01*
X123687381Y-74779286D02*
X122687381Y-74779286D01*
X123306429Y-74684048D02*
X123687381Y-74398333D01*
X123020714Y-74398333D02*
X123401667Y-74779286D01*
X124322381Y-61761666D02*
X123846190Y-62095000D01*
X124322381Y-62333095D02*
X123322381Y-62333095D01*
X123322381Y-61952142D01*
X123370000Y-61856904D01*
X123417619Y-61809285D01*
X123512857Y-61761666D01*
X123655714Y-61761666D01*
X123750952Y-61809285D01*
X123798571Y-61856904D01*
X123846190Y-61952142D01*
X123846190Y-62333095D01*
X123322381Y-60904523D02*
X123322381Y-61095000D01*
X123370000Y-61190238D01*
X123417619Y-61237857D01*
X123560476Y-61333095D01*
X123750952Y-61380714D01*
X124131905Y-61380714D01*
X124227143Y-61333095D01*
X124274762Y-61285476D01*
X124322381Y-61190238D01*
X124322381Y-60999761D01*
X124274762Y-60904523D01*
X124227143Y-60856904D01*
X124131905Y-60809285D01*
X123893810Y-60809285D01*
X123798571Y-60856904D01*
X123750952Y-60904523D01*
X123703333Y-60999761D01*
X123703333Y-61190238D01*
X123750952Y-61285476D01*
X123798571Y-61333095D01*
X123893810Y-61380714D01*
X128042381Y-62190238D02*
X128042381Y-62761667D01*
X128042381Y-62475953D02*
X127042381Y-62475953D01*
X127185238Y-62571191D01*
X127280476Y-62666429D01*
X127328095Y-62761667D01*
X127042381Y-61571191D02*
X127042381Y-61475952D01*
X127090000Y-61380714D01*
X127137619Y-61333095D01*
X127232857Y-61285476D01*
X127423333Y-61237857D01*
X127661429Y-61237857D01*
X127851905Y-61285476D01*
X127947143Y-61333095D01*
X127994762Y-61380714D01*
X128042381Y-61475952D01*
X128042381Y-61571191D01*
X127994762Y-61666429D01*
X127947143Y-61714048D01*
X127851905Y-61761667D01*
X127661429Y-61809286D01*
X127423333Y-61809286D01*
X127232857Y-61761667D01*
X127137619Y-61714048D01*
X127090000Y-61666429D01*
X127042381Y-61571191D01*
X128042381Y-60809286D02*
X127042381Y-60809286D01*
X127661429Y-60714048D02*
X128042381Y-60428333D01*
X127375714Y-60428333D02*
X127756667Y-60809286D01*
X106557381Y-53038333D02*
X107271667Y-53038333D01*
X107414524Y-53085953D01*
X107509762Y-53181191D01*
X107557381Y-53324048D01*
X107557381Y-53419286D01*
X106890714Y-52133571D02*
X107557381Y-52133571D01*
X106509762Y-52371667D02*
X107224048Y-52609762D01*
X107224048Y-51990714D01*
X99833571Y-53824047D02*
X99881190Y-53681190D01*
X99928810Y-53633571D01*
X100024048Y-53585952D01*
X100166905Y-53585952D01*
X100262143Y-53633571D01*
X100309762Y-53681190D01*
X100357381Y-53776428D01*
X100357381Y-54157381D01*
X99357381Y-54157381D01*
X99357381Y-53824047D01*
X99405000Y-53728809D01*
X99452619Y-53681190D01*
X99547857Y-53633571D01*
X99643095Y-53633571D01*
X99738333Y-53681190D01*
X99785952Y-53728809D01*
X99833571Y-53824047D01*
X99833571Y-54157381D01*
X100071667Y-53205000D02*
X100071667Y-52728809D01*
X100357381Y-53300238D02*
X99357381Y-52966905D01*
X100357381Y-52633571D01*
X99357381Y-52443095D02*
X99357381Y-51871666D01*
X100357381Y-52157381D02*
X99357381Y-52157381D01*
X99357381Y-51681190D02*
X99357381Y-51109761D01*
X100357381Y-51395476D02*
X99357381Y-51395476D01*
X121824762Y-86657619D02*
X121729524Y-86610000D01*
X121634286Y-86514762D01*
X121491429Y-86371905D01*
X121396190Y-86324286D01*
X121300952Y-86324286D01*
X121348571Y-86562381D02*
X121253333Y-86514762D01*
X121158095Y-86419524D01*
X121110476Y-86229048D01*
X121110476Y-85895714D01*
X121158095Y-85705238D01*
X121253333Y-85610000D01*
X121348571Y-85562381D01*
X121539048Y-85562381D01*
X121634286Y-85610000D01*
X121729524Y-85705238D01*
X121777143Y-85895714D01*
X121777143Y-86229048D01*
X121729524Y-86419524D01*
X121634286Y-86514762D01*
X121539048Y-86562381D01*
X121348571Y-86562381D01*
X122729524Y-86562381D02*
X122158095Y-86562381D01*
X122443809Y-86562381D02*
X122443809Y-85562381D01*
X122348571Y-85705238D01*
X122253333Y-85800476D01*
X122158095Y-85848095D01*
X119284762Y-50962619D02*
X119189524Y-50915000D01*
X119094286Y-50819762D01*
X118951429Y-50676905D01*
X118856190Y-50629286D01*
X118760952Y-50629286D01*
X118808571Y-50867381D02*
X118713333Y-50819762D01*
X118618095Y-50724524D01*
X118570476Y-50534048D01*
X118570476Y-50200714D01*
X118618095Y-50010238D01*
X118713333Y-49915000D01*
X118808571Y-49867381D01*
X118999048Y-49867381D01*
X119094286Y-49915000D01*
X119189524Y-50010238D01*
X119237143Y-50200714D01*
X119237143Y-50534048D01*
X119189524Y-50724524D01*
X119094286Y-50819762D01*
X118999048Y-50867381D01*
X118808571Y-50867381D01*
X119618095Y-49962619D02*
X119665714Y-49915000D01*
X119760952Y-49867381D01*
X119999048Y-49867381D01*
X120094286Y-49915000D01*
X120141905Y-49962619D01*
X120189524Y-50057857D01*
X120189524Y-50153095D01*
X120141905Y-50295952D01*
X119570476Y-50867381D01*
X120189524Y-50867381D01*
X99357381Y-47323333D02*
X100071667Y-47323333D01*
X100214524Y-47370953D01*
X100309762Y-47466191D01*
X100357381Y-47609048D01*
X100357381Y-47704286D01*
X99357381Y-46942381D02*
X99357381Y-46275714D01*
X100357381Y-46704286D01*
X107557381Y-48323333D02*
X106557381Y-48323333D01*
X106557381Y-47942380D01*
X106605000Y-47847142D01*
X106652619Y-47799523D01*
X106747857Y-47751904D01*
X106890714Y-47751904D01*
X106985952Y-47799523D01*
X107033571Y-47847142D01*
X107081190Y-47942380D01*
X107081190Y-48323333D01*
X106557381Y-47418571D02*
X107557381Y-47180476D01*
X106843095Y-46989999D01*
X107557381Y-46799523D01*
X106557381Y-46561428D01*
X107557381Y-45609047D02*
X107081190Y-45942381D01*
X107557381Y-46180476D02*
X106557381Y-46180476D01*
X106557381Y-45799523D01*
X106605000Y-45704285D01*
X106652619Y-45656666D01*
X106747857Y-45609047D01*
X106890714Y-45609047D01*
X106985952Y-45656666D01*
X107033571Y-45704285D01*
X107081190Y-45799523D01*
X107081190Y-46180476D01*
X113076667Y-67642381D02*
X113076667Y-68356667D01*
X113029047Y-68499524D01*
X112933809Y-68594762D01*
X112790952Y-68642381D01*
X112695714Y-68642381D01*
X114029048Y-67642381D02*
X113552857Y-67642381D01*
X113505238Y-68118571D01*
X113552857Y-68070952D01*
X113648095Y-68023333D01*
X113886191Y-68023333D01*
X113981429Y-68070952D01*
X114029048Y-68118571D01*
X114076667Y-68213810D01*
X114076667Y-68451905D01*
X114029048Y-68547143D01*
X113981429Y-68594762D01*
X113886191Y-68642381D01*
X113648095Y-68642381D01*
X113552857Y-68594762D01*
X113505238Y-68547143D01*
M02*
