G04 #@! TF.FileFunction,Copper,L1,Top,Signal*
%FSLAX46Y46*%
G04 Gerber Fmt 4.6, Leading zero omitted, Abs format (unit mm)*
G04 Created by KiCad (PCBNEW 4.0.7) date 03/21/18 08:00:39*
%MOMM*%
%LPD*%
G01*
G04 APERTURE LIST*
%ADD10C,0.100000*%
%ADD11O,1.700000X1.700000*%
%ADD12R,1.700000X1.700000*%
%ADD13R,1.600000X1.600000*%
%ADD14C,1.600000*%
%ADD15R,1.800000X1.800000*%
%ADD16O,1.800000X1.800000*%
%ADD17O,0.900000X1.500000*%
%ADD18R,0.900000X1.500000*%
%ADD19C,0.600000*%
%ADD20C,0.250000*%
%ADD21C,0.254000*%
G04 APERTURE END LIST*
D10*
D11*
X126365000Y-57150000D03*
X123825000Y-57150000D03*
X121285000Y-57150000D03*
X118745000Y-57150000D03*
X116205000Y-57150000D03*
X113665000Y-57150000D03*
D12*
X108585000Y-67310000D03*
D11*
X111125000Y-67310000D03*
X113665000Y-67310000D03*
X116205000Y-67310000D03*
X118745000Y-67310000D03*
X121285000Y-67310000D03*
X123825000Y-67310000D03*
X126365000Y-67310000D03*
X128905000Y-67310000D03*
X131445000Y-67310000D03*
D13*
X133350000Y-52705000D03*
D14*
X135350000Y-52705000D03*
D13*
X108585000Y-50165000D03*
D14*
X110585000Y-50165000D03*
X107315000Y-38100000D03*
X109815000Y-38100000D03*
X135890000Y-38100000D03*
X133390000Y-38100000D03*
D12*
X142875000Y-60325000D03*
D11*
X142875000Y-57785000D03*
D12*
X98425000Y-60960000D03*
D11*
X98425000Y-58420000D03*
D12*
X123825000Y-75565000D03*
D11*
X121285000Y-75565000D03*
X118745000Y-75565000D03*
D12*
X111760000Y-75565000D03*
D11*
X109220000Y-75565000D03*
X106680000Y-75565000D03*
D12*
X102235000Y-49530000D03*
D11*
X99695000Y-49530000D03*
D12*
X102235000Y-43815000D03*
D11*
X99695000Y-43815000D03*
D12*
X131445000Y-74930000D03*
D11*
X133985000Y-74930000D03*
D12*
X107315000Y-31750000D03*
D11*
X109855000Y-31750000D03*
D12*
X135890000Y-31750000D03*
D11*
X133350000Y-31750000D03*
D15*
X118110000Y-50165000D03*
D16*
X120650000Y-50165000D03*
X123190000Y-50165000D03*
D17*
X134620000Y-45720000D03*
X133350000Y-45720000D03*
D18*
X135890000Y-45720000D03*
D19*
X130175000Y-49530000D03*
X121285000Y-59690000D03*
X118110000Y-45085000D03*
X139700000Y-57150000D03*
D20*
X130175000Y-49530000D02*
X133350000Y-52705000D01*
X133350000Y-52705000D02*
X133350000Y-45720000D01*
X102235000Y-49530000D02*
X102235000Y-43815000D01*
X118745000Y-57150000D02*
X113665000Y-62230000D01*
X113665000Y-62230000D02*
X113665000Y-67310000D01*
X135350000Y-52705000D02*
X135255000Y-52705000D01*
X135255000Y-52705000D02*
X134620000Y-53340000D01*
X134620000Y-53340000D02*
X134620000Y-53975000D01*
X134620000Y-53975000D02*
X133985000Y-54610000D01*
X133985000Y-54610000D02*
X133985000Y-74930000D01*
X110585000Y-50165000D02*
X110490000Y-50165000D01*
X110490000Y-50165000D02*
X109855000Y-49530000D01*
X109855000Y-49530000D02*
X109855000Y-38100000D01*
X109855000Y-38100000D02*
X109815000Y-38100000D01*
X134620000Y-45720000D02*
X134620000Y-44450000D01*
X134620000Y-44450000D02*
X133350000Y-43180000D01*
X133350000Y-43180000D02*
X133350000Y-38100000D01*
X133350000Y-38100000D02*
X133390000Y-38100000D01*
X120650000Y-50165000D02*
X121285000Y-50800000D01*
X121285000Y-50800000D02*
X121285000Y-57150000D01*
X135350000Y-52705000D02*
X135255000Y-52705000D01*
X135255000Y-52705000D02*
X134620000Y-52070000D01*
X134620000Y-52070000D02*
X134620000Y-45720000D01*
X133390000Y-38100000D02*
X133350000Y-38100000D01*
X133350000Y-38100000D02*
X133350000Y-31750000D01*
X109815000Y-38100000D02*
X109855000Y-38100000D01*
X109855000Y-38100000D02*
X109855000Y-31750000D01*
X99695000Y-49530000D02*
X99695000Y-43815000D01*
X123190000Y-50165000D02*
X122555000Y-50800000D01*
X122555000Y-50800000D02*
X122555000Y-58420000D01*
X122555000Y-58420000D02*
X121285000Y-59690000D01*
X118110000Y-45085000D02*
X123190000Y-50165000D01*
X107315000Y-31750000D02*
X107315000Y-38100000D01*
X135890000Y-45720000D02*
X135890000Y-38100000D01*
X135890000Y-38100000D02*
X135890000Y-31750000D01*
X142875000Y-60325000D02*
X139700000Y-57150000D01*
X131445000Y-67310000D02*
X123825000Y-74930000D01*
X123825000Y-74930000D02*
X123825000Y-75565000D01*
X121285000Y-75565000D02*
X126365000Y-70485000D01*
X126365000Y-70485000D02*
X126365000Y-67310000D01*
X128905000Y-67310000D02*
X127635000Y-66040000D01*
X127635000Y-66040000D02*
X125095000Y-66040000D01*
X125095000Y-66040000D02*
X125095000Y-68580000D01*
X125095000Y-68580000D02*
X118745000Y-74930000D01*
X118745000Y-74930000D02*
X118745000Y-75565000D01*
X116205000Y-67310000D02*
X114935000Y-68580000D01*
X114935000Y-68580000D02*
X113665000Y-68580000D01*
X113665000Y-68580000D02*
X106680000Y-75565000D01*
D21*
G36*
X145340000Y-76760000D02*
X125207812Y-76760000D01*
X125271431Y-76666890D01*
X125322440Y-76415000D01*
X125322440Y-74715000D01*
X125289557Y-74540245D01*
X125749802Y-74080000D01*
X129947560Y-74080000D01*
X129947560Y-75780000D01*
X129991838Y-76015317D01*
X130130910Y-76231441D01*
X130343110Y-76376431D01*
X130595000Y-76427440D01*
X132295000Y-76427440D01*
X132530317Y-76383162D01*
X132746441Y-76244090D01*
X132891431Y-76031890D01*
X132913301Y-75923893D01*
X133218076Y-76201645D01*
X133628110Y-76371476D01*
X133858000Y-76250155D01*
X133858000Y-75057000D01*
X134112000Y-75057000D01*
X134112000Y-76250155D01*
X134341890Y-76371476D01*
X134751924Y-76201645D01*
X135180183Y-75811358D01*
X135426486Y-75286892D01*
X135305819Y-75057000D01*
X134112000Y-75057000D01*
X133858000Y-75057000D01*
X133838000Y-75057000D01*
X133838000Y-74803000D01*
X133858000Y-74803000D01*
X133858000Y-73609845D01*
X134112000Y-73609845D01*
X134112000Y-74803000D01*
X135305819Y-74803000D01*
X135426486Y-74573108D01*
X135180183Y-74048642D01*
X134751924Y-73658355D01*
X134341890Y-73488524D01*
X134112000Y-73609845D01*
X133858000Y-73609845D01*
X133628110Y-73488524D01*
X133218076Y-73658355D01*
X132915063Y-73934501D01*
X132898162Y-73844683D01*
X132759090Y-73628559D01*
X132546890Y-73483569D01*
X132295000Y-73432560D01*
X130595000Y-73432560D01*
X130359683Y-73476838D01*
X130143559Y-73615910D01*
X129998569Y-73828110D01*
X129947560Y-74080000D01*
X125749802Y-74080000D01*
X126411693Y-73418109D01*
X139619657Y-73418109D01*
X139921218Y-74147943D01*
X140479120Y-74706819D01*
X141208427Y-75009654D01*
X141998109Y-75010343D01*
X142727943Y-74708782D01*
X143286819Y-74150880D01*
X143589654Y-73421573D01*
X143590343Y-72631891D01*
X143288782Y-71902057D01*
X142730880Y-71343181D01*
X142001573Y-71040346D01*
X141211891Y-71039657D01*
X140482057Y-71341218D01*
X139923181Y-71899120D01*
X139620346Y-72628427D01*
X139619657Y-73418109D01*
X126411693Y-73418109D01*
X131078592Y-68751210D01*
X131445000Y-68824093D01*
X132013285Y-68711054D01*
X132495054Y-68389147D01*
X132816961Y-67907378D01*
X132930000Y-67339093D01*
X132930000Y-67280907D01*
X132816961Y-66712622D01*
X132495054Y-66230853D01*
X132013285Y-65908946D01*
X131445000Y-65795907D01*
X130876715Y-65908946D01*
X130394946Y-66230853D01*
X130175000Y-66560026D01*
X129955054Y-66230853D01*
X129473285Y-65908946D01*
X128905000Y-65795907D01*
X128538592Y-65868790D01*
X128172401Y-65502599D01*
X127925839Y-65337852D01*
X127635000Y-65280000D01*
X125095000Y-65280000D01*
X124804161Y-65337852D01*
X124557599Y-65502599D01*
X124392852Y-65749161D01*
X124362295Y-65902782D01*
X123825000Y-65795907D01*
X123256715Y-65908946D01*
X122774946Y-66230853D01*
X122555000Y-66560026D01*
X122335054Y-66230853D01*
X121853285Y-65908946D01*
X121285000Y-65795907D01*
X120716715Y-65908946D01*
X120234946Y-66230853D01*
X120015000Y-66560026D01*
X119795054Y-66230853D01*
X119313285Y-65908946D01*
X118745000Y-65795907D01*
X118176715Y-65908946D01*
X117694946Y-66230853D01*
X117475000Y-66560026D01*
X117255054Y-66230853D01*
X116773285Y-65908946D01*
X116205000Y-65795907D01*
X115636715Y-65908946D01*
X115154946Y-66230853D01*
X114927298Y-66571553D01*
X114860183Y-66428642D01*
X114431924Y-66038355D01*
X114021890Y-65868524D01*
X113792000Y-65989845D01*
X113792000Y-67183000D01*
X113812000Y-67183000D01*
X113812000Y-67437000D01*
X113792000Y-67437000D01*
X113792000Y-67457000D01*
X113538000Y-67457000D01*
X113538000Y-67437000D01*
X113518000Y-67437000D01*
X113518000Y-67183000D01*
X113538000Y-67183000D01*
X113538000Y-65989845D01*
X113308110Y-65868524D01*
X112898076Y-66038355D01*
X112469817Y-66428642D01*
X112402702Y-66571553D01*
X112175054Y-66230853D01*
X111693285Y-65908946D01*
X111125000Y-65795907D01*
X110556715Y-65908946D01*
X110074946Y-66230853D01*
X110047150Y-66272452D01*
X110038162Y-66224683D01*
X109899090Y-66008559D01*
X109686890Y-65863569D01*
X109435000Y-65812560D01*
X107735000Y-65812560D01*
X107499683Y-65856838D01*
X107283559Y-65995910D01*
X107138569Y-66208110D01*
X107087560Y-66460000D01*
X107087560Y-68160000D01*
X107131838Y-68395317D01*
X107270910Y-68611441D01*
X107483110Y-68756431D01*
X107735000Y-68807440D01*
X109435000Y-68807440D01*
X109670317Y-68763162D01*
X109886441Y-68624090D01*
X110031431Y-68411890D01*
X110045086Y-68344459D01*
X110074946Y-68389147D01*
X110556715Y-68711054D01*
X111125000Y-68824093D01*
X111693285Y-68711054D01*
X112175054Y-68389147D01*
X112402702Y-68048447D01*
X112469817Y-68191358D01*
X112736135Y-68434063D01*
X107046408Y-74123790D01*
X106680000Y-74050907D01*
X106111715Y-74163946D01*
X105629946Y-74485853D01*
X105308039Y-74967622D01*
X105195000Y-75535907D01*
X105195000Y-75594093D01*
X105308039Y-76162378D01*
X105629946Y-76644147D01*
X105803333Y-76760000D01*
X96595000Y-76760000D01*
X96595000Y-74053109D01*
X97709657Y-74053109D01*
X98011218Y-74782943D01*
X98569120Y-75341819D01*
X99298427Y-75644654D01*
X100088109Y-75645343D01*
X100817943Y-75343782D01*
X101376819Y-74785880D01*
X101679654Y-74056573D01*
X101680343Y-73266891D01*
X101378782Y-72537057D01*
X100820880Y-71978181D01*
X100091573Y-71675346D01*
X99301891Y-71674657D01*
X98572057Y-71976218D01*
X98013181Y-72534120D01*
X97710346Y-73263427D01*
X97709657Y-74053109D01*
X96595000Y-74053109D01*
X96595000Y-58420000D01*
X96910907Y-58420000D01*
X97023946Y-58988285D01*
X97345853Y-59470054D01*
X97387452Y-59497850D01*
X97339683Y-59506838D01*
X97123559Y-59645910D01*
X96978569Y-59858110D01*
X96927560Y-60110000D01*
X96927560Y-61810000D01*
X96971838Y-62045317D01*
X97110910Y-62261441D01*
X97323110Y-62406431D01*
X97575000Y-62457440D01*
X99275000Y-62457440D01*
X99510317Y-62413162D01*
X99726441Y-62274090D01*
X99871431Y-62061890D01*
X99922440Y-61810000D01*
X99922440Y-60110000D01*
X99878162Y-59874683D01*
X99739090Y-59658559D01*
X99526890Y-59513569D01*
X99459459Y-59499914D01*
X99504147Y-59470054D01*
X99826054Y-58988285D01*
X99939093Y-58420000D01*
X99826054Y-57851715D01*
X99504147Y-57369946D01*
X99131433Y-57120907D01*
X112180000Y-57120907D01*
X112180000Y-57179093D01*
X112293039Y-57747378D01*
X112614946Y-58229147D01*
X113096715Y-58551054D01*
X113665000Y-58664093D01*
X114233285Y-58551054D01*
X114715054Y-58229147D01*
X114935000Y-57899974D01*
X115154946Y-58229147D01*
X115636715Y-58551054D01*
X116205000Y-58664093D01*
X116773285Y-58551054D01*
X117255054Y-58229147D01*
X117482702Y-57888447D01*
X117549817Y-58031358D01*
X117978076Y-58421645D01*
X118388110Y-58591476D01*
X118618000Y-58470155D01*
X118618000Y-57277000D01*
X118598000Y-57277000D01*
X118598000Y-57023000D01*
X118618000Y-57023000D01*
X118618000Y-55829845D01*
X118872000Y-55829845D01*
X118872000Y-57023000D01*
X121158000Y-57023000D01*
X121158000Y-55829845D01*
X120928110Y-55708524D01*
X120518076Y-55878355D01*
X120089817Y-56268642D01*
X120015000Y-56427954D01*
X119940183Y-56268642D01*
X119511924Y-55878355D01*
X119101890Y-55708524D01*
X118872000Y-55829845D01*
X118618000Y-55829845D01*
X118388110Y-55708524D01*
X117978076Y-55878355D01*
X117549817Y-56268642D01*
X117482702Y-56411553D01*
X117255054Y-56070853D01*
X116773285Y-55748946D01*
X116205000Y-55635907D01*
X115636715Y-55748946D01*
X115154946Y-56070853D01*
X114935000Y-56400026D01*
X114715054Y-56070853D01*
X114233285Y-55748946D01*
X113665000Y-55635907D01*
X113096715Y-55748946D01*
X112614946Y-56070853D01*
X112293039Y-56552622D01*
X112180000Y-57120907D01*
X99131433Y-57120907D01*
X99022378Y-57048039D01*
X98454093Y-56935000D01*
X98395907Y-56935000D01*
X97827622Y-57048039D01*
X97345853Y-57369946D01*
X97023946Y-57851715D01*
X96910907Y-58420000D01*
X96595000Y-58420000D01*
X96595000Y-49886892D01*
X98253514Y-49886892D01*
X98499817Y-50411358D01*
X98928076Y-50801645D01*
X99338110Y-50971476D01*
X99568000Y-50850155D01*
X99568000Y-49657000D01*
X98374181Y-49657000D01*
X98253514Y-49886892D01*
X96595000Y-49886892D01*
X96595000Y-49173108D01*
X98253514Y-49173108D01*
X98374181Y-49403000D01*
X99568000Y-49403000D01*
X99568000Y-48209845D01*
X99338110Y-48088524D01*
X98928076Y-48258355D01*
X98499817Y-48648642D01*
X98253514Y-49173108D01*
X96595000Y-49173108D01*
X96595000Y-44171892D01*
X98253514Y-44171892D01*
X98499817Y-44696358D01*
X98928076Y-45086645D01*
X99338110Y-45256476D01*
X99568000Y-45135155D01*
X99568000Y-43942000D01*
X98374181Y-43942000D01*
X98253514Y-44171892D01*
X96595000Y-44171892D01*
X96595000Y-43458108D01*
X98253514Y-43458108D01*
X98374181Y-43688000D01*
X99568000Y-43688000D01*
X99568000Y-42494845D01*
X99822000Y-42494845D01*
X99822000Y-43688000D01*
X99842000Y-43688000D01*
X99842000Y-43942000D01*
X99822000Y-43942000D01*
X99822000Y-45135155D01*
X100051890Y-45256476D01*
X100461924Y-45086645D01*
X100764937Y-44810499D01*
X100781838Y-44900317D01*
X100920910Y-45116441D01*
X101133110Y-45261431D01*
X101385000Y-45312440D01*
X101475000Y-45312440D01*
X101475000Y-48032560D01*
X101385000Y-48032560D01*
X101149683Y-48076838D01*
X100933559Y-48215910D01*
X100788569Y-48428110D01*
X100766699Y-48536107D01*
X100461924Y-48258355D01*
X100051890Y-48088524D01*
X99822000Y-48209845D01*
X99822000Y-49403000D01*
X99842000Y-49403000D01*
X99842000Y-49657000D01*
X99822000Y-49657000D01*
X99822000Y-50850155D01*
X100051890Y-50971476D01*
X100461924Y-50801645D01*
X100764937Y-50525499D01*
X100781838Y-50615317D01*
X100920910Y-50831441D01*
X101133110Y-50976431D01*
X101385000Y-51027440D01*
X103085000Y-51027440D01*
X103320317Y-50983162D01*
X103536441Y-50844090D01*
X103681431Y-50631890D01*
X103732440Y-50380000D01*
X103732440Y-49365000D01*
X107137560Y-49365000D01*
X107137560Y-50965000D01*
X107181838Y-51200317D01*
X107320910Y-51416441D01*
X107533110Y-51561431D01*
X107785000Y-51612440D01*
X109385000Y-51612440D01*
X109620317Y-51568162D01*
X109836441Y-51429090D01*
X109840977Y-51422452D01*
X110368223Y-51611965D01*
X110938454Y-51584778D01*
X111339005Y-51418864D01*
X111413139Y-51172745D01*
X110585000Y-50344605D01*
X110570858Y-50358748D01*
X110391253Y-50179143D01*
X110405395Y-50165000D01*
X110764605Y-50165000D01*
X111592745Y-50993139D01*
X111838864Y-50919005D01*
X112031965Y-50381777D01*
X112004778Y-49811546D01*
X111838864Y-49410995D01*
X111592745Y-49336861D01*
X110764605Y-50165000D01*
X110405395Y-50165000D01*
X110391253Y-50150858D01*
X110570858Y-49971252D01*
X110585000Y-49985395D01*
X111305394Y-49265000D01*
X116562560Y-49265000D01*
X116562560Y-51065000D01*
X116606838Y-51300317D01*
X116745910Y-51516441D01*
X116958110Y-51661431D01*
X117210000Y-51712440D01*
X119010000Y-51712440D01*
X119245317Y-51668162D01*
X119461441Y-51529090D01*
X119606431Y-51316890D01*
X119616766Y-51265854D01*
X119742424Y-51402966D01*
X120285258Y-51656046D01*
X120523000Y-51535997D01*
X120523000Y-50292000D01*
X120503000Y-50292000D01*
X120503000Y-50038000D01*
X120523000Y-50038000D01*
X120523000Y-50018000D01*
X120777000Y-50018000D01*
X120777000Y-50038000D01*
X120797000Y-50038000D01*
X120797000Y-50292000D01*
X120777000Y-50292000D01*
X120777000Y-51535997D01*
X121014742Y-51656046D01*
X121557576Y-51402966D01*
X121795000Y-51143901D01*
X121795000Y-55771940D01*
X121641890Y-55708524D01*
X121412000Y-55829845D01*
X121412000Y-57023000D01*
X121432000Y-57023000D01*
X121432000Y-57277000D01*
X121412000Y-57277000D01*
X121412000Y-57297000D01*
X121158000Y-57297000D01*
X121158000Y-57277000D01*
X118872000Y-57277000D01*
X118872000Y-58470155D01*
X119101890Y-58591476D01*
X119511924Y-58421645D01*
X119940183Y-58031358D01*
X120015000Y-57872046D01*
X120089817Y-58031358D01*
X120518076Y-58421645D01*
X120928110Y-58591476D01*
X121157998Y-58470156D01*
X121157998Y-58635000D01*
X121265198Y-58635000D01*
X121145320Y-58754878D01*
X121099833Y-58754838D01*
X120756057Y-58896883D01*
X120492808Y-59159673D01*
X120350162Y-59503201D01*
X120349838Y-59875167D01*
X120491883Y-60218943D01*
X120754673Y-60482192D01*
X121098201Y-60624838D01*
X121470167Y-60625162D01*
X121813943Y-60483117D01*
X122077192Y-60220327D01*
X122219838Y-59876799D01*
X122219879Y-59829923D01*
X123092401Y-58957401D01*
X123257148Y-58710840D01*
X123287705Y-58557218D01*
X123825000Y-58664093D01*
X124393285Y-58551054D01*
X124875054Y-58229147D01*
X125095000Y-57899974D01*
X125314946Y-58229147D01*
X125796715Y-58551054D01*
X126365000Y-58664093D01*
X126933285Y-58551054D01*
X127415054Y-58229147D01*
X127736961Y-57747378D01*
X127818954Y-57335167D01*
X138764838Y-57335167D01*
X138906883Y-57678943D01*
X139169673Y-57942192D01*
X139513201Y-58084838D01*
X139560077Y-58084879D01*
X141377560Y-59902362D01*
X141377560Y-61175000D01*
X141421838Y-61410317D01*
X141560910Y-61626441D01*
X141773110Y-61771431D01*
X142025000Y-61822440D01*
X143725000Y-61822440D01*
X143960317Y-61778162D01*
X144176441Y-61639090D01*
X144321431Y-61426890D01*
X144372440Y-61175000D01*
X144372440Y-59475000D01*
X144328162Y-59239683D01*
X144189090Y-59023559D01*
X143976890Y-58878569D01*
X143909459Y-58864914D01*
X143954147Y-58835054D01*
X144276054Y-58353285D01*
X144389093Y-57785000D01*
X144276054Y-57216715D01*
X143954147Y-56734946D01*
X143472378Y-56413039D01*
X142904093Y-56300000D01*
X142845907Y-56300000D01*
X142277622Y-56413039D01*
X141795853Y-56734946D01*
X141473946Y-57216715D01*
X141369019Y-57744217D01*
X140635122Y-57010320D01*
X140635162Y-56964833D01*
X140493117Y-56621057D01*
X140230327Y-56357808D01*
X139886799Y-56215162D01*
X139514833Y-56214838D01*
X139171057Y-56356883D01*
X138907808Y-56619673D01*
X138765162Y-56963201D01*
X138764838Y-57335167D01*
X127818954Y-57335167D01*
X127850000Y-57179093D01*
X127850000Y-57120907D01*
X127736961Y-56552622D01*
X127415054Y-56070853D01*
X126933285Y-55748946D01*
X126365000Y-55635907D01*
X125796715Y-55748946D01*
X125314946Y-56070853D01*
X125095000Y-56400026D01*
X124875054Y-56070853D01*
X124393285Y-55748946D01*
X123825000Y-55635907D01*
X123315000Y-55737352D01*
X123315000Y-51681118D01*
X123807491Y-51583155D01*
X124305481Y-51250409D01*
X124638227Y-50752419D01*
X124755072Y-50165000D01*
X124665595Y-49715167D01*
X129239838Y-49715167D01*
X129381883Y-50058943D01*
X129644673Y-50322192D01*
X129988201Y-50464838D01*
X130035077Y-50464879D01*
X131902560Y-52332362D01*
X131902560Y-53505000D01*
X131946838Y-53740317D01*
X132085910Y-53956441D01*
X132298110Y-54101431D01*
X132550000Y-54152440D01*
X134150000Y-54152440D01*
X134385317Y-54108162D01*
X134601441Y-53969090D01*
X134605977Y-53962452D01*
X135133223Y-54151965D01*
X135703454Y-54124778D01*
X136104005Y-53958864D01*
X136178139Y-53712745D01*
X135350000Y-52884605D01*
X135335858Y-52898748D01*
X135156253Y-52719143D01*
X135170395Y-52705000D01*
X135529605Y-52705000D01*
X136357745Y-53533139D01*
X136603864Y-53459005D01*
X136796965Y-52921777D01*
X136769778Y-52351546D01*
X136603864Y-51950995D01*
X136357745Y-51876861D01*
X135529605Y-52705000D01*
X135170395Y-52705000D01*
X135156253Y-52690858D01*
X135335858Y-52511252D01*
X135350000Y-52525395D01*
X136178139Y-51697255D01*
X136104005Y-51451136D01*
X135566777Y-51258035D01*
X134996546Y-51285222D01*
X134605053Y-51447384D01*
X134401890Y-51308569D01*
X134150000Y-51257560D01*
X134110000Y-51257560D01*
X134110000Y-46958836D01*
X134325999Y-47064408D01*
X134493000Y-46937502D01*
X134493000Y-45847000D01*
X134473000Y-45847000D01*
X134473000Y-45593000D01*
X134493000Y-45593000D01*
X134493000Y-44502498D01*
X134325999Y-44375592D01*
X133989274Y-44540170D01*
X133765212Y-44390457D01*
X133350000Y-44307866D01*
X132934788Y-44390457D01*
X132582789Y-44625655D01*
X132347591Y-44977654D01*
X132265000Y-45392866D01*
X132265000Y-46047134D01*
X132347591Y-46462346D01*
X132582789Y-46814345D01*
X132590000Y-46819163D01*
X132590000Y-50870198D01*
X131110122Y-49390320D01*
X131110162Y-49344833D01*
X130968117Y-49001057D01*
X130705327Y-48737808D01*
X130361799Y-48595162D01*
X129989833Y-48594838D01*
X129646057Y-48736883D01*
X129382808Y-48999673D01*
X129240162Y-49343201D01*
X129239838Y-49715167D01*
X124665595Y-49715167D01*
X124638227Y-49577581D01*
X124305481Y-49079591D01*
X123807491Y-48746845D01*
X123220072Y-48630000D01*
X123159928Y-48630000D01*
X122801165Y-48701363D01*
X119045122Y-44945320D01*
X119045162Y-44899833D01*
X118903117Y-44556057D01*
X118640327Y-44292808D01*
X118296799Y-44150162D01*
X117924833Y-44149838D01*
X117581057Y-44291883D01*
X117317808Y-44554673D01*
X117175162Y-44898201D01*
X117174838Y-45270167D01*
X117316883Y-45613943D01*
X117579673Y-45877192D01*
X117923201Y-46019838D01*
X117970077Y-46019879D01*
X120580198Y-48630000D01*
X120522998Y-48630000D01*
X120522998Y-48794002D01*
X120285258Y-48673954D01*
X119742424Y-48927034D01*
X119619156Y-49061538D01*
X119613162Y-49029683D01*
X119474090Y-48813559D01*
X119261890Y-48668569D01*
X119010000Y-48617560D01*
X117210000Y-48617560D01*
X116974683Y-48661838D01*
X116758559Y-48800910D01*
X116613569Y-49013110D01*
X116562560Y-49265000D01*
X111305394Y-49265000D01*
X111413139Y-49157255D01*
X111339005Y-48911136D01*
X110801777Y-48718035D01*
X110231546Y-48745222D01*
X109840053Y-48907384D01*
X109636890Y-48768569D01*
X109385000Y-48717560D01*
X107785000Y-48717560D01*
X107549683Y-48761838D01*
X107333559Y-48900910D01*
X107188569Y-49113110D01*
X107137560Y-49365000D01*
X103732440Y-49365000D01*
X103732440Y-48680000D01*
X103688162Y-48444683D01*
X103549090Y-48228559D01*
X103336890Y-48083569D01*
X103085000Y-48032560D01*
X102995000Y-48032560D01*
X102995000Y-45312440D01*
X103085000Y-45312440D01*
X103320317Y-45268162D01*
X103536441Y-45129090D01*
X103681431Y-44916890D01*
X103732440Y-44665000D01*
X103732440Y-42965000D01*
X103688162Y-42729683D01*
X103549090Y-42513559D01*
X103336890Y-42368569D01*
X103085000Y-42317560D01*
X101385000Y-42317560D01*
X101149683Y-42361838D01*
X100933559Y-42500910D01*
X100788569Y-42713110D01*
X100766699Y-42821107D01*
X100461924Y-42543355D01*
X100051890Y-42373524D01*
X99822000Y-42494845D01*
X99568000Y-42494845D01*
X99338110Y-42373524D01*
X98928076Y-42543355D01*
X98499817Y-42933642D01*
X98253514Y-43458108D01*
X96595000Y-43458108D01*
X96595000Y-33413109D01*
X97709657Y-33413109D01*
X98011218Y-34142943D01*
X98569120Y-34701819D01*
X99298427Y-35004654D01*
X100088109Y-35005343D01*
X100817943Y-34703782D01*
X101376819Y-34145880D01*
X101679654Y-33416573D01*
X101680343Y-32626891D01*
X101378782Y-31897057D01*
X100820880Y-31338181D01*
X100091573Y-31035346D01*
X99301891Y-31034657D01*
X98572057Y-31336218D01*
X98013181Y-31894120D01*
X97710346Y-32623427D01*
X97709657Y-33413109D01*
X96595000Y-33413109D01*
X96595000Y-30900000D01*
X105817560Y-30900000D01*
X105817560Y-32600000D01*
X105861838Y-32835317D01*
X106000910Y-33051441D01*
X106213110Y-33196431D01*
X106465000Y-33247440D01*
X106555000Y-33247440D01*
X106555000Y-36861354D01*
X106503200Y-36882757D01*
X106099176Y-37286077D01*
X105880250Y-37813309D01*
X105879752Y-38384187D01*
X106097757Y-38911800D01*
X106501077Y-39315824D01*
X107028309Y-39534750D01*
X107599187Y-39535248D01*
X108126800Y-39317243D01*
X108336663Y-39107745D01*
X108986861Y-39107745D01*
X109060995Y-39353864D01*
X109598223Y-39546965D01*
X110168454Y-39519778D01*
X110569005Y-39353864D01*
X110643139Y-39107745D01*
X132561861Y-39107745D01*
X132635995Y-39353864D01*
X133173223Y-39546965D01*
X133743454Y-39519778D01*
X134144005Y-39353864D01*
X134218139Y-39107745D01*
X133390000Y-38279605D01*
X132561861Y-39107745D01*
X110643139Y-39107745D01*
X109815000Y-38279605D01*
X108986861Y-39107745D01*
X108336663Y-39107745D01*
X108530824Y-38913923D01*
X108558423Y-38847456D01*
X108561136Y-38854005D01*
X108807255Y-38928139D01*
X109635395Y-38100000D01*
X109994605Y-38100000D01*
X110822745Y-38928139D01*
X111068864Y-38854005D01*
X111261965Y-38316777D01*
X111241295Y-37883223D01*
X131943035Y-37883223D01*
X131970222Y-38453454D01*
X132136136Y-38854005D01*
X132382255Y-38928139D01*
X133210395Y-38100000D01*
X132382255Y-37271861D01*
X132136136Y-37345995D01*
X131943035Y-37883223D01*
X111241295Y-37883223D01*
X111234778Y-37746546D01*
X111068864Y-37345995D01*
X110822745Y-37271861D01*
X109994605Y-38100000D01*
X109635395Y-38100000D01*
X108807255Y-37271861D01*
X108561136Y-37345995D01*
X108558804Y-37352483D01*
X108532243Y-37288200D01*
X108336640Y-37092255D01*
X108986861Y-37092255D01*
X109815000Y-37920395D01*
X110643139Y-37092255D01*
X132561861Y-37092255D01*
X133390000Y-37920395D01*
X134218139Y-37092255D01*
X134144005Y-36846136D01*
X133606777Y-36653035D01*
X133036546Y-36680222D01*
X132635995Y-36846136D01*
X132561861Y-37092255D01*
X110643139Y-37092255D01*
X110569005Y-36846136D01*
X110031777Y-36653035D01*
X109461546Y-36680222D01*
X109060995Y-36846136D01*
X108986861Y-37092255D01*
X108336640Y-37092255D01*
X108128923Y-36884176D01*
X108075000Y-36861785D01*
X108075000Y-33505000D01*
X118218275Y-33505000D01*
X118399822Y-34417700D01*
X118916825Y-35191450D01*
X119690575Y-35708453D01*
X120603275Y-35890000D01*
X120696725Y-35890000D01*
X121609425Y-35708453D01*
X122383175Y-35191450D01*
X122900178Y-34417700D01*
X123081725Y-33505000D01*
X122900178Y-32592300D01*
X122575839Y-32106892D01*
X131908514Y-32106892D01*
X132154817Y-32631358D01*
X132583076Y-33021645D01*
X132993110Y-33191476D01*
X133223000Y-33070155D01*
X133223000Y-31877000D01*
X132029181Y-31877000D01*
X131908514Y-32106892D01*
X122575839Y-32106892D01*
X122383175Y-31818550D01*
X121746456Y-31393108D01*
X131908514Y-31393108D01*
X132029181Y-31623000D01*
X133223000Y-31623000D01*
X133223000Y-30429845D01*
X133477000Y-30429845D01*
X133477000Y-31623000D01*
X133497000Y-31623000D01*
X133497000Y-31877000D01*
X133477000Y-31877000D01*
X133477000Y-33070155D01*
X133706890Y-33191476D01*
X134116924Y-33021645D01*
X134419937Y-32745499D01*
X134436838Y-32835317D01*
X134575910Y-33051441D01*
X134788110Y-33196431D01*
X135040000Y-33247440D01*
X135130000Y-33247440D01*
X135130000Y-36861354D01*
X135078200Y-36882757D01*
X134674176Y-37286077D01*
X134646577Y-37352544D01*
X134643864Y-37345995D01*
X134397745Y-37271861D01*
X133569605Y-38100000D01*
X134397745Y-38928139D01*
X134643864Y-38854005D01*
X134646196Y-38847517D01*
X134672757Y-38911800D01*
X135076077Y-39315824D01*
X135130000Y-39338215D01*
X135130000Y-44414895D01*
X135071471Y-44452558D01*
X134914001Y-44375592D01*
X134747000Y-44502498D01*
X134747000Y-45593000D01*
X134767000Y-45593000D01*
X134767000Y-45847000D01*
X134747000Y-45847000D01*
X134747000Y-46937502D01*
X134914001Y-47064408D01*
X135072075Y-46987147D01*
X135188110Y-47066431D01*
X135440000Y-47117440D01*
X136340000Y-47117440D01*
X136575317Y-47073162D01*
X136791441Y-46934090D01*
X136936431Y-46721890D01*
X136987440Y-46470000D01*
X136987440Y-44970000D01*
X136943162Y-44734683D01*
X136804090Y-44518559D01*
X136650000Y-44413274D01*
X136650000Y-39338646D01*
X136701800Y-39317243D01*
X137105824Y-38913923D01*
X137324750Y-38386691D01*
X137325248Y-37815813D01*
X137107243Y-37288200D01*
X136703923Y-36884176D01*
X136650000Y-36861785D01*
X136650000Y-33413109D01*
X140254657Y-33413109D01*
X140556218Y-34142943D01*
X141114120Y-34701819D01*
X141843427Y-35004654D01*
X142633109Y-35005343D01*
X143362943Y-34703782D01*
X143921819Y-34145880D01*
X144224654Y-33416573D01*
X144225343Y-32626891D01*
X143923782Y-31897057D01*
X143365880Y-31338181D01*
X142636573Y-31035346D01*
X141846891Y-31034657D01*
X141117057Y-31336218D01*
X140558181Y-31894120D01*
X140255346Y-32623427D01*
X140254657Y-33413109D01*
X136650000Y-33413109D01*
X136650000Y-33247440D01*
X136740000Y-33247440D01*
X136975317Y-33203162D01*
X137191441Y-33064090D01*
X137336431Y-32851890D01*
X137387440Y-32600000D01*
X137387440Y-30900000D01*
X137343162Y-30664683D01*
X137204090Y-30448559D01*
X136991890Y-30303569D01*
X136740000Y-30252560D01*
X135040000Y-30252560D01*
X134804683Y-30296838D01*
X134588559Y-30435910D01*
X134443569Y-30648110D01*
X134421699Y-30756107D01*
X134116924Y-30478355D01*
X133706890Y-30308524D01*
X133477000Y-30429845D01*
X133223000Y-30429845D01*
X132993110Y-30308524D01*
X132583076Y-30478355D01*
X132154817Y-30868642D01*
X131908514Y-31393108D01*
X121746456Y-31393108D01*
X121609425Y-31301547D01*
X120696725Y-31120000D01*
X120603275Y-31120000D01*
X119690575Y-31301547D01*
X118916825Y-31818550D01*
X118399822Y-32592300D01*
X118218275Y-33505000D01*
X108075000Y-33505000D01*
X108075000Y-33247440D01*
X108165000Y-33247440D01*
X108400317Y-33203162D01*
X108616441Y-33064090D01*
X108761431Y-32851890D01*
X108783301Y-32743893D01*
X109088076Y-33021645D01*
X109498110Y-33191476D01*
X109728000Y-33070155D01*
X109728000Y-31877000D01*
X109982000Y-31877000D01*
X109982000Y-33070155D01*
X110211890Y-33191476D01*
X110621924Y-33021645D01*
X111050183Y-32631358D01*
X111296486Y-32106892D01*
X111175819Y-31877000D01*
X109982000Y-31877000D01*
X109728000Y-31877000D01*
X109708000Y-31877000D01*
X109708000Y-31623000D01*
X109728000Y-31623000D01*
X109728000Y-30429845D01*
X109982000Y-30429845D01*
X109982000Y-31623000D01*
X111175819Y-31623000D01*
X111296486Y-31393108D01*
X111050183Y-30868642D01*
X110621924Y-30478355D01*
X110211890Y-30308524D01*
X109982000Y-30429845D01*
X109728000Y-30429845D01*
X109498110Y-30308524D01*
X109088076Y-30478355D01*
X108785063Y-30754501D01*
X108768162Y-30664683D01*
X108629090Y-30448559D01*
X108416890Y-30303569D01*
X108165000Y-30252560D01*
X106465000Y-30252560D01*
X106229683Y-30296838D01*
X106013559Y-30435910D01*
X105868569Y-30648110D01*
X105817560Y-30900000D01*
X96595000Y-30900000D01*
X96595000Y-29920000D01*
X145340000Y-29920000D01*
X145340000Y-76760000D01*
X145340000Y-76760000D01*
G37*
X145340000Y-76760000D02*
X125207812Y-76760000D01*
X125271431Y-76666890D01*
X125322440Y-76415000D01*
X125322440Y-74715000D01*
X125289557Y-74540245D01*
X125749802Y-74080000D01*
X129947560Y-74080000D01*
X129947560Y-75780000D01*
X129991838Y-76015317D01*
X130130910Y-76231441D01*
X130343110Y-76376431D01*
X130595000Y-76427440D01*
X132295000Y-76427440D01*
X132530317Y-76383162D01*
X132746441Y-76244090D01*
X132891431Y-76031890D01*
X132913301Y-75923893D01*
X133218076Y-76201645D01*
X133628110Y-76371476D01*
X133858000Y-76250155D01*
X133858000Y-75057000D01*
X134112000Y-75057000D01*
X134112000Y-76250155D01*
X134341890Y-76371476D01*
X134751924Y-76201645D01*
X135180183Y-75811358D01*
X135426486Y-75286892D01*
X135305819Y-75057000D01*
X134112000Y-75057000D01*
X133858000Y-75057000D01*
X133838000Y-75057000D01*
X133838000Y-74803000D01*
X133858000Y-74803000D01*
X133858000Y-73609845D01*
X134112000Y-73609845D01*
X134112000Y-74803000D01*
X135305819Y-74803000D01*
X135426486Y-74573108D01*
X135180183Y-74048642D01*
X134751924Y-73658355D01*
X134341890Y-73488524D01*
X134112000Y-73609845D01*
X133858000Y-73609845D01*
X133628110Y-73488524D01*
X133218076Y-73658355D01*
X132915063Y-73934501D01*
X132898162Y-73844683D01*
X132759090Y-73628559D01*
X132546890Y-73483569D01*
X132295000Y-73432560D01*
X130595000Y-73432560D01*
X130359683Y-73476838D01*
X130143559Y-73615910D01*
X129998569Y-73828110D01*
X129947560Y-74080000D01*
X125749802Y-74080000D01*
X126411693Y-73418109D01*
X139619657Y-73418109D01*
X139921218Y-74147943D01*
X140479120Y-74706819D01*
X141208427Y-75009654D01*
X141998109Y-75010343D01*
X142727943Y-74708782D01*
X143286819Y-74150880D01*
X143589654Y-73421573D01*
X143590343Y-72631891D01*
X143288782Y-71902057D01*
X142730880Y-71343181D01*
X142001573Y-71040346D01*
X141211891Y-71039657D01*
X140482057Y-71341218D01*
X139923181Y-71899120D01*
X139620346Y-72628427D01*
X139619657Y-73418109D01*
X126411693Y-73418109D01*
X131078592Y-68751210D01*
X131445000Y-68824093D01*
X132013285Y-68711054D01*
X132495054Y-68389147D01*
X132816961Y-67907378D01*
X132930000Y-67339093D01*
X132930000Y-67280907D01*
X132816961Y-66712622D01*
X132495054Y-66230853D01*
X132013285Y-65908946D01*
X131445000Y-65795907D01*
X130876715Y-65908946D01*
X130394946Y-66230853D01*
X130175000Y-66560026D01*
X129955054Y-66230853D01*
X129473285Y-65908946D01*
X128905000Y-65795907D01*
X128538592Y-65868790D01*
X128172401Y-65502599D01*
X127925839Y-65337852D01*
X127635000Y-65280000D01*
X125095000Y-65280000D01*
X124804161Y-65337852D01*
X124557599Y-65502599D01*
X124392852Y-65749161D01*
X124362295Y-65902782D01*
X123825000Y-65795907D01*
X123256715Y-65908946D01*
X122774946Y-66230853D01*
X122555000Y-66560026D01*
X122335054Y-66230853D01*
X121853285Y-65908946D01*
X121285000Y-65795907D01*
X120716715Y-65908946D01*
X120234946Y-66230853D01*
X120015000Y-66560026D01*
X119795054Y-66230853D01*
X119313285Y-65908946D01*
X118745000Y-65795907D01*
X118176715Y-65908946D01*
X117694946Y-66230853D01*
X117475000Y-66560026D01*
X117255054Y-66230853D01*
X116773285Y-65908946D01*
X116205000Y-65795907D01*
X115636715Y-65908946D01*
X115154946Y-66230853D01*
X114927298Y-66571553D01*
X114860183Y-66428642D01*
X114431924Y-66038355D01*
X114021890Y-65868524D01*
X113792000Y-65989845D01*
X113792000Y-67183000D01*
X113812000Y-67183000D01*
X113812000Y-67437000D01*
X113792000Y-67437000D01*
X113792000Y-67457000D01*
X113538000Y-67457000D01*
X113538000Y-67437000D01*
X113518000Y-67437000D01*
X113518000Y-67183000D01*
X113538000Y-67183000D01*
X113538000Y-65989845D01*
X113308110Y-65868524D01*
X112898076Y-66038355D01*
X112469817Y-66428642D01*
X112402702Y-66571553D01*
X112175054Y-66230853D01*
X111693285Y-65908946D01*
X111125000Y-65795907D01*
X110556715Y-65908946D01*
X110074946Y-66230853D01*
X110047150Y-66272452D01*
X110038162Y-66224683D01*
X109899090Y-66008559D01*
X109686890Y-65863569D01*
X109435000Y-65812560D01*
X107735000Y-65812560D01*
X107499683Y-65856838D01*
X107283559Y-65995910D01*
X107138569Y-66208110D01*
X107087560Y-66460000D01*
X107087560Y-68160000D01*
X107131838Y-68395317D01*
X107270910Y-68611441D01*
X107483110Y-68756431D01*
X107735000Y-68807440D01*
X109435000Y-68807440D01*
X109670317Y-68763162D01*
X109886441Y-68624090D01*
X110031431Y-68411890D01*
X110045086Y-68344459D01*
X110074946Y-68389147D01*
X110556715Y-68711054D01*
X111125000Y-68824093D01*
X111693285Y-68711054D01*
X112175054Y-68389147D01*
X112402702Y-68048447D01*
X112469817Y-68191358D01*
X112736135Y-68434063D01*
X107046408Y-74123790D01*
X106680000Y-74050907D01*
X106111715Y-74163946D01*
X105629946Y-74485853D01*
X105308039Y-74967622D01*
X105195000Y-75535907D01*
X105195000Y-75594093D01*
X105308039Y-76162378D01*
X105629946Y-76644147D01*
X105803333Y-76760000D01*
X96595000Y-76760000D01*
X96595000Y-74053109D01*
X97709657Y-74053109D01*
X98011218Y-74782943D01*
X98569120Y-75341819D01*
X99298427Y-75644654D01*
X100088109Y-75645343D01*
X100817943Y-75343782D01*
X101376819Y-74785880D01*
X101679654Y-74056573D01*
X101680343Y-73266891D01*
X101378782Y-72537057D01*
X100820880Y-71978181D01*
X100091573Y-71675346D01*
X99301891Y-71674657D01*
X98572057Y-71976218D01*
X98013181Y-72534120D01*
X97710346Y-73263427D01*
X97709657Y-74053109D01*
X96595000Y-74053109D01*
X96595000Y-58420000D01*
X96910907Y-58420000D01*
X97023946Y-58988285D01*
X97345853Y-59470054D01*
X97387452Y-59497850D01*
X97339683Y-59506838D01*
X97123559Y-59645910D01*
X96978569Y-59858110D01*
X96927560Y-60110000D01*
X96927560Y-61810000D01*
X96971838Y-62045317D01*
X97110910Y-62261441D01*
X97323110Y-62406431D01*
X97575000Y-62457440D01*
X99275000Y-62457440D01*
X99510317Y-62413162D01*
X99726441Y-62274090D01*
X99871431Y-62061890D01*
X99922440Y-61810000D01*
X99922440Y-60110000D01*
X99878162Y-59874683D01*
X99739090Y-59658559D01*
X99526890Y-59513569D01*
X99459459Y-59499914D01*
X99504147Y-59470054D01*
X99826054Y-58988285D01*
X99939093Y-58420000D01*
X99826054Y-57851715D01*
X99504147Y-57369946D01*
X99131433Y-57120907D01*
X112180000Y-57120907D01*
X112180000Y-57179093D01*
X112293039Y-57747378D01*
X112614946Y-58229147D01*
X113096715Y-58551054D01*
X113665000Y-58664093D01*
X114233285Y-58551054D01*
X114715054Y-58229147D01*
X114935000Y-57899974D01*
X115154946Y-58229147D01*
X115636715Y-58551054D01*
X116205000Y-58664093D01*
X116773285Y-58551054D01*
X117255054Y-58229147D01*
X117482702Y-57888447D01*
X117549817Y-58031358D01*
X117978076Y-58421645D01*
X118388110Y-58591476D01*
X118618000Y-58470155D01*
X118618000Y-57277000D01*
X118598000Y-57277000D01*
X118598000Y-57023000D01*
X118618000Y-57023000D01*
X118618000Y-55829845D01*
X118872000Y-55829845D01*
X118872000Y-57023000D01*
X121158000Y-57023000D01*
X121158000Y-55829845D01*
X120928110Y-55708524D01*
X120518076Y-55878355D01*
X120089817Y-56268642D01*
X120015000Y-56427954D01*
X119940183Y-56268642D01*
X119511924Y-55878355D01*
X119101890Y-55708524D01*
X118872000Y-55829845D01*
X118618000Y-55829845D01*
X118388110Y-55708524D01*
X117978076Y-55878355D01*
X117549817Y-56268642D01*
X117482702Y-56411553D01*
X117255054Y-56070853D01*
X116773285Y-55748946D01*
X116205000Y-55635907D01*
X115636715Y-55748946D01*
X115154946Y-56070853D01*
X114935000Y-56400026D01*
X114715054Y-56070853D01*
X114233285Y-55748946D01*
X113665000Y-55635907D01*
X113096715Y-55748946D01*
X112614946Y-56070853D01*
X112293039Y-56552622D01*
X112180000Y-57120907D01*
X99131433Y-57120907D01*
X99022378Y-57048039D01*
X98454093Y-56935000D01*
X98395907Y-56935000D01*
X97827622Y-57048039D01*
X97345853Y-57369946D01*
X97023946Y-57851715D01*
X96910907Y-58420000D01*
X96595000Y-58420000D01*
X96595000Y-49886892D01*
X98253514Y-49886892D01*
X98499817Y-50411358D01*
X98928076Y-50801645D01*
X99338110Y-50971476D01*
X99568000Y-50850155D01*
X99568000Y-49657000D01*
X98374181Y-49657000D01*
X98253514Y-49886892D01*
X96595000Y-49886892D01*
X96595000Y-49173108D01*
X98253514Y-49173108D01*
X98374181Y-49403000D01*
X99568000Y-49403000D01*
X99568000Y-48209845D01*
X99338110Y-48088524D01*
X98928076Y-48258355D01*
X98499817Y-48648642D01*
X98253514Y-49173108D01*
X96595000Y-49173108D01*
X96595000Y-44171892D01*
X98253514Y-44171892D01*
X98499817Y-44696358D01*
X98928076Y-45086645D01*
X99338110Y-45256476D01*
X99568000Y-45135155D01*
X99568000Y-43942000D01*
X98374181Y-43942000D01*
X98253514Y-44171892D01*
X96595000Y-44171892D01*
X96595000Y-43458108D01*
X98253514Y-43458108D01*
X98374181Y-43688000D01*
X99568000Y-43688000D01*
X99568000Y-42494845D01*
X99822000Y-42494845D01*
X99822000Y-43688000D01*
X99842000Y-43688000D01*
X99842000Y-43942000D01*
X99822000Y-43942000D01*
X99822000Y-45135155D01*
X100051890Y-45256476D01*
X100461924Y-45086645D01*
X100764937Y-44810499D01*
X100781838Y-44900317D01*
X100920910Y-45116441D01*
X101133110Y-45261431D01*
X101385000Y-45312440D01*
X101475000Y-45312440D01*
X101475000Y-48032560D01*
X101385000Y-48032560D01*
X101149683Y-48076838D01*
X100933559Y-48215910D01*
X100788569Y-48428110D01*
X100766699Y-48536107D01*
X100461924Y-48258355D01*
X100051890Y-48088524D01*
X99822000Y-48209845D01*
X99822000Y-49403000D01*
X99842000Y-49403000D01*
X99842000Y-49657000D01*
X99822000Y-49657000D01*
X99822000Y-50850155D01*
X100051890Y-50971476D01*
X100461924Y-50801645D01*
X100764937Y-50525499D01*
X100781838Y-50615317D01*
X100920910Y-50831441D01*
X101133110Y-50976431D01*
X101385000Y-51027440D01*
X103085000Y-51027440D01*
X103320317Y-50983162D01*
X103536441Y-50844090D01*
X103681431Y-50631890D01*
X103732440Y-50380000D01*
X103732440Y-49365000D01*
X107137560Y-49365000D01*
X107137560Y-50965000D01*
X107181838Y-51200317D01*
X107320910Y-51416441D01*
X107533110Y-51561431D01*
X107785000Y-51612440D01*
X109385000Y-51612440D01*
X109620317Y-51568162D01*
X109836441Y-51429090D01*
X109840977Y-51422452D01*
X110368223Y-51611965D01*
X110938454Y-51584778D01*
X111339005Y-51418864D01*
X111413139Y-51172745D01*
X110585000Y-50344605D01*
X110570858Y-50358748D01*
X110391253Y-50179143D01*
X110405395Y-50165000D01*
X110764605Y-50165000D01*
X111592745Y-50993139D01*
X111838864Y-50919005D01*
X112031965Y-50381777D01*
X112004778Y-49811546D01*
X111838864Y-49410995D01*
X111592745Y-49336861D01*
X110764605Y-50165000D01*
X110405395Y-50165000D01*
X110391253Y-50150858D01*
X110570858Y-49971252D01*
X110585000Y-49985395D01*
X111305394Y-49265000D01*
X116562560Y-49265000D01*
X116562560Y-51065000D01*
X116606838Y-51300317D01*
X116745910Y-51516441D01*
X116958110Y-51661431D01*
X117210000Y-51712440D01*
X119010000Y-51712440D01*
X119245317Y-51668162D01*
X119461441Y-51529090D01*
X119606431Y-51316890D01*
X119616766Y-51265854D01*
X119742424Y-51402966D01*
X120285258Y-51656046D01*
X120523000Y-51535997D01*
X120523000Y-50292000D01*
X120503000Y-50292000D01*
X120503000Y-50038000D01*
X120523000Y-50038000D01*
X120523000Y-50018000D01*
X120777000Y-50018000D01*
X120777000Y-50038000D01*
X120797000Y-50038000D01*
X120797000Y-50292000D01*
X120777000Y-50292000D01*
X120777000Y-51535997D01*
X121014742Y-51656046D01*
X121557576Y-51402966D01*
X121795000Y-51143901D01*
X121795000Y-55771940D01*
X121641890Y-55708524D01*
X121412000Y-55829845D01*
X121412000Y-57023000D01*
X121432000Y-57023000D01*
X121432000Y-57277000D01*
X121412000Y-57277000D01*
X121412000Y-57297000D01*
X121158000Y-57297000D01*
X121158000Y-57277000D01*
X118872000Y-57277000D01*
X118872000Y-58470155D01*
X119101890Y-58591476D01*
X119511924Y-58421645D01*
X119940183Y-58031358D01*
X120015000Y-57872046D01*
X120089817Y-58031358D01*
X120518076Y-58421645D01*
X120928110Y-58591476D01*
X121157998Y-58470156D01*
X121157998Y-58635000D01*
X121265198Y-58635000D01*
X121145320Y-58754878D01*
X121099833Y-58754838D01*
X120756057Y-58896883D01*
X120492808Y-59159673D01*
X120350162Y-59503201D01*
X120349838Y-59875167D01*
X120491883Y-60218943D01*
X120754673Y-60482192D01*
X121098201Y-60624838D01*
X121470167Y-60625162D01*
X121813943Y-60483117D01*
X122077192Y-60220327D01*
X122219838Y-59876799D01*
X122219879Y-59829923D01*
X123092401Y-58957401D01*
X123257148Y-58710840D01*
X123287705Y-58557218D01*
X123825000Y-58664093D01*
X124393285Y-58551054D01*
X124875054Y-58229147D01*
X125095000Y-57899974D01*
X125314946Y-58229147D01*
X125796715Y-58551054D01*
X126365000Y-58664093D01*
X126933285Y-58551054D01*
X127415054Y-58229147D01*
X127736961Y-57747378D01*
X127818954Y-57335167D01*
X138764838Y-57335167D01*
X138906883Y-57678943D01*
X139169673Y-57942192D01*
X139513201Y-58084838D01*
X139560077Y-58084879D01*
X141377560Y-59902362D01*
X141377560Y-61175000D01*
X141421838Y-61410317D01*
X141560910Y-61626441D01*
X141773110Y-61771431D01*
X142025000Y-61822440D01*
X143725000Y-61822440D01*
X143960317Y-61778162D01*
X144176441Y-61639090D01*
X144321431Y-61426890D01*
X144372440Y-61175000D01*
X144372440Y-59475000D01*
X144328162Y-59239683D01*
X144189090Y-59023559D01*
X143976890Y-58878569D01*
X143909459Y-58864914D01*
X143954147Y-58835054D01*
X144276054Y-58353285D01*
X144389093Y-57785000D01*
X144276054Y-57216715D01*
X143954147Y-56734946D01*
X143472378Y-56413039D01*
X142904093Y-56300000D01*
X142845907Y-56300000D01*
X142277622Y-56413039D01*
X141795853Y-56734946D01*
X141473946Y-57216715D01*
X141369019Y-57744217D01*
X140635122Y-57010320D01*
X140635162Y-56964833D01*
X140493117Y-56621057D01*
X140230327Y-56357808D01*
X139886799Y-56215162D01*
X139514833Y-56214838D01*
X139171057Y-56356883D01*
X138907808Y-56619673D01*
X138765162Y-56963201D01*
X138764838Y-57335167D01*
X127818954Y-57335167D01*
X127850000Y-57179093D01*
X127850000Y-57120907D01*
X127736961Y-56552622D01*
X127415054Y-56070853D01*
X126933285Y-55748946D01*
X126365000Y-55635907D01*
X125796715Y-55748946D01*
X125314946Y-56070853D01*
X125095000Y-56400026D01*
X124875054Y-56070853D01*
X124393285Y-55748946D01*
X123825000Y-55635907D01*
X123315000Y-55737352D01*
X123315000Y-51681118D01*
X123807491Y-51583155D01*
X124305481Y-51250409D01*
X124638227Y-50752419D01*
X124755072Y-50165000D01*
X124665595Y-49715167D01*
X129239838Y-49715167D01*
X129381883Y-50058943D01*
X129644673Y-50322192D01*
X129988201Y-50464838D01*
X130035077Y-50464879D01*
X131902560Y-52332362D01*
X131902560Y-53505000D01*
X131946838Y-53740317D01*
X132085910Y-53956441D01*
X132298110Y-54101431D01*
X132550000Y-54152440D01*
X134150000Y-54152440D01*
X134385317Y-54108162D01*
X134601441Y-53969090D01*
X134605977Y-53962452D01*
X135133223Y-54151965D01*
X135703454Y-54124778D01*
X136104005Y-53958864D01*
X136178139Y-53712745D01*
X135350000Y-52884605D01*
X135335858Y-52898748D01*
X135156253Y-52719143D01*
X135170395Y-52705000D01*
X135529605Y-52705000D01*
X136357745Y-53533139D01*
X136603864Y-53459005D01*
X136796965Y-52921777D01*
X136769778Y-52351546D01*
X136603864Y-51950995D01*
X136357745Y-51876861D01*
X135529605Y-52705000D01*
X135170395Y-52705000D01*
X135156253Y-52690858D01*
X135335858Y-52511252D01*
X135350000Y-52525395D01*
X136178139Y-51697255D01*
X136104005Y-51451136D01*
X135566777Y-51258035D01*
X134996546Y-51285222D01*
X134605053Y-51447384D01*
X134401890Y-51308569D01*
X134150000Y-51257560D01*
X134110000Y-51257560D01*
X134110000Y-46958836D01*
X134325999Y-47064408D01*
X134493000Y-46937502D01*
X134493000Y-45847000D01*
X134473000Y-45847000D01*
X134473000Y-45593000D01*
X134493000Y-45593000D01*
X134493000Y-44502498D01*
X134325999Y-44375592D01*
X133989274Y-44540170D01*
X133765212Y-44390457D01*
X133350000Y-44307866D01*
X132934788Y-44390457D01*
X132582789Y-44625655D01*
X132347591Y-44977654D01*
X132265000Y-45392866D01*
X132265000Y-46047134D01*
X132347591Y-46462346D01*
X132582789Y-46814345D01*
X132590000Y-46819163D01*
X132590000Y-50870198D01*
X131110122Y-49390320D01*
X131110162Y-49344833D01*
X130968117Y-49001057D01*
X130705327Y-48737808D01*
X130361799Y-48595162D01*
X129989833Y-48594838D01*
X129646057Y-48736883D01*
X129382808Y-48999673D01*
X129240162Y-49343201D01*
X129239838Y-49715167D01*
X124665595Y-49715167D01*
X124638227Y-49577581D01*
X124305481Y-49079591D01*
X123807491Y-48746845D01*
X123220072Y-48630000D01*
X123159928Y-48630000D01*
X122801165Y-48701363D01*
X119045122Y-44945320D01*
X119045162Y-44899833D01*
X118903117Y-44556057D01*
X118640327Y-44292808D01*
X118296799Y-44150162D01*
X117924833Y-44149838D01*
X117581057Y-44291883D01*
X117317808Y-44554673D01*
X117175162Y-44898201D01*
X117174838Y-45270167D01*
X117316883Y-45613943D01*
X117579673Y-45877192D01*
X117923201Y-46019838D01*
X117970077Y-46019879D01*
X120580198Y-48630000D01*
X120522998Y-48630000D01*
X120522998Y-48794002D01*
X120285258Y-48673954D01*
X119742424Y-48927034D01*
X119619156Y-49061538D01*
X119613162Y-49029683D01*
X119474090Y-48813559D01*
X119261890Y-48668569D01*
X119010000Y-48617560D01*
X117210000Y-48617560D01*
X116974683Y-48661838D01*
X116758559Y-48800910D01*
X116613569Y-49013110D01*
X116562560Y-49265000D01*
X111305394Y-49265000D01*
X111413139Y-49157255D01*
X111339005Y-48911136D01*
X110801777Y-48718035D01*
X110231546Y-48745222D01*
X109840053Y-48907384D01*
X109636890Y-48768569D01*
X109385000Y-48717560D01*
X107785000Y-48717560D01*
X107549683Y-48761838D01*
X107333559Y-48900910D01*
X107188569Y-49113110D01*
X107137560Y-49365000D01*
X103732440Y-49365000D01*
X103732440Y-48680000D01*
X103688162Y-48444683D01*
X103549090Y-48228559D01*
X103336890Y-48083569D01*
X103085000Y-48032560D01*
X102995000Y-48032560D01*
X102995000Y-45312440D01*
X103085000Y-45312440D01*
X103320317Y-45268162D01*
X103536441Y-45129090D01*
X103681431Y-44916890D01*
X103732440Y-44665000D01*
X103732440Y-42965000D01*
X103688162Y-42729683D01*
X103549090Y-42513559D01*
X103336890Y-42368569D01*
X103085000Y-42317560D01*
X101385000Y-42317560D01*
X101149683Y-42361838D01*
X100933559Y-42500910D01*
X100788569Y-42713110D01*
X100766699Y-42821107D01*
X100461924Y-42543355D01*
X100051890Y-42373524D01*
X99822000Y-42494845D01*
X99568000Y-42494845D01*
X99338110Y-42373524D01*
X98928076Y-42543355D01*
X98499817Y-42933642D01*
X98253514Y-43458108D01*
X96595000Y-43458108D01*
X96595000Y-33413109D01*
X97709657Y-33413109D01*
X98011218Y-34142943D01*
X98569120Y-34701819D01*
X99298427Y-35004654D01*
X100088109Y-35005343D01*
X100817943Y-34703782D01*
X101376819Y-34145880D01*
X101679654Y-33416573D01*
X101680343Y-32626891D01*
X101378782Y-31897057D01*
X100820880Y-31338181D01*
X100091573Y-31035346D01*
X99301891Y-31034657D01*
X98572057Y-31336218D01*
X98013181Y-31894120D01*
X97710346Y-32623427D01*
X97709657Y-33413109D01*
X96595000Y-33413109D01*
X96595000Y-30900000D01*
X105817560Y-30900000D01*
X105817560Y-32600000D01*
X105861838Y-32835317D01*
X106000910Y-33051441D01*
X106213110Y-33196431D01*
X106465000Y-33247440D01*
X106555000Y-33247440D01*
X106555000Y-36861354D01*
X106503200Y-36882757D01*
X106099176Y-37286077D01*
X105880250Y-37813309D01*
X105879752Y-38384187D01*
X106097757Y-38911800D01*
X106501077Y-39315824D01*
X107028309Y-39534750D01*
X107599187Y-39535248D01*
X108126800Y-39317243D01*
X108336663Y-39107745D01*
X108986861Y-39107745D01*
X109060995Y-39353864D01*
X109598223Y-39546965D01*
X110168454Y-39519778D01*
X110569005Y-39353864D01*
X110643139Y-39107745D01*
X132561861Y-39107745D01*
X132635995Y-39353864D01*
X133173223Y-39546965D01*
X133743454Y-39519778D01*
X134144005Y-39353864D01*
X134218139Y-39107745D01*
X133390000Y-38279605D01*
X132561861Y-39107745D01*
X110643139Y-39107745D01*
X109815000Y-38279605D01*
X108986861Y-39107745D01*
X108336663Y-39107745D01*
X108530824Y-38913923D01*
X108558423Y-38847456D01*
X108561136Y-38854005D01*
X108807255Y-38928139D01*
X109635395Y-38100000D01*
X109994605Y-38100000D01*
X110822745Y-38928139D01*
X111068864Y-38854005D01*
X111261965Y-38316777D01*
X111241295Y-37883223D01*
X131943035Y-37883223D01*
X131970222Y-38453454D01*
X132136136Y-38854005D01*
X132382255Y-38928139D01*
X133210395Y-38100000D01*
X132382255Y-37271861D01*
X132136136Y-37345995D01*
X131943035Y-37883223D01*
X111241295Y-37883223D01*
X111234778Y-37746546D01*
X111068864Y-37345995D01*
X110822745Y-37271861D01*
X109994605Y-38100000D01*
X109635395Y-38100000D01*
X108807255Y-37271861D01*
X108561136Y-37345995D01*
X108558804Y-37352483D01*
X108532243Y-37288200D01*
X108336640Y-37092255D01*
X108986861Y-37092255D01*
X109815000Y-37920395D01*
X110643139Y-37092255D01*
X132561861Y-37092255D01*
X133390000Y-37920395D01*
X134218139Y-37092255D01*
X134144005Y-36846136D01*
X133606777Y-36653035D01*
X133036546Y-36680222D01*
X132635995Y-36846136D01*
X132561861Y-37092255D01*
X110643139Y-37092255D01*
X110569005Y-36846136D01*
X110031777Y-36653035D01*
X109461546Y-36680222D01*
X109060995Y-36846136D01*
X108986861Y-37092255D01*
X108336640Y-37092255D01*
X108128923Y-36884176D01*
X108075000Y-36861785D01*
X108075000Y-33505000D01*
X118218275Y-33505000D01*
X118399822Y-34417700D01*
X118916825Y-35191450D01*
X119690575Y-35708453D01*
X120603275Y-35890000D01*
X120696725Y-35890000D01*
X121609425Y-35708453D01*
X122383175Y-35191450D01*
X122900178Y-34417700D01*
X123081725Y-33505000D01*
X122900178Y-32592300D01*
X122575839Y-32106892D01*
X131908514Y-32106892D01*
X132154817Y-32631358D01*
X132583076Y-33021645D01*
X132993110Y-33191476D01*
X133223000Y-33070155D01*
X133223000Y-31877000D01*
X132029181Y-31877000D01*
X131908514Y-32106892D01*
X122575839Y-32106892D01*
X122383175Y-31818550D01*
X121746456Y-31393108D01*
X131908514Y-31393108D01*
X132029181Y-31623000D01*
X133223000Y-31623000D01*
X133223000Y-30429845D01*
X133477000Y-30429845D01*
X133477000Y-31623000D01*
X133497000Y-31623000D01*
X133497000Y-31877000D01*
X133477000Y-31877000D01*
X133477000Y-33070155D01*
X133706890Y-33191476D01*
X134116924Y-33021645D01*
X134419937Y-32745499D01*
X134436838Y-32835317D01*
X134575910Y-33051441D01*
X134788110Y-33196431D01*
X135040000Y-33247440D01*
X135130000Y-33247440D01*
X135130000Y-36861354D01*
X135078200Y-36882757D01*
X134674176Y-37286077D01*
X134646577Y-37352544D01*
X134643864Y-37345995D01*
X134397745Y-37271861D01*
X133569605Y-38100000D01*
X134397745Y-38928139D01*
X134643864Y-38854005D01*
X134646196Y-38847517D01*
X134672757Y-38911800D01*
X135076077Y-39315824D01*
X135130000Y-39338215D01*
X135130000Y-44414895D01*
X135071471Y-44452558D01*
X134914001Y-44375592D01*
X134747000Y-44502498D01*
X134747000Y-45593000D01*
X134767000Y-45593000D01*
X134767000Y-45847000D01*
X134747000Y-45847000D01*
X134747000Y-46937502D01*
X134914001Y-47064408D01*
X135072075Y-46987147D01*
X135188110Y-47066431D01*
X135440000Y-47117440D01*
X136340000Y-47117440D01*
X136575317Y-47073162D01*
X136791441Y-46934090D01*
X136936431Y-46721890D01*
X136987440Y-46470000D01*
X136987440Y-44970000D01*
X136943162Y-44734683D01*
X136804090Y-44518559D01*
X136650000Y-44413274D01*
X136650000Y-39338646D01*
X136701800Y-39317243D01*
X137105824Y-38913923D01*
X137324750Y-38386691D01*
X137325248Y-37815813D01*
X137107243Y-37288200D01*
X136703923Y-36884176D01*
X136650000Y-36861785D01*
X136650000Y-33413109D01*
X140254657Y-33413109D01*
X140556218Y-34142943D01*
X141114120Y-34701819D01*
X141843427Y-35004654D01*
X142633109Y-35005343D01*
X143362943Y-34703782D01*
X143921819Y-34145880D01*
X144224654Y-33416573D01*
X144225343Y-32626891D01*
X143923782Y-31897057D01*
X143365880Y-31338181D01*
X142636573Y-31035346D01*
X141846891Y-31034657D01*
X141117057Y-31336218D01*
X140558181Y-31894120D01*
X140255346Y-32623427D01*
X140254657Y-33413109D01*
X136650000Y-33413109D01*
X136650000Y-33247440D01*
X136740000Y-33247440D01*
X136975317Y-33203162D01*
X137191441Y-33064090D01*
X137336431Y-32851890D01*
X137387440Y-32600000D01*
X137387440Y-30900000D01*
X137343162Y-30664683D01*
X137204090Y-30448559D01*
X136991890Y-30303569D01*
X136740000Y-30252560D01*
X135040000Y-30252560D01*
X134804683Y-30296838D01*
X134588559Y-30435910D01*
X134443569Y-30648110D01*
X134421699Y-30756107D01*
X134116924Y-30478355D01*
X133706890Y-30308524D01*
X133477000Y-30429845D01*
X133223000Y-30429845D01*
X132993110Y-30308524D01*
X132583076Y-30478355D01*
X132154817Y-30868642D01*
X131908514Y-31393108D01*
X121746456Y-31393108D01*
X121609425Y-31301547D01*
X120696725Y-31120000D01*
X120603275Y-31120000D01*
X119690575Y-31301547D01*
X118916825Y-31818550D01*
X118399822Y-32592300D01*
X118218275Y-33505000D01*
X108075000Y-33505000D01*
X108075000Y-33247440D01*
X108165000Y-33247440D01*
X108400317Y-33203162D01*
X108616441Y-33064090D01*
X108761431Y-32851890D01*
X108783301Y-32743893D01*
X109088076Y-33021645D01*
X109498110Y-33191476D01*
X109728000Y-33070155D01*
X109728000Y-31877000D01*
X109982000Y-31877000D01*
X109982000Y-33070155D01*
X110211890Y-33191476D01*
X110621924Y-33021645D01*
X111050183Y-32631358D01*
X111296486Y-32106892D01*
X111175819Y-31877000D01*
X109982000Y-31877000D01*
X109728000Y-31877000D01*
X109708000Y-31877000D01*
X109708000Y-31623000D01*
X109728000Y-31623000D01*
X109728000Y-30429845D01*
X109982000Y-30429845D01*
X109982000Y-31623000D01*
X111175819Y-31623000D01*
X111296486Y-31393108D01*
X111050183Y-30868642D01*
X110621924Y-30478355D01*
X110211890Y-30308524D01*
X109982000Y-30429845D01*
X109728000Y-30429845D01*
X109498110Y-30308524D01*
X109088076Y-30478355D01*
X108785063Y-30754501D01*
X108768162Y-30664683D01*
X108629090Y-30448559D01*
X108416890Y-30303569D01*
X108165000Y-30252560D01*
X106465000Y-30252560D01*
X106229683Y-30296838D01*
X106013559Y-30435910D01*
X105868569Y-30648110D01*
X105817560Y-30900000D01*
X96595000Y-30900000D01*
X96595000Y-29920000D01*
X145340000Y-29920000D01*
X145340000Y-76760000D01*
M02*
