G04 #@! TF.FileFunction,Legend,Top*
%FSLAX46Y46*%
G04 Gerber Fmt 4.6, Leading zero omitted, Abs format (unit mm)*
G04 Created by KiCad (PCBNEW 4.0.7) date 03/21/18 08:00:39*
%MOMM*%
%LPD*%
G01*
G04 APERTURE LIST*
%ADD10C,0.100000*%
%ADD11C,0.120000*%
%ADD12C,0.150000*%
G04 APERTURE END LIST*
D10*
D11*
X109855000Y-68640000D02*
X132775000Y-68640000D01*
X132775000Y-68640000D02*
X132775000Y-65980000D01*
X132775000Y-65980000D02*
X109855000Y-65980000D01*
X109855000Y-65980000D02*
X109855000Y-68640000D01*
X108585000Y-68640000D02*
X107255000Y-68640000D01*
X107255000Y-68640000D02*
X107255000Y-67310000D01*
X136655722Y-51525277D02*
G75*
G03X132044420Y-51525000I-2305722J-1179723D01*
G01*
X136655722Y-53884723D02*
G75*
G02X132044420Y-53885000I-2305722J1179723D01*
G01*
X136655722Y-53884723D02*
G75*
G03X136655580Y-51525000I-2305722J1179723D01*
G01*
X134350000Y-50155000D02*
X134350000Y-55255000D01*
X134390000Y-50155000D02*
X134390000Y-51725000D01*
X134390000Y-53685000D02*
X134390000Y-55255000D01*
X134430000Y-50156000D02*
X134430000Y-51725000D01*
X134430000Y-53685000D02*
X134430000Y-55254000D01*
X134470000Y-50157000D02*
X134470000Y-51725000D01*
X134470000Y-53685000D02*
X134470000Y-55253000D01*
X134510000Y-50159000D02*
X134510000Y-51725000D01*
X134510000Y-53685000D02*
X134510000Y-55251000D01*
X134550000Y-50162000D02*
X134550000Y-51725000D01*
X134550000Y-53685000D02*
X134550000Y-55248000D01*
X134590000Y-50166000D02*
X134590000Y-51725000D01*
X134590000Y-53685000D02*
X134590000Y-55244000D01*
X134630000Y-50170000D02*
X134630000Y-51725000D01*
X134630000Y-53685000D02*
X134630000Y-55240000D01*
X134670000Y-50174000D02*
X134670000Y-51725000D01*
X134670000Y-53685000D02*
X134670000Y-55236000D01*
X134710000Y-50180000D02*
X134710000Y-51725000D01*
X134710000Y-53685000D02*
X134710000Y-55230000D01*
X134750000Y-50186000D02*
X134750000Y-51725000D01*
X134750000Y-53685000D02*
X134750000Y-55224000D01*
X134790000Y-50192000D02*
X134790000Y-51725000D01*
X134790000Y-53685000D02*
X134790000Y-55218000D01*
X134830000Y-50199000D02*
X134830000Y-51725000D01*
X134830000Y-53685000D02*
X134830000Y-55211000D01*
X134870000Y-50207000D02*
X134870000Y-51725000D01*
X134870000Y-53685000D02*
X134870000Y-55203000D01*
X134910000Y-50216000D02*
X134910000Y-51725000D01*
X134910000Y-53685000D02*
X134910000Y-55194000D01*
X134950000Y-50225000D02*
X134950000Y-51725000D01*
X134950000Y-53685000D02*
X134950000Y-55185000D01*
X134990000Y-50235000D02*
X134990000Y-51725000D01*
X134990000Y-53685000D02*
X134990000Y-55175000D01*
X135030000Y-50245000D02*
X135030000Y-51725000D01*
X135030000Y-53685000D02*
X135030000Y-55165000D01*
X135071000Y-50257000D02*
X135071000Y-51725000D01*
X135071000Y-53685000D02*
X135071000Y-55153000D01*
X135111000Y-50269000D02*
X135111000Y-51725000D01*
X135111000Y-53685000D02*
X135111000Y-55141000D01*
X135151000Y-50281000D02*
X135151000Y-51725000D01*
X135151000Y-53685000D02*
X135151000Y-55129000D01*
X135191000Y-50295000D02*
X135191000Y-51725000D01*
X135191000Y-53685000D02*
X135191000Y-55115000D01*
X135231000Y-50309000D02*
X135231000Y-51725000D01*
X135231000Y-53685000D02*
X135231000Y-55101000D01*
X135271000Y-50323000D02*
X135271000Y-51725000D01*
X135271000Y-53685000D02*
X135271000Y-55087000D01*
X135311000Y-50339000D02*
X135311000Y-51725000D01*
X135311000Y-53685000D02*
X135311000Y-55071000D01*
X135351000Y-50355000D02*
X135351000Y-51725000D01*
X135351000Y-53685000D02*
X135351000Y-55055000D01*
X135391000Y-50372000D02*
X135391000Y-51725000D01*
X135391000Y-53685000D02*
X135391000Y-55038000D01*
X135431000Y-50390000D02*
X135431000Y-51725000D01*
X135431000Y-53685000D02*
X135431000Y-55020000D01*
X135471000Y-50409000D02*
X135471000Y-51725000D01*
X135471000Y-53685000D02*
X135471000Y-55001000D01*
X135511000Y-50429000D02*
X135511000Y-51725000D01*
X135511000Y-53685000D02*
X135511000Y-54981000D01*
X135551000Y-50449000D02*
X135551000Y-51725000D01*
X135551000Y-53685000D02*
X135551000Y-54961000D01*
X135591000Y-50471000D02*
X135591000Y-51725000D01*
X135591000Y-53685000D02*
X135591000Y-54939000D01*
X135631000Y-50493000D02*
X135631000Y-51725000D01*
X135631000Y-53685000D02*
X135631000Y-54917000D01*
X135671000Y-50516000D02*
X135671000Y-51725000D01*
X135671000Y-53685000D02*
X135671000Y-54894000D01*
X135711000Y-50540000D02*
X135711000Y-51725000D01*
X135711000Y-53685000D02*
X135711000Y-54870000D01*
X135751000Y-50565000D02*
X135751000Y-51725000D01*
X135751000Y-53685000D02*
X135751000Y-54845000D01*
X135791000Y-50592000D02*
X135791000Y-51725000D01*
X135791000Y-53685000D02*
X135791000Y-54818000D01*
X135831000Y-50619000D02*
X135831000Y-51725000D01*
X135831000Y-53685000D02*
X135831000Y-54791000D01*
X135871000Y-50647000D02*
X135871000Y-51725000D01*
X135871000Y-53685000D02*
X135871000Y-54763000D01*
X135911000Y-50677000D02*
X135911000Y-51725000D01*
X135911000Y-53685000D02*
X135911000Y-54733000D01*
X135951000Y-50708000D02*
X135951000Y-51725000D01*
X135951000Y-53685000D02*
X135951000Y-54702000D01*
X135991000Y-50740000D02*
X135991000Y-51725000D01*
X135991000Y-53685000D02*
X135991000Y-54670000D01*
X136031000Y-50773000D02*
X136031000Y-51725000D01*
X136031000Y-53685000D02*
X136031000Y-54637000D01*
X136071000Y-50808000D02*
X136071000Y-51725000D01*
X136071000Y-53685000D02*
X136071000Y-54602000D01*
X136111000Y-50844000D02*
X136111000Y-51725000D01*
X136111000Y-53685000D02*
X136111000Y-54566000D01*
X136151000Y-50882000D02*
X136151000Y-51725000D01*
X136151000Y-53685000D02*
X136151000Y-54528000D01*
X136191000Y-50922000D02*
X136191000Y-51725000D01*
X136191000Y-53685000D02*
X136191000Y-54488000D01*
X136231000Y-50963000D02*
X136231000Y-51725000D01*
X136231000Y-53685000D02*
X136231000Y-54447000D01*
X136271000Y-51006000D02*
X136271000Y-51725000D01*
X136271000Y-53685000D02*
X136271000Y-54404000D01*
X136311000Y-51051000D02*
X136311000Y-51725000D01*
X136311000Y-53685000D02*
X136311000Y-54359000D01*
X136351000Y-51099000D02*
X136351000Y-54311000D01*
X136391000Y-51149000D02*
X136391000Y-54261000D01*
X136431000Y-51201000D02*
X136431000Y-54209000D01*
X136471000Y-51257000D02*
X136471000Y-54153000D01*
X136511000Y-51315000D02*
X136511000Y-54095000D01*
X136551000Y-51378000D02*
X136551000Y-54032000D01*
X136591000Y-51444000D02*
X136591000Y-53966000D01*
X136631000Y-51516000D02*
X136631000Y-53894000D01*
X136671000Y-51593000D02*
X136671000Y-53817000D01*
X136711000Y-51677000D02*
X136711000Y-53733000D01*
X136751000Y-51771000D02*
X136751000Y-53639000D01*
X136791000Y-51876000D02*
X136791000Y-53534000D01*
X136831000Y-51998000D02*
X136831000Y-53412000D01*
X136871000Y-52146000D02*
X136871000Y-53264000D01*
X136911000Y-52351000D02*
X136911000Y-53059000D01*
X131150000Y-52705000D02*
X132350000Y-52705000D01*
X131750000Y-52055000D02*
X131750000Y-53355000D01*
X111890722Y-48985277D02*
G75*
G03X107279420Y-48985000I-2305722J-1179723D01*
G01*
X111890722Y-51344723D02*
G75*
G02X107279420Y-51345000I-2305722J1179723D01*
G01*
X111890722Y-51344723D02*
G75*
G03X111890580Y-48985000I-2305722J1179723D01*
G01*
X109585000Y-47615000D02*
X109585000Y-52715000D01*
X109625000Y-47615000D02*
X109625000Y-49185000D01*
X109625000Y-51145000D02*
X109625000Y-52715000D01*
X109665000Y-47616000D02*
X109665000Y-49185000D01*
X109665000Y-51145000D02*
X109665000Y-52714000D01*
X109705000Y-47617000D02*
X109705000Y-49185000D01*
X109705000Y-51145000D02*
X109705000Y-52713000D01*
X109745000Y-47619000D02*
X109745000Y-49185000D01*
X109745000Y-51145000D02*
X109745000Y-52711000D01*
X109785000Y-47622000D02*
X109785000Y-49185000D01*
X109785000Y-51145000D02*
X109785000Y-52708000D01*
X109825000Y-47626000D02*
X109825000Y-49185000D01*
X109825000Y-51145000D02*
X109825000Y-52704000D01*
X109865000Y-47630000D02*
X109865000Y-49185000D01*
X109865000Y-51145000D02*
X109865000Y-52700000D01*
X109905000Y-47634000D02*
X109905000Y-49185000D01*
X109905000Y-51145000D02*
X109905000Y-52696000D01*
X109945000Y-47640000D02*
X109945000Y-49185000D01*
X109945000Y-51145000D02*
X109945000Y-52690000D01*
X109985000Y-47646000D02*
X109985000Y-49185000D01*
X109985000Y-51145000D02*
X109985000Y-52684000D01*
X110025000Y-47652000D02*
X110025000Y-49185000D01*
X110025000Y-51145000D02*
X110025000Y-52678000D01*
X110065000Y-47659000D02*
X110065000Y-49185000D01*
X110065000Y-51145000D02*
X110065000Y-52671000D01*
X110105000Y-47667000D02*
X110105000Y-49185000D01*
X110105000Y-51145000D02*
X110105000Y-52663000D01*
X110145000Y-47676000D02*
X110145000Y-49185000D01*
X110145000Y-51145000D02*
X110145000Y-52654000D01*
X110185000Y-47685000D02*
X110185000Y-49185000D01*
X110185000Y-51145000D02*
X110185000Y-52645000D01*
X110225000Y-47695000D02*
X110225000Y-49185000D01*
X110225000Y-51145000D02*
X110225000Y-52635000D01*
X110265000Y-47705000D02*
X110265000Y-49185000D01*
X110265000Y-51145000D02*
X110265000Y-52625000D01*
X110306000Y-47717000D02*
X110306000Y-49185000D01*
X110306000Y-51145000D02*
X110306000Y-52613000D01*
X110346000Y-47729000D02*
X110346000Y-49185000D01*
X110346000Y-51145000D02*
X110346000Y-52601000D01*
X110386000Y-47741000D02*
X110386000Y-49185000D01*
X110386000Y-51145000D02*
X110386000Y-52589000D01*
X110426000Y-47755000D02*
X110426000Y-49185000D01*
X110426000Y-51145000D02*
X110426000Y-52575000D01*
X110466000Y-47769000D02*
X110466000Y-49185000D01*
X110466000Y-51145000D02*
X110466000Y-52561000D01*
X110506000Y-47783000D02*
X110506000Y-49185000D01*
X110506000Y-51145000D02*
X110506000Y-52547000D01*
X110546000Y-47799000D02*
X110546000Y-49185000D01*
X110546000Y-51145000D02*
X110546000Y-52531000D01*
X110586000Y-47815000D02*
X110586000Y-49185000D01*
X110586000Y-51145000D02*
X110586000Y-52515000D01*
X110626000Y-47832000D02*
X110626000Y-49185000D01*
X110626000Y-51145000D02*
X110626000Y-52498000D01*
X110666000Y-47850000D02*
X110666000Y-49185000D01*
X110666000Y-51145000D02*
X110666000Y-52480000D01*
X110706000Y-47869000D02*
X110706000Y-49185000D01*
X110706000Y-51145000D02*
X110706000Y-52461000D01*
X110746000Y-47889000D02*
X110746000Y-49185000D01*
X110746000Y-51145000D02*
X110746000Y-52441000D01*
X110786000Y-47909000D02*
X110786000Y-49185000D01*
X110786000Y-51145000D02*
X110786000Y-52421000D01*
X110826000Y-47931000D02*
X110826000Y-49185000D01*
X110826000Y-51145000D02*
X110826000Y-52399000D01*
X110866000Y-47953000D02*
X110866000Y-49185000D01*
X110866000Y-51145000D02*
X110866000Y-52377000D01*
X110906000Y-47976000D02*
X110906000Y-49185000D01*
X110906000Y-51145000D02*
X110906000Y-52354000D01*
X110946000Y-48000000D02*
X110946000Y-49185000D01*
X110946000Y-51145000D02*
X110946000Y-52330000D01*
X110986000Y-48025000D02*
X110986000Y-49185000D01*
X110986000Y-51145000D02*
X110986000Y-52305000D01*
X111026000Y-48052000D02*
X111026000Y-49185000D01*
X111026000Y-51145000D02*
X111026000Y-52278000D01*
X111066000Y-48079000D02*
X111066000Y-49185000D01*
X111066000Y-51145000D02*
X111066000Y-52251000D01*
X111106000Y-48107000D02*
X111106000Y-49185000D01*
X111106000Y-51145000D02*
X111106000Y-52223000D01*
X111146000Y-48137000D02*
X111146000Y-49185000D01*
X111146000Y-51145000D02*
X111146000Y-52193000D01*
X111186000Y-48168000D02*
X111186000Y-49185000D01*
X111186000Y-51145000D02*
X111186000Y-52162000D01*
X111226000Y-48200000D02*
X111226000Y-49185000D01*
X111226000Y-51145000D02*
X111226000Y-52130000D01*
X111266000Y-48233000D02*
X111266000Y-49185000D01*
X111266000Y-51145000D02*
X111266000Y-52097000D01*
X111306000Y-48268000D02*
X111306000Y-49185000D01*
X111306000Y-51145000D02*
X111306000Y-52062000D01*
X111346000Y-48304000D02*
X111346000Y-49185000D01*
X111346000Y-51145000D02*
X111346000Y-52026000D01*
X111386000Y-48342000D02*
X111386000Y-49185000D01*
X111386000Y-51145000D02*
X111386000Y-51988000D01*
X111426000Y-48382000D02*
X111426000Y-49185000D01*
X111426000Y-51145000D02*
X111426000Y-51948000D01*
X111466000Y-48423000D02*
X111466000Y-49185000D01*
X111466000Y-51145000D02*
X111466000Y-51907000D01*
X111506000Y-48466000D02*
X111506000Y-49185000D01*
X111506000Y-51145000D02*
X111506000Y-51864000D01*
X111546000Y-48511000D02*
X111546000Y-49185000D01*
X111546000Y-51145000D02*
X111546000Y-51819000D01*
X111586000Y-48559000D02*
X111586000Y-51771000D01*
X111626000Y-48609000D02*
X111626000Y-51721000D01*
X111666000Y-48661000D02*
X111666000Y-51669000D01*
X111706000Y-48717000D02*
X111706000Y-51613000D01*
X111746000Y-48775000D02*
X111746000Y-51555000D01*
X111786000Y-48838000D02*
X111786000Y-51492000D01*
X111826000Y-48904000D02*
X111826000Y-51426000D01*
X111866000Y-48976000D02*
X111866000Y-51354000D01*
X111906000Y-49053000D02*
X111906000Y-51277000D01*
X111946000Y-49137000D02*
X111946000Y-51193000D01*
X111986000Y-49231000D02*
X111986000Y-51099000D01*
X112026000Y-49336000D02*
X112026000Y-50994000D01*
X112066000Y-49458000D02*
X112066000Y-50872000D01*
X112106000Y-49606000D02*
X112106000Y-50724000D01*
X112146000Y-49811000D02*
X112146000Y-50519000D01*
X106385000Y-50165000D02*
X107585000Y-50165000D01*
X106985000Y-49515000D02*
X106985000Y-50815000D01*
X106605000Y-36740000D02*
X110525000Y-36740000D01*
X106605000Y-39460000D02*
X110525000Y-39460000D01*
X106605000Y-36740000D02*
X106605000Y-37350000D01*
X106605000Y-38850000D02*
X106605000Y-39460000D01*
X110525000Y-36740000D02*
X110525000Y-37350000D01*
X110525000Y-38850000D02*
X110525000Y-39460000D01*
X136600000Y-39460000D02*
X132680000Y-39460000D01*
X136600000Y-36740000D02*
X132680000Y-36740000D01*
X136600000Y-39460000D02*
X136600000Y-38850000D01*
X136600000Y-37350000D02*
X136600000Y-36740000D01*
X132680000Y-39460000D02*
X132680000Y-38850000D01*
X132680000Y-37350000D02*
X132680000Y-36740000D01*
X144205000Y-56455000D02*
X141545000Y-56455000D01*
X144205000Y-59055000D02*
X144205000Y-56455000D01*
X141545000Y-59055000D02*
X141545000Y-56455000D01*
X144205000Y-59055000D02*
X141545000Y-59055000D01*
X144205000Y-60325000D02*
X144205000Y-61655000D01*
X144205000Y-61655000D02*
X142875000Y-61655000D01*
X99755000Y-57090000D02*
X97095000Y-57090000D01*
X99755000Y-59690000D02*
X99755000Y-57090000D01*
X97095000Y-59690000D02*
X97095000Y-57090000D01*
X99755000Y-59690000D02*
X97095000Y-59690000D01*
X99755000Y-60960000D02*
X99755000Y-62290000D01*
X99755000Y-62290000D02*
X98425000Y-62290000D01*
X117415000Y-74235000D02*
X117415000Y-76895000D01*
X122555000Y-74235000D02*
X117415000Y-74235000D01*
X122555000Y-76895000D02*
X117415000Y-76895000D01*
X122555000Y-74235000D02*
X122555000Y-76895000D01*
X123825000Y-74235000D02*
X125155000Y-74235000D01*
X125155000Y-74235000D02*
X125155000Y-75565000D01*
X105350000Y-74235000D02*
X105350000Y-76895000D01*
X110490000Y-74235000D02*
X105350000Y-74235000D01*
X110490000Y-76895000D02*
X105350000Y-76895000D01*
X110490000Y-74235000D02*
X110490000Y-76895000D01*
X111760000Y-74235000D02*
X113090000Y-74235000D01*
X113090000Y-74235000D02*
X113090000Y-75565000D01*
X98365000Y-48200000D02*
X98365000Y-50860000D01*
X100965000Y-48200000D02*
X98365000Y-48200000D01*
X100965000Y-50860000D02*
X98365000Y-50860000D01*
X100965000Y-48200000D02*
X100965000Y-50860000D01*
X102235000Y-48200000D02*
X103565000Y-48200000D01*
X103565000Y-48200000D02*
X103565000Y-49530000D01*
X98365000Y-42485000D02*
X98365000Y-45145000D01*
X100965000Y-42485000D02*
X98365000Y-42485000D01*
X100965000Y-45145000D02*
X98365000Y-45145000D01*
X100965000Y-42485000D02*
X100965000Y-45145000D01*
X102235000Y-42485000D02*
X103565000Y-42485000D01*
X103565000Y-42485000D02*
X103565000Y-43815000D01*
X135315000Y-76260000D02*
X135315000Y-73600000D01*
X132715000Y-76260000D02*
X135315000Y-76260000D01*
X132715000Y-73600000D02*
X135315000Y-73600000D01*
X132715000Y-76260000D02*
X132715000Y-73600000D01*
X131445000Y-76260000D02*
X130115000Y-76260000D01*
X130115000Y-76260000D02*
X130115000Y-74930000D01*
X111185000Y-33080000D02*
X111185000Y-30420000D01*
X108585000Y-33080000D02*
X111185000Y-33080000D01*
X108585000Y-30420000D02*
X111185000Y-30420000D01*
X108585000Y-33080000D02*
X108585000Y-30420000D01*
X107315000Y-33080000D02*
X105985000Y-33080000D01*
X105985000Y-33080000D02*
X105985000Y-31750000D01*
X132020000Y-30420000D02*
X132020000Y-33080000D01*
X134620000Y-30420000D02*
X132020000Y-30420000D01*
X134620000Y-33080000D02*
X132020000Y-33080000D01*
X134620000Y-30420000D02*
X134620000Y-33080000D01*
X135890000Y-30420000D02*
X137220000Y-30420000D01*
X137220000Y-30420000D02*
X137220000Y-31750000D01*
X115530000Y-46475000D02*
X125770000Y-46475000D01*
X115530000Y-30585000D02*
X125770000Y-30585000D01*
X115530000Y-30585000D02*
X115530000Y-46475000D01*
X125770000Y-30585000D02*
X125770000Y-46475000D01*
X118110000Y-46475000D02*
X118110000Y-49115000D01*
X120650000Y-46475000D02*
X120650000Y-49099000D01*
X123190000Y-46475000D02*
X123190000Y-49099000D01*
X136420000Y-43870000D02*
X132820000Y-43870000D01*
X136458478Y-43881522D02*
G75*
G02X134620000Y-48320000I-1838478J-1838478D01*
G01*
X132781522Y-43881522D02*
G75*
G03X134620000Y-48320000I1838478J-1838478D01*
G01*
D12*
X105707381Y-68071905D02*
X106516905Y-68071905D01*
X106612143Y-68024286D01*
X106659762Y-67976667D01*
X106707381Y-67881429D01*
X106707381Y-67690952D01*
X106659762Y-67595714D01*
X106612143Y-67548095D01*
X106516905Y-67500476D01*
X105707381Y-67500476D01*
X106707381Y-66500476D02*
X106707381Y-67071905D01*
X106707381Y-66786191D02*
X105707381Y-66786191D01*
X105850238Y-66881429D01*
X105945476Y-66976667D01*
X105993095Y-67071905D01*
X134183334Y-49252143D02*
X134135715Y-49299762D01*
X133992858Y-49347381D01*
X133897620Y-49347381D01*
X133754762Y-49299762D01*
X133659524Y-49204524D01*
X133611905Y-49109286D01*
X133564286Y-48918810D01*
X133564286Y-48775952D01*
X133611905Y-48585476D01*
X133659524Y-48490238D01*
X133754762Y-48395000D01*
X133897620Y-48347381D01*
X133992858Y-48347381D01*
X134135715Y-48395000D01*
X134183334Y-48442619D01*
X135135715Y-49347381D02*
X134564286Y-49347381D01*
X134850000Y-49347381D02*
X134850000Y-48347381D01*
X134754762Y-48490238D01*
X134659524Y-48585476D01*
X134564286Y-48633095D01*
X109418334Y-46712143D02*
X109370715Y-46759762D01*
X109227858Y-46807381D01*
X109132620Y-46807381D01*
X108989762Y-46759762D01*
X108894524Y-46664524D01*
X108846905Y-46569286D01*
X108799286Y-46378810D01*
X108799286Y-46235952D01*
X108846905Y-46045476D01*
X108894524Y-45950238D01*
X108989762Y-45855000D01*
X109132620Y-45807381D01*
X109227858Y-45807381D01*
X109370715Y-45855000D01*
X109418334Y-45902619D01*
X109799286Y-45902619D02*
X109846905Y-45855000D01*
X109942143Y-45807381D01*
X110180239Y-45807381D01*
X110275477Y-45855000D01*
X110323096Y-45902619D01*
X110370715Y-45997857D01*
X110370715Y-46093095D01*
X110323096Y-46235952D01*
X109751667Y-46807381D01*
X110370715Y-46807381D01*
X108398334Y-35847143D02*
X108350715Y-35894762D01*
X108207858Y-35942381D01*
X108112620Y-35942381D01*
X107969762Y-35894762D01*
X107874524Y-35799524D01*
X107826905Y-35704286D01*
X107779286Y-35513810D01*
X107779286Y-35370952D01*
X107826905Y-35180476D01*
X107874524Y-35085238D01*
X107969762Y-34990000D01*
X108112620Y-34942381D01*
X108207858Y-34942381D01*
X108350715Y-34990000D01*
X108398334Y-35037619D01*
X108731667Y-34942381D02*
X109350715Y-34942381D01*
X109017381Y-35323333D01*
X109160239Y-35323333D01*
X109255477Y-35370952D01*
X109303096Y-35418571D01*
X109350715Y-35513810D01*
X109350715Y-35751905D01*
X109303096Y-35847143D01*
X109255477Y-35894762D01*
X109160239Y-35942381D01*
X108874524Y-35942381D01*
X108779286Y-35894762D01*
X108731667Y-35847143D01*
X134473334Y-41067143D02*
X134425715Y-41114762D01*
X134282858Y-41162381D01*
X134187620Y-41162381D01*
X134044762Y-41114762D01*
X133949524Y-41019524D01*
X133901905Y-40924286D01*
X133854286Y-40733810D01*
X133854286Y-40590952D01*
X133901905Y-40400476D01*
X133949524Y-40305238D01*
X134044762Y-40210000D01*
X134187620Y-40162381D01*
X134282858Y-40162381D01*
X134425715Y-40210000D01*
X134473334Y-40257619D01*
X135330477Y-40495714D02*
X135330477Y-41162381D01*
X135092381Y-40114762D02*
X134854286Y-40829048D01*
X135473334Y-40829048D01*
X142541667Y-62107381D02*
X142541667Y-62821667D01*
X142494047Y-62964524D01*
X142398809Y-63059762D01*
X142255952Y-63107381D01*
X142160714Y-63107381D01*
X143541667Y-63107381D02*
X142970238Y-63107381D01*
X143255952Y-63107381D02*
X143255952Y-62107381D01*
X143160714Y-62250238D01*
X143065476Y-62345476D01*
X142970238Y-62393095D01*
X98091667Y-62742381D02*
X98091667Y-63456667D01*
X98044047Y-63599524D01*
X97948809Y-63694762D01*
X97805952Y-63742381D01*
X97710714Y-63742381D01*
X98520238Y-62837619D02*
X98567857Y-62790000D01*
X98663095Y-62742381D01*
X98901191Y-62742381D01*
X98996429Y-62790000D01*
X99044048Y-62837619D01*
X99091667Y-62932857D01*
X99091667Y-63028095D01*
X99044048Y-63170952D01*
X98472619Y-63742381D01*
X99091667Y-63742381D01*
X125607381Y-75898333D02*
X126321667Y-75898333D01*
X126464524Y-75945953D01*
X126559762Y-76041191D01*
X126607381Y-76184048D01*
X126607381Y-76279286D01*
X125607381Y-75517381D02*
X125607381Y-74898333D01*
X125988333Y-75231667D01*
X125988333Y-75088809D01*
X126035952Y-74993571D01*
X126083571Y-74945952D01*
X126178810Y-74898333D01*
X126416905Y-74898333D01*
X126512143Y-74945952D01*
X126559762Y-74993571D01*
X126607381Y-75088809D01*
X126607381Y-75374524D01*
X126559762Y-75469762D01*
X126512143Y-75517381D01*
X113542381Y-75898333D02*
X114256667Y-75898333D01*
X114399524Y-75945953D01*
X114494762Y-76041191D01*
X114542381Y-76184048D01*
X114542381Y-76279286D01*
X113875714Y-74993571D02*
X114542381Y-74993571D01*
X113494762Y-75231667D02*
X114209048Y-75469762D01*
X114209048Y-74850714D01*
X104017381Y-49863333D02*
X104731667Y-49863333D01*
X104874524Y-49910953D01*
X104969762Y-50006191D01*
X105017381Y-50149048D01*
X105017381Y-50244286D01*
X104017381Y-48910952D02*
X104017381Y-49387143D01*
X104493571Y-49434762D01*
X104445952Y-49387143D01*
X104398333Y-49291905D01*
X104398333Y-49053809D01*
X104445952Y-48958571D01*
X104493571Y-48910952D01*
X104588810Y-48863333D01*
X104826905Y-48863333D01*
X104922143Y-48910952D01*
X104969762Y-48958571D01*
X105017381Y-49053809D01*
X105017381Y-49291905D01*
X104969762Y-49387143D01*
X104922143Y-49434762D01*
X104017381Y-44148333D02*
X104731667Y-44148333D01*
X104874524Y-44195953D01*
X104969762Y-44291191D01*
X105017381Y-44434048D01*
X105017381Y-44529286D01*
X104017381Y-43243571D02*
X104017381Y-43434048D01*
X104065000Y-43529286D01*
X104112619Y-43576905D01*
X104255476Y-43672143D01*
X104445952Y-43719762D01*
X104826905Y-43719762D01*
X104922143Y-43672143D01*
X104969762Y-43624524D01*
X105017381Y-43529286D01*
X105017381Y-43338809D01*
X104969762Y-43243571D01*
X104922143Y-43195952D01*
X104826905Y-43148333D01*
X104588810Y-43148333D01*
X104493571Y-43195952D01*
X104445952Y-43243571D01*
X104398333Y-43338809D01*
X104398333Y-43529286D01*
X104445952Y-43624524D01*
X104493571Y-43672143D01*
X104588810Y-43719762D01*
X128567381Y-75263333D02*
X129281667Y-75263333D01*
X129424524Y-75310953D01*
X129519762Y-75406191D01*
X129567381Y-75549048D01*
X129567381Y-75644286D01*
X128567381Y-74882381D02*
X128567381Y-74215714D01*
X129567381Y-74644286D01*
X104437381Y-32083333D02*
X105151667Y-32083333D01*
X105294524Y-32130953D01*
X105389762Y-32226191D01*
X105437381Y-32369048D01*
X105437381Y-32464286D01*
X104865952Y-31464286D02*
X104818333Y-31559524D01*
X104770714Y-31607143D01*
X104675476Y-31654762D01*
X104627857Y-31654762D01*
X104532619Y-31607143D01*
X104485000Y-31559524D01*
X104437381Y-31464286D01*
X104437381Y-31273809D01*
X104485000Y-31178571D01*
X104532619Y-31130952D01*
X104627857Y-31083333D01*
X104675476Y-31083333D01*
X104770714Y-31130952D01*
X104818333Y-31178571D01*
X104865952Y-31273809D01*
X104865952Y-31464286D01*
X104913571Y-31559524D01*
X104961190Y-31607143D01*
X105056429Y-31654762D01*
X105246905Y-31654762D01*
X105342143Y-31607143D01*
X105389762Y-31559524D01*
X105437381Y-31464286D01*
X105437381Y-31273809D01*
X105389762Y-31178571D01*
X105342143Y-31130952D01*
X105246905Y-31083333D01*
X105056429Y-31083333D01*
X104961190Y-31130952D01*
X104913571Y-31178571D01*
X104865952Y-31273809D01*
X137672381Y-32083333D02*
X138386667Y-32083333D01*
X138529524Y-32130953D01*
X138624762Y-32226191D01*
X138672381Y-32369048D01*
X138672381Y-32464286D01*
X138672381Y-31559524D02*
X138672381Y-31369048D01*
X138624762Y-31273809D01*
X138577143Y-31226190D01*
X138434286Y-31130952D01*
X138243810Y-31083333D01*
X137862857Y-31083333D01*
X137767619Y-31130952D01*
X137720000Y-31178571D01*
X137672381Y-31273809D01*
X137672381Y-31464286D01*
X137720000Y-31559524D01*
X137767619Y-31607143D01*
X137862857Y-31654762D01*
X138100952Y-31654762D01*
X138196190Y-31607143D01*
X138243810Y-31559524D01*
X138291429Y-31464286D01*
X138291429Y-31273809D01*
X138243810Y-31178571D01*
X138196190Y-31130952D01*
X138100952Y-31083333D01*
X119888095Y-29037381D02*
X119888095Y-29846905D01*
X119935714Y-29942143D01*
X119983333Y-29989762D01*
X120078571Y-30037381D01*
X120269048Y-30037381D01*
X120364286Y-29989762D01*
X120411905Y-29942143D01*
X120459524Y-29846905D01*
X120459524Y-29037381D01*
X120888095Y-29132619D02*
X120935714Y-29085000D01*
X121030952Y-29037381D01*
X121269048Y-29037381D01*
X121364286Y-29085000D01*
X121411905Y-29132619D01*
X121459524Y-29227857D01*
X121459524Y-29323095D01*
X121411905Y-29465952D01*
X120840476Y-30037381D01*
X121459524Y-30037381D01*
X133858095Y-48732381D02*
X133858095Y-49541905D01*
X133905714Y-49637143D01*
X133953333Y-49684762D01*
X134048571Y-49732381D01*
X134239048Y-49732381D01*
X134334286Y-49684762D01*
X134381905Y-49637143D01*
X134429524Y-49541905D01*
X134429524Y-48732381D01*
X134810476Y-48732381D02*
X135429524Y-48732381D01*
X135096190Y-49113333D01*
X135239048Y-49113333D01*
X135334286Y-49160952D01*
X135381905Y-49208571D01*
X135429524Y-49303810D01*
X135429524Y-49541905D01*
X135381905Y-49637143D01*
X135334286Y-49684762D01*
X135239048Y-49732381D01*
X134953333Y-49732381D01*
X134858095Y-49684762D01*
X134810476Y-49637143D01*
X140906667Y-29772381D02*
X140573333Y-29296190D01*
X140335238Y-29772381D02*
X140335238Y-28772381D01*
X140716191Y-28772381D01*
X140811429Y-28820000D01*
X140859048Y-28867619D01*
X140906667Y-28962857D01*
X140906667Y-29105714D01*
X140859048Y-29200952D01*
X140811429Y-29248571D01*
X140716191Y-29296190D01*
X140335238Y-29296190D01*
X141335238Y-29248571D02*
X141668572Y-29248571D01*
X141811429Y-29772381D02*
X141335238Y-29772381D01*
X141335238Y-28772381D01*
X141811429Y-28772381D01*
X142573334Y-29248571D02*
X142240000Y-29248571D01*
X142240000Y-29772381D02*
X142240000Y-28772381D01*
X142716191Y-28772381D01*
X143240000Y-28772381D02*
X143240000Y-29010476D01*
X143001905Y-28915238D02*
X143240000Y-29010476D01*
X143478096Y-28915238D01*
X143097143Y-29200952D02*
X143240000Y-29010476D01*
X143382858Y-29200952D01*
X144001905Y-28772381D02*
X144001905Y-29010476D01*
X143763810Y-28915238D02*
X144001905Y-29010476D01*
X144240001Y-28915238D01*
X143859048Y-29200952D02*
X144001905Y-29010476D01*
X144144763Y-29200952D01*
X98361667Y-29772381D02*
X98028333Y-29296190D01*
X97790238Y-29772381D02*
X97790238Y-28772381D01*
X98171191Y-28772381D01*
X98266429Y-28820000D01*
X98314048Y-28867619D01*
X98361667Y-28962857D01*
X98361667Y-29105714D01*
X98314048Y-29200952D01*
X98266429Y-29248571D01*
X98171191Y-29296190D01*
X97790238Y-29296190D01*
X98790238Y-29248571D02*
X99123572Y-29248571D01*
X99266429Y-29772381D02*
X98790238Y-29772381D01*
X98790238Y-28772381D01*
X99266429Y-28772381D01*
X100028334Y-29248571D02*
X99695000Y-29248571D01*
X99695000Y-29772381D02*
X99695000Y-28772381D01*
X100171191Y-28772381D01*
X100695000Y-28772381D02*
X100695000Y-29010476D01*
X100456905Y-28915238D02*
X100695000Y-29010476D01*
X100933096Y-28915238D01*
X100552143Y-29200952D02*
X100695000Y-29010476D01*
X100837858Y-29200952D01*
X101456905Y-28772381D02*
X101456905Y-29010476D01*
X101218810Y-28915238D02*
X101456905Y-29010476D01*
X101695001Y-28915238D01*
X101314048Y-29200952D02*
X101456905Y-29010476D01*
X101599763Y-29200952D01*
X98361667Y-70412381D02*
X98028333Y-69936190D01*
X97790238Y-70412381D02*
X97790238Y-69412381D01*
X98171191Y-69412381D01*
X98266429Y-69460000D01*
X98314048Y-69507619D01*
X98361667Y-69602857D01*
X98361667Y-69745714D01*
X98314048Y-69840952D01*
X98266429Y-69888571D01*
X98171191Y-69936190D01*
X97790238Y-69936190D01*
X98790238Y-69888571D02*
X99123572Y-69888571D01*
X99266429Y-70412381D02*
X98790238Y-70412381D01*
X98790238Y-69412381D01*
X99266429Y-69412381D01*
X100028334Y-69888571D02*
X99695000Y-69888571D01*
X99695000Y-70412381D02*
X99695000Y-69412381D01*
X100171191Y-69412381D01*
X100695000Y-69412381D02*
X100695000Y-69650476D01*
X100456905Y-69555238D02*
X100695000Y-69650476D01*
X100933096Y-69555238D01*
X100552143Y-69840952D02*
X100695000Y-69650476D01*
X100837858Y-69840952D01*
X101456905Y-69412381D02*
X101456905Y-69650476D01*
X101218810Y-69555238D02*
X101456905Y-69650476D01*
X101695001Y-69555238D01*
X101314048Y-69840952D02*
X101456905Y-69650476D01*
X101599763Y-69840952D01*
X140271667Y-69777381D02*
X139938333Y-69301190D01*
X139700238Y-69777381D02*
X139700238Y-68777381D01*
X140081191Y-68777381D01*
X140176429Y-68825000D01*
X140224048Y-68872619D01*
X140271667Y-68967857D01*
X140271667Y-69110714D01*
X140224048Y-69205952D01*
X140176429Y-69253571D01*
X140081191Y-69301190D01*
X139700238Y-69301190D01*
X140700238Y-69253571D02*
X141033572Y-69253571D01*
X141176429Y-69777381D02*
X140700238Y-69777381D01*
X140700238Y-68777381D01*
X141176429Y-68777381D01*
X141938334Y-69253571D02*
X141605000Y-69253571D01*
X141605000Y-69777381D02*
X141605000Y-68777381D01*
X142081191Y-68777381D01*
X142605000Y-68777381D02*
X142605000Y-69015476D01*
X142366905Y-68920238D02*
X142605000Y-69015476D01*
X142843096Y-68920238D01*
X142462143Y-69205952D02*
X142605000Y-69015476D01*
X142747858Y-69205952D01*
X143366905Y-68777381D02*
X143366905Y-69015476D01*
X143128810Y-68920238D02*
X143366905Y-69015476D01*
X143605001Y-68920238D01*
X143224048Y-69205952D02*
X143366905Y-69015476D01*
X143509763Y-69205952D01*
M02*
