M48
;DRILL file {KiCad 4.0.7} date 03/21/18 08:00:42
;FORMAT={-:-/ absolute / inch / decimal}
FMAT,2
INCH,TZ
T1C0.016
T2C0.024
T3C0.031
T4C0.039
%
G90
G05
M72
T1
X4.65Y-1.775
X4.775Y-2.35
X5.125Y-1.95
X5.5Y-2.25
T2
X5.25Y-1.8
X5.3Y-1.8
X5.35Y-1.8
T3
X4.225Y-1.5
X4.275Y-1.975
X4.3234Y-1.5
X4.3537Y-1.975
X5.25Y-2.075
X5.2516Y-1.5
X5.3287Y-2.075
X5.35Y-1.5
T4
X3.875Y-2.3
X3.875Y-2.4
X3.925Y-1.725
X3.925Y-1.95
X4.025Y-1.725
X4.025Y-1.95
X4.2Y-2.975
X4.225Y-1.25
X4.275Y-2.65
X4.3Y-2.975
X4.325Y-1.25
X4.375Y-2.65
X4.4Y-2.975
X4.475Y-2.25
X4.475Y-2.65
X4.575Y-2.25
X4.575Y-2.65
X4.65Y-1.975
X4.675Y-2.25
X4.675Y-2.65
X4.675Y-2.975
X4.75Y-1.975
X4.775Y-2.25
X4.775Y-2.65
X4.775Y-2.975
X4.85Y-1.975
X4.875Y-2.25
X4.875Y-2.65
X4.875Y-2.975
X4.975Y-2.25
X4.975Y-2.65
X5.075Y-2.65
X5.175Y-2.65
X5.175Y-2.95
X5.25Y-1.25
X5.275Y-2.95
X5.35Y-1.25
X5.625Y-2.275
X5.625Y-2.375
T0
M30
